<svg xmlns="http://www.w3.org/2000/svg" viewBox="0 0 118.75 118.59"><defs><style>.cls-1{fill:#403f68;}.cls-2{fill:#beb0a1;}.cls-3{fill:#c8c8c8;}.cls-4{fill:#cdcbca;}</style></defs><g id="Layer_2" data-name="Layer 2"><g id="Layer_1-2" data-name="Layer 1"><path class="cls-1" d="M116.14,94.85a2.23,2.23,0,0,0-1.42-1c-.65,0-1,.18-1,.52s.45.61,1.34.58a3.89,3.89,0,0,0,1-.09m2.13,1.59a6,6,0,0,1-1.26,4.08,20,20,0,0,1-5.05,3.65,15.49,15.49,0,0,1-3.71,1.82c-.39,0-8.29,2.15-8.63,1.81a5.79,5.79,0,0,1,1.23-.63c3.39-1.55,11-4.35,15.39-7.84.85-.65,1.28-1.13,1.28-1.41a1.41,1.41,0,0,0-.58-.62,4,4,0,0,0-1.68-.3c-1.74,0-2.61-.58-2.61-1.77a3.68,3.68,0,0,1,.92-2.45c1.42-1.63,2.82-1.13,3.89.78a6.1,6.1,0,0,1,.81,2.88"></path><path class="cls-1" d="M105.53,93.82a8.14,8.14,0,0,0-.55-1.16,10,10,0,0,1,.24-1.82c0-.18.1-.28.16-.3s.4.57,1.83,1.92c.22.22.58.61.25.56a2.62,2.62,0,0,1-.83-.18c1,2.32,1.77,3.6,1.2,5.81a3.53,3.53,0,0,1-.68,1.43,20.8,20.8,0,0,1-5.39,4,15.48,15.48,0,0,1-3.88,1.88c-.07,0-1.15.25-3.22.76a41.36,41.36,0,0,1-5.24,1.07l-.09,0a6.68,6.68,0,0,1,1.2-.63c3-1.39,7-2.83,10.49-4.73a36.33,36.33,0,0,0,4.91-3c.86-.67,1.28-1.15,1.28-1.43s-1.19-2.4-1.68-4.1"></path><path class="cls-1" d="M97.66,81.79A4,4,0,0,0,97.33,80,7,7,0,0,1,98,78.19c.06-.12.09-.18.13-.18s.11.06.16.18.39,1,.84,2.1c.83,2.14,1.5,3.91-.08,2.08-.06-.09-.1,0-.1.15,0,0,1,13.43,1,14.5a12.26,12.26,0,0,1-.8,4.59c-.39,1-.57,1-.42-.21.22-2,.06-3.88-.44-10.9q-.57-7.75-.57-8.71m-4.48,12c-.45-1.44-.69-.53-.48-2,.06-.46.12-.79.16-1s.11-.28.15-.29a.86.86,0,0,1,.18.14c1.47,1.85,3.12,2.75,1.08,2.14,1,2.35,1.77,3.6,1.21,5.81a3.59,3.59,0,0,1-.69,1.43,21.17,21.17,0,0,1-5.39,4,15.51,15.51,0,0,1-3.87,1.88c-.08,0-1.16.25-3.24.76a39.68,39.68,0,0,1-5.24,1.07l-.09,0c0-.12,1.62-.83,6.31-2.82,6.43-2.7,11.6-6,11.6-7,0-.36-1.2-2.42-1.69-4.12"></path><path class="cls-1" d="M88.48,97.79a9.57,9.57,0,0,0-2.06-2.51c-.63.67-2.15,3.12-2.15,3.82,0,.44.32.65,1,.65,1.32,0,3.28-1.59,3.2-2m1.41-9.09A5.1,5.1,0,0,1,89,91.09c-.39.64-.92,1.5-1.67,2.56,1.53,1.79,1.73,2.65,1.73,4.11a4.49,4.49,0,0,1-.61,2.11A5.66,5.66,0,0,1,85,102c-.88,0-1.29-.66-1.29-2,0-2,.75-3.46,1.93-5.39A16.94,16.94,0,0,1,83.57,92L83,91.42a.77.77,0,0,1-.25-.55,4.61,4.61,0,0,1,.36-1.77,15.07,15.07,0,0,1,2.66,1.8h0s-.11.08-.38.08a1.72,1.72,0,0,0-.71.07s.06.15.22.31a7.57,7.57,0,0,0,1.77,1.7,37.74,37.74,0,0,0,2.78-4.43c.16-.42.28-.64.33-.64s.11.21.11.7M76.57,83.23a4.2,4.2,0,0,0-.32-1.76,6.77,6.77,0,0,1,.62-1.84c.06-.12.09-.18.12-.18s.1.07.16.18a37.55,37.55,0,0,1,1.71,4.76c0,.34-.33.15-1-.59-.17-.25-.1.16.39,7,.33,4.53.49,7.06.49,7.62A12.26,12.26,0,0,1,78,103c-.11.28-.4,1-.45.65s.14-.92.14-2.94c0-1.73-1.09-16-1.09-17.51M66.65,96.05l-4-1a8.26,8.26,0,0,1,1.54-.54,27.13,27.13,0,0,0,3.19-1c.41-.14.42-.52.46-.79.18-.64-.52-8.3-.52-9.25A3.73,3.73,0,0,0,67,81.72a6.74,6.74,0,0,1,.65-1.86c.05-.12.09-.18.14-.18s.1.06.16.18.4,1,.85,2.1.74,1.94.83,2.21a3.61,3.61,0,0,1,.07.48c0,.32-.31.13-1-.61-.06-.09-.12-.05-.12.13s.12,1.07.33,4,.22,3.95-.06,4.89a5.54,5.54,0,0,1-2.2,3"></path><path class="cls-1" d="M80.36,97.89c-.85,1.58-.83,1.8-1.1,1.8a24.19,24.19,0,0,0-7.44.56q-10.23,3.12-17.32,3.11A25.25,25.25,0,0,1,45.22,102V99.7c2,1,5.27,1.43,9.91,1.42a53.53,53.53,0,0,0,16-2.59c-.78-.09-6.88-1.75-8.31-1.75-.65,0-1,0-1-.16a.56.56,0,0,1,.07-.21l.69-1.34h3.84c10.33,2.85,13.92,2.24,13.92,2.67l0,.15Z"></path><path class="cls-1" d="M43.51,98.46a6.78,6.78,0,0,0,1.86,1.32V102a5.74,5.74,0,0,1-3.56-3c-1.24-2.68-.36-12.87-2-16.65a5.73,5.73,0,0,1,.52-1.74c.07-.18.13-.27.17-.28s.11.09.18.22c2,3.82.49,15.55,2.85,17.87M37.6,93.87a5.86,5.86,0,0,0-.55-1.16,10,10,0,0,1,.24-1.83c.05-.18.11-.28.16-.29a.67.67,0,0,1,.17.14c1.45,1.8,3.13,2.77,1.08,2.14a12.17,12.17,0,0,1,1.41,4.46,5.07,5.07,0,0,1-.89,2.78,21.35,21.35,0,0,1-5.39,4A15.61,15.61,0,0,1,30,106c-.4,0-7.08,1.82-8.48,1.82h-.08A56,56,0,0,1,27.7,105c6.75-2.84,11.6-6.08,11.6-7a14.64,14.64,0,0,0-.66-1.56,19.63,19.63,0,0,1-1-2.55"></path><path class="cls-1" d="M20.7,102.5v-2.25c1.83,0,5-1.35,7.28-2.25l-4.2-1.28a.53.53,0,0,0-.45.18.58.58,0,0,1-.52.15c-3.44-.24-3.38-.09-3.07-.75.64-1.08.71-1.59,1.13-1.69a22.5,22.5,0,0,1,3.07-.19l2.57.83A30.91,30.91,0,0,0,33.61,97c2.34.42,2.34.31,2.51.37s.06.12,0,.27l-.77,1.43c-.36.78-2.15-.93-7.2.87-1.31.58-2.62,1.12-3.92,1.67a9.51,9.51,0,0,1-3.48.89"></path><path class="cls-1" d="M20.81,102.5a2.54,2.54,0,0,1-2.65-2.37,4.46,4.46,0,0,1-1.26,1.53A4.27,4.27,0,0,1,14,102.84v-2.23a4.7,4.7,0,0,0,3.15-1c.15-.09,1.76-1.95,1.89-2s.15.08.15.22a.66.66,0,0,1,0,.25c-.39,1.4.13,2.18,1.6,2.17l0,2.23Z"></path><path class="cls-1" d="M14.14,102.84a7,7,0,0,1-1.64-.14,3.08,3.08,0,0,1-1.79-1.41c-.3-.49-.6-1-.89-1.51s-.54-.63-.81-.65c-.83,0-1.72.74-2.62,2.15a19.55,19.55,0,0,0-.9,2A13.46,13.46,0,0,1,4.4,105.6a2,2,0,0,1-1.56,1.1c-.84,0-1.52-.65-2.08-1.93A8.87,8.87,0,0,1,0,101.23c0-2.34.49-4,.7-4s-.14,1.31-.14,3q0,4.7,2.17,4.69c.58,0,1.12-.44,1.61-1.36.49-1.1,1-2.2,1.5-3.29S7.9,97,9.25,96.94a1.47,1.47,0,0,1,1.13.79c1.2,1.94,1.63,2.88,3.77,2.88v2.23Zm4.44,3.35s0-.06,0-.13c.67-1.29.71-1.54.86-1.57a9.31,9.31,0,0,1,1.81,1.24,4,4,0,0,1-.76,1.56c-.13.29-.1,0-1.91-1.1m-5.79-.47c.62-1.25.59-1.29.71-1.31a9.24,9.24,0,0,1,1.81,1.26,4.13,4.13,0,0,1-.76,1.59c-.06.11-.11.12-.19.08-.49-.36-1-.74-1.66-1.16a6.62,6.62,0,0,1-.63,1.17c0,.12-.1.14-.17.08-.55-.42-1.13-.81-1.73-1.19,0,0,0-.08,0-.13.61-1.19.7-1.56.85-1.59a3.64,3.64,0,0,1,.83.49,8.16,8.16,0,0,1,.94.71M7,90c.64-1.25.59-1.29.71-1.31A9.24,9.24,0,0,1,9.53,89.9a4,4,0,0,1-.74,1.59c-.06.11-.12.12-.19.06-.49-.36-1-.74-1.66-1.16a8,8,0,0,1-.63,1.18c0,.11-.1.13-.18.07-.55-.42-1.13-.8-1.72-1.19,0,0,0-.07,0-.13.59-1.17.68-1.56.85-1.59A10.74,10.74,0,0,1,7,90m54.09-.8s0-.08,0-.14c.64-1.22.7-1.54.86-1.57a9.11,9.11,0,0,1,1.81,1.23A4.23,4.23,0,0,1,63,90.24c-.15.29-.12,0-1.93-1.09m42.35-2.56s0-.07,0-.13c.67-1.28.72-1.55.86-1.58a9.12,9.12,0,0,1,1.82,1.25,4.41,4.41,0,0,1-.76,1.57c-.13.29-.09,0-1.92-1.11M85.54,85.34c.64-1.27.6-1.29.72-1.3a8.57,8.57,0,0,1,1.81,1.26,4.54,4.54,0,0,1-.75,1.59c0,.1-.11.12-.19.07-.49-.35-1-.74-1.66-1.16A8.5,8.5,0,0,1,84.86,87c0,.1-.12.13-.19.07-.55-.41-1.13-.8-1.73-1.19,0,0,0-.06,0-.13.6-1.16.69-1.56.85-1.59a4.14,4.14,0,0,1,.83.49c.48.34.77.58.92.71m16.68-3.41c6.62-2.41,8-2.93,8-2.93s0,.09,0,.18a1.34,1.34,0,0,1-.29.52c-2.29.83-5,1.87-8.08,3.09.09-.25.19-.54.34-.86M34.84,106.27c6.36-2.32,8-2.93,8-2.93s0,.09,0,.18a1.45,1.45,0,0,1-.3.52c-2.29.85-5,1.87-8.08,3.09a6.3,6.3,0,0,1,.34-.86m73.48-23.75c2.53-.92,5.62-1.87,8.34-2.86l.17-.06s0,.08,0,.17a1.49,1.49,0,0,1-.29.52c-2.29.85-5.47,1.88-8.56,3.09.09-.25.2-.53.34-.86M44.81,87.87C49.84,86,63.3,81,63.43,81s0,.09,0,.16a1.59,1.59,0,0,1-.29.54c-2.29.83-15.57,5.78-18.66,7a7.44,7.44,0,0,1,.35-.86m-33.15-.11c4-1.44,18.5-6.84,18.62-6.84s0,.09,0,.16a1.68,1.68,0,0,1-.29.52c-2.3.85-15.56,5.79-18.65,7a5,5,0,0,1,.33-.85m76.76-5.24c6.11-2.23,8-2.92,8-2.92s0,.08,0,.17a1.74,1.74,0,0,1-.28.52q-3.45,1.27-8.08,3.09a3.63,3.63,0,0,1,.31-.86M20.6,82.14l.06-.08,0,0v.1c-.18.95-.48,1.43-.88,1.43s-.64-.36-.65-1.06a6.1,6.1,0,0,1,.77-2.73l.22-.37h0a14.62,14.62,0,0,0-.64,2.48c0,.55.16.82.46.82s.39-.22.61-.62M46.88,95.06l.06-.08,0,0v.1c-.17,1-.47,1.43-.87,1.43s-.64-.36-.66-1.06a6.12,6.12,0,0,1,.78-2.73l.22-.37h0a14.55,14.55,0,0,0-.63,2.48c0,.55.16.8.46.8s.38-.2.6-.6m27.06-5.53.06-.07h0v.11c-.18,1-.47,1.41-.87,1.41s-.64-.34-.64-1.06a6.1,6.1,0,0,1,.77-2.73l.22-.37h0a15.16,15.16,0,0,0-.64,2.48c0,.55.16.81.46.81s.37-.21.59-.6m42.88-2.27.06-.08h0v.11c-.18.95-.48,1.42-.88,1.42s-.64-.35-.65-1a6.1,6.1,0,0,1,.77-2.73c.13-.23.21-.36.22-.37h0a13.62,13.62,0,0,0-.64,2.48c0,.55.16.8.46.8s.39-.19.61-.59M10,80.84c1,0,1.47,1.41,1.63,2.38a.94.94,0,0,1,0,.12h.05a1.2,1.2,0,0,1,0-.14c.06-.43.22-1.06.44-1.94.26-.61.52-.92.82-.92s.67.5.67.73a.75.75,0,0,1-.08.32c-.06.2-.13.29-.19.27s-.1-.06-.22-.24-.22-.25-.34-.25c-.63,0-.73,3.43-1.3,3.43,0,0-.07-.07-.07-.21a3.55,3.55,0,0,0-.37-1.29c-.24-.62-.42-.95-.54-.95l-.13.06s-.07.07-.18.06-.71-.43-.71-.64a1.73,1.73,0,0,1,.24-.45c.12-.22.21-.34.24-.34M32.51,83c1,0,1.47,1.43,1.63,2.38a.48.48,0,0,1,0,.12h0a.59.59,0,0,1,0-.12c.06-.43.22-1.07.44-2,.24-.61.52-.92.82-.92a.63.63,0,0,1,.46.3.67.67,0,0,1,.13.77c-.22.71-.4-.19-.77-.22-.64,0-.74,3.43-1.29,3.43,0,0-.06-.08-.08-.21a3.55,3.55,0,0,0-.37-1.29c-.23-.62-.41-1-.53-1l-.14.06s-.07.07-.17.06S32,84,32,83.8a2.16,2.16,0,0,1,.23-.45c.13-.23.22-.37.25-.37M69.84,103.6c1,0,1.48,1.41,1.64,2.37a1.09,1.09,0,0,1,0,.12h0l0-.13c.06-.43.22-1.07.44-1.95.24-.61.52-.92.82-.92s.65.51.65.74a.75.75,0,0,1-.07.33c-.12.39-.24.33-.43,0s-.22-.25-.34-.25c-.64,0-.73,3.43-1.3,3.43,0,0-.07-.07-.07-.21a3.65,3.65,0,0,0-.37-1.29c-.24-.62-.42-.95-.54-.95l-.13.06c0,.05-.07.08-.18.06a1,1,0,0,1-.71-.64,3.05,3.05,0,0,1,.5-.81M55.69,92.93a3.87,3.87,0,0,1-1.35,1.55,10.55,10.55,0,0,1-3.42,1.66.85.85,0,0,1-.34.07h0c0-.16.44-.22,4-2.55a4.53,4.53,0,0,0,.91-.85,3.18,3.18,0,0,1,.44-.46h0a2.5,2.5,0,0,1-.24.58m2.16-3.78c0,.16-.12.62-.29.59s-.72-1.84-1.3,1.47a4.71,4.71,0,0,1-.33,1.19c-.15.28-.3.34-.3,0a4.29,4.29,0,0,0-.37-1.25c-.24-.62-.43-.94-.53-1l-.14.07s-.07.06-.19.06-.7-.41-.71-.64a3.74,3.74,0,0,1,.52-.83c1,0,1.47,1.4,1.63,2.36a.53.53,0,0,1,0,.14h0c.09-.06,0-.11.49-2.07.33-.75.79-1.27,1.3-.61a.77.77,0,0,1,.18.44M18.71,90.84c0,.52-.26,1.35-.8,1.35s-.68-.27-.85-.82c-.17.63-.52.94-1,.94a.68.68,0,0,1-.5-.27,1.36,1.36,0,0,1-.22-.83c0-.85.07-.86-.12-.92s-.12-.11-.14-.22a1,1,0,0,1,.21-.52c.14-.15.22-.23.28-.23s.15.18.14.52c0,.18,0,.63,0,.79,0,.36.18.83.47.83a.66.66,0,0,0,.51-.24c.49-.44.09-1.06,0-1.73,0,0,.05-.15.11-.3s.12-.19.13-.21c.18,0,.39,1.28.39,1.53,0,.57.22.85.65.85a.34.34,0,0,0,.36-.28,3.3,3.3,0,0,1-.57-1.49.86.86,0,0,1,.34-.68c.06,0,.08.41.17.65,0,0,.12.25.31.68a1.62,1.62,0,0,1,.19.6M47,84.53c-.06.16-.1.23-.16.23s-.08-.1,0-.31A3.59,3.59,0,0,0,45.25,81a.21.21,0,0,1,0-.23l.3-.53h.13a3.73,3.73,0,0,1,1.53,3.12A3,3,0,0,1,47,84.53m6.55-2.94a2.26,2.26,0,0,1-.42,1.15A3.76,3.76,0,0,1,52,83.89c-.16.13-.26.19-.31.19h0c.06-.17,1.35-1.39,1.35-1.93,0-.26-.11-.39-.36-.39s-.43.21-.5.21l-.06,0s0-1,.86-1c.36,0,.55.25.55.7m-25,6.55A2.62,2.62,0,0,1,28,89.55a4.51,4.51,0,0,1-1.33,1.39.88.88,0,0,1-.39.24v0c.09-.22,1.65-1.69,1.65-2.34,0-.31-.14-.48-.44-.48a.75.75,0,0,0-.44.15c-.1.08-.15.11-.18.11l-.06,0s0-1.25,1.06-1.26c.44,0,.66.3.66.85M64.13,105.3a2.21,2.21,0,0,1-.8,1,3.93,3.93,0,0,1-1.46.77,1,1,0,0,1-.37.09v0c.1-.11,1.78-.93,2-1.45a.37.37,0,0,0-.22-.51.92.92,0,0,0-.57,0l0,0s0-.07.1-.19a.92.92,0,0,1,1.09-.55c.35.14.46.42.31.86M4.23,82.12a.88.88,0,0,1,.08-.88.63.63,0,0,1,.47-.19A3.22,3.22,0,0,1,7,82.79l0,.15a1.58,1.58,0,0,1-.21.74c-.13.27-.25.4-.38.4A8,8,0,0,1,5.33,84a7.62,7.62,0,0,1-2.94,2.32,17.36,17.36,0,0,1-2.08.77h0C.37,86.75,3.67,85.19,5,84c-.68-.14-1-.42-1-.85a2.52,2.52,0,0,1,.28-1m1.07,1c.09-.33,0-.85-.32-.88a.66.66,0,0,0-.36.22c-.16.14-.22.24-.22.3s.29.3.9.36m1.31,0a1.76,1.76,0,0,0-.88-.82,2.86,2.86,0,0,1-.12.89c.63.1,1.09.13,1,.13s0-.1,0-.2m77.28-2c-.6-.31-.92-.65-.92-1a1.55,1.55,0,0,1,.6-1.16c.4-.34.71-.48,1-.39s.32.33.32.71a3.58,3.58,0,0,1-.22,1.18,1.88,1.88,0,0,1,.58.44,1.76,1.76,0,0,1-.42.85,1.82,1.82,0,0,0-.56-.46,5.23,5.23,0,0,1-1.32,1.29,10.84,10.84,0,0,1-3.42,1.66,1.13,1.13,0,0,1-.32.09h0c.11-.31,3.52-1.86,4.75-3.21m.39-.86c.1-.33.09-.89-.25-.89-.14,0-.49.16-.49.29s.25.36.74.6"></path><path class="cls-1" d="M62.66,18.56l0,0,0,.05-.07,0ZM60.38,9.08ZM58.87,7.45V7.6h0ZM55,18.59l0-.05,0,0Zm16.42.16a13.78,13.78,0,0,0-2.16-2.41s.54-.13.69.06a5,5,0,0,0-2.63-1.6,5.93,5.93,0,0,1,1.27-.33,15.1,15.1,0,0,0-4.12-.9s.29-.42.46-.49a7.29,7.29,0,0,0-2-.3l-.14-.06a13.12,13.12,0,0,1,3.54.12,2,2,0,0,0-.41-.48,6.94,6.94,0,0,1,2.55.57s-.15-.4-.31-.46c0,0,.36-.09,2.76.93a.24.24,0,0,0-.12-.28s.54-.27,2.57.33c0,0-.13-.55-1.82-1.49a1.26,1.26,0,0,1,.78-.25,14.31,14.31,0,0,0-3.37-1s.48-.4.72-.33a5.21,5.21,0,0,0-3.18-.06,3.1,3.1,0,0,1,.71-.85,10.83,10.83,0,0,0-3.83,1.16,2.24,2.24,0,0,1,.1-.65,12.06,12.06,0,0,0-2.05.87,4.28,4.28,0,0,1,1.44-.77,2.69,2.69,0,0,0-.66,0,15.82,15.82,0,0,1,2.83-1.17,3,3,0,0,0-.61-.22,11.12,11.12,0,0,1,2.31-.43A1.34,1.34,0,0,0,66.43,8s0,0,2.54-.16a.76.76,0,0,0-.27-.22A6.44,6.44,0,0,1,71,7s-.22-.51-2.15-.55A.9.9,0,0,1,69.38,6a12.42,12.42,0,0,0-3.14.39s.17-.5.41-.55a4.78,4.78,0,0,0-2.54,1A1.78,1.78,0,0,1,64.35,6a7.08,7.08,0,0,0-2.5,2.17,1.79,1.79,0,0,1-.22-.58A4.87,4.87,0,0,0,60.47,9,1.48,1.48,0,0,0,60,9.1a10.92,10.92,0,0,1,1.77-2,.93.93,0,0,0-.5-.1,16.56,16.56,0,0,1,1.69-1.17.86.86,0,0,0-.45,0s.15-.34,2.16-1.22a.83.83,0,0,0-.39,0s.22-.52,1.75-1.41c0,0-.49-.26-2.14.38a1,1,0,0,1,.29-.65,11,11,0,0,0-2.48,1.43s-.09-.41.09-.52c-.61.37-.79.46-1.68,1.85a2.19,2.19,0,0,1-.17-.9,5.53,5.53,0,0,0-1,2.57,5.37,5.37,0,0,0-1-2.57,2.43,2.43,0,0,1-.16.9c-.9-1.39-1.06-1.47-1.68-1.85.18.1.09.52.09.52a10.74,10.74,0,0,0-2.48-1.43.91.91,0,0,1,.26.65c-1.64-.64-2.13-.38-2.13-.38,1.53.9,1.75,1.41,1.75,1.41a.83.83,0,0,0-.39,0c2,.88,2.16,1.22,2.16,1.22a.86.86,0,0,0-.45,0A16.56,16.56,0,0,1,56.58,7a.9.9,0,0,0-.5.1,10.1,10.1,0,0,1,1.78,2A1.62,1.62,0,0,0,57.37,9,5,5,0,0,0,56.2,7.61c0,.17-.23.58-.23.58A7,7,0,0,0,53.48,6a2.09,2.09,0,0,1,.24.82,4.78,4.78,0,0,0-2.54-1c.23,0,.41.55.41.55A12.49,12.49,0,0,0,48.44,6a.9.9,0,0,1,.54.51c-1.93,0-2.15.55-2.15.55a6.8,6.8,0,0,1,2.3.55.76.76,0,0,0-.27.22c2.51.12,2.54.16,2.54.16a1.34,1.34,0,0,0-.36.29,11.12,11.12,0,0,1,2.31.43,3,3,0,0,0-.61.22,15.82,15.82,0,0,1,2.83,1.17,2.8,2.8,0,0,0-.67,0,4.12,4.12,0,0,1,1.46.77A11.67,11.67,0,0,0,54.3,10a2.55,2.55,0,0,1,.1.65,10.83,10.83,0,0,0-3.83-1.16,3.54,3.54,0,0,1,.71.85,5.2,5.2,0,0,0-3.18.06c.24-.07.72.33.72.33a14.63,14.63,0,0,0-3.38,1,1.34,1.34,0,0,1,.79.25c-1.69.95-1.83,1.5-1.83,1.5,2-.59,2.57-.32,2.57-.32a.24.24,0,0,0-.11.28c2.4-1,2.77-.94,2.77-.94-.18.06-.32.46-.32.46a6.76,6.76,0,0,1,2.55-.56,2.14,2.14,0,0,0-.42.47A13.06,13.06,0,0,1,55,12.74l-.14.06a7.12,7.12,0,0,0-2,.29,2.33,2.33,0,0,1,.46.49,14.9,14.9,0,0,0-4.13.91,5.8,5.8,0,0,1,1.26.33,4.92,4.92,0,0,0-2.63,1.6c.15-.18.7-.05.7-.05a13.57,13.57,0,0,0-2.17,2.41,1.39,1.39,0,0,1,.91-.15c-1,1.71-.85,2.35-.85,2.35,1.29-1.52,2-1.68,2-1.68a.55.55,0,0,0,.08.42c1.32-2.07,1.74-2.22,1.74-2.22s0,.49,0,.49a12.55,12.55,0,0,1,1.9-1.69A3.77,3.77,0,0,0,52,17a6.79,6.79,0,0,1,1.62-1.14,5.13,5.13,0,0,1,.53.22v0a7,7,0,0,0-3.19,2,3.16,3.16,0,0,1,1.14,0c-1.48,1.23-1.62,1.53-1.91,2.29.09-.23.68-.29.68-.29a12.58,12.58,0,0,0-1.2,3.05,1.4,1.4,0,0,1,.81-.45c-.37,1.95.12,2.35.12,2.35.73-1.86,1.23-2.17,1.23-2.17a.4.4,0,0,0,.21.33c.58-2.39.82-2.53.82-2.53,0,.17.25.43.25.43a13.67,13.67,0,0,1,1.09-2.11,1.56,1.56,0,0,0,0,.35,6.47,6.47,0,0,0-1.16,1.85,2.94,2.94,0,0,1,1-.43c-.73,1.58-.69,1.75-.64,2.48,0-.21.43-.38.43-.38a9.38,9.38,0,0,0,.3,2.85,1.08,1.08,0,0,1,.44-.63c.49,1.71,1.06,1.95,1.06,1.95-.17-1.77.18-2.27.18-2.27a.84.84,0,0,0,.26.29c-.5-2.14-.28-2.46-.28-2.46,0,.15.31.34.31.34a13.1,13.1,0,0,1,0-2.08,1.2,1.2,0,0,0,.44.34,9.75,9.75,0,0,1,.72-2.66,1.68,1.68,0,0,0,.23.57,3.34,3.34,0,0,1,.39-1.29l-.55,24.49S55.11,43.4,54.65,45h8.5c-.33-1.58-2.71-2.7-2.71-2.7l-.5-24.67a3.85,3.85,0,0,1,.47,1.47,1.59,1.59,0,0,0,.24-.57,9.62,9.62,0,0,1,.71,2.66,1.17,1.17,0,0,0,.44-.34,13.82,13.82,0,0,1,0,2.08s.28-.19.31-.34c0,0,.23.32-.28,2.46a.86.86,0,0,0,.25-.29A4.09,4.09,0,0,1,62.24,27s.57-.24,1.06-1.93a1.08,1.08,0,0,1,.44.62,9.38,9.38,0,0,0,.3-2.85s.44.18.43.39c.06-.73.09-.91-.63-2.48a2.94,2.94,0,0,1,1,.43,6.31,6.31,0,0,0-1.16-1.86A2.54,2.54,0,0,0,63.7,19a15.91,15.91,0,0,1,1.08,2.11s.31-.25.25-.43c0,0,.24.12.82,2.52a.42.42,0,0,0,.21-.33s.5.32,1.22,2.17c0,0,.49-.4.11-2.34a1.47,1.47,0,0,1,.82.44,12.41,12.41,0,0,0-1.2-3s.59.06.68.28c-.31-.76-.44-1.05-1.91-2.29a3.16,3.16,0,0,1,1.14,0,7.11,7.11,0,0,0-3.19-2h0a5.13,5.13,0,0,1,.53-.22A6.7,6.7,0,0,1,65.88,17a3.91,3.91,0,0,0-.1-.65A12.55,12.55,0,0,1,67.68,18s.1-.36,0-.49.42.15,1.74,2.21a.49.49,0,0,0,.07-.41s.72.16,2,1.67c0,0,.13-.64-.85-2.34-.1,0,.45-.15.8.1"></path><path class="cls-2" d="M68.88,67a14.31,14.31,0,0,1-9.52,3.57,14.68,14.68,0,0,1-7.78-2.26l-3.06-1.47a15.25,15.25,0,0,0,23.21-1.78L68.88,67ZM42.18,37.7a10.38,10.38,0,0,1,10-7.59l2.25-.56a11.18,11.18,0,0,0-13.39,10l1.13-1.83Zm20.16-8.35a10.45,10.45,0,0,1,11,5.72l1.47,1.65A11.22,11.22,0,0,0,60.16,29.1l2.18.25Zm15.88,13.8a10.37,10.37,0,0,1,.24,11.61L77.72,57a11.17,11.17,0,0,0-.32-16l.82,2.17ZM40.83,58.8a10.33,10.33,0,0,1-2.28-11.13l.33-2.35A11.16,11.16,0,0,0,42,60.81l-1.18-2Z"></path><path class="cls-1" d="M60.41,29.12a1.76,1.76,0,0,1,.33,0,1.69,1.69,0,0,0-.33,0m5-1.38a11.2,11.2,0,0,0-5.34,1.35c.38,0,.46,0,0,0a11.21,11.21,0,0,1,14.63,7.62l0,0a19.9,19.9,0,0,1,1.89,2.8A11.18,11.18,0,0,0,65.43,27.74m-3.09,1.61a1.48,1.48,0,0,1-.19,0,20.28,20.28,0,0,1,11.21,5.81l0-.06a10.45,10.45,0,0,0-11-5.72"></path><path class="cls-1" d="M77.4,41V41h0V41Zm1.06,13.73a10.33,10.33,0,0,0-.24-11.61,20.47,20.47,0,0,1,.15,11.91C78.4,55,78.43,54.87,78.46,54.76Zm-.24-11.61Z"></path><path class="cls-1" d="M77.39,41a11.14,11.14,0,0,1,.31,16l0-.06a19.69,19.69,0,0,1-2.1,3.89A11.13,11.13,0,0,0,77.39,41Z"></path><path class="cls-1" d="M71.72,65.07h0a15.25,15.25,0,0,1-23.2,1.78h0a18.94,18.94,0,0,1-2.8-2,14.86,14.86,0,0,0,26.21,0l-.22.18M59.36,70.58A14.41,14.41,0,0,0,68.88,67a20.4,20.4,0,0,1-17.3,1.3,14.68,14.68,0,0,0,7.78,2.26M38.17,48.81a10.35,10.35,0,0,0,2.64,10l0,.09a20,20,0,0,1-2.32-11.22,10.84,10.84,0,0,0-.37,1.14m2.91,10.45.35.63-.35-.63M37.4,48.6a11.16,11.16,0,0,1,1.48-3.27v0A20,20,0,0,1,40.31,41,11.12,11.12,0,0,0,42,60.82,11.13,11.13,0,0,1,37.4,48.6M52.19,30.1a10.39,10.39,0,0,0-10,7.59l-.17.22a20.29,20.29,0,0,1,10.38-7.83l0,0h-.16m5.39-1A11.22,11.22,0,0,0,41,39.54c.19-.32.15-.28,0,0a11.18,11.18,0,0,1,13.39-10h-.07a22.35,22.35,0,0,1,3.21-.44M41.17,39.28c0-.09.1-.18.15-.27,0,.09-.11.18-.15.27m0,0,0,0,0,0Z"></path><path class="cls-1" d="M75.52,64.48a1.38,1.38,0,1,1,1.14-1.35,1.26,1.26,0,0,1-1.14,1.35M64.29,60.71c2.26-1.06,4.6-7.34,7.5-6.58-2.39,1.38-5.06,7.76-7.5,6.58m-10.92,0c-2.43,1.18-5.1-5.2-7.49-6.58,2.91-.76,5.24,5.52,7.49,6.58M42.16,64.48A1.25,1.25,0,0,1,41,63.13a1.16,1.16,0,1,1,1.14,1.35m31.4-3.34a10.54,10.54,0,0,1-3.51-3.09,12.09,12.09,0,0,1,3.09-3.34c2.45-1.74-2.15-2.26-3.49-1.4s-1,.67-2.4,1.71a63.47,63.47,0,0,0-6.46-5.68A53.78,53.78,0,0,1,85.1,39.26c-9.76-1.41-19.58,3.82-26.26,8.63-6.68-4.81-16.51-10-26.27-8.63A53.94,53.94,0,0,1,56.89,49.34,64.4,64.4,0,0,0,50.42,55c-1.43-1-1-.8-2.41-1.71s-5.94-.34-3.49,1.4a11.72,11.72,0,0,1,3.09,3.34,10.45,10.45,0,0,1-3.5,3.09C39.46,59.41,38.75,65,41.29,66a4.08,4.08,0,0,0,4.26-1l4.32-4.43a15.14,15.14,0,0,0,1.93,1.2c3.77,1.06,2.61-1.63,2.32-2.16a26.81,26.81,0,0,0-1.75-2.23,48.42,48.42,0,0,1,6.44-6.51,47.9,47.9,0,0,1,6.45,6.51,24.55,24.55,0,0,0-1.76,2.23c-.28.53-1.44,3.2,2.32,2.16a15.14,15.14,0,0,0,1.93-1.2L72.07,65a4.08,4.08,0,0,0,4.26,1c2.6-1,1.89-6.62-2.77-4.88"></path><path class="cls-3" d="M4.89,114.18l-1.77,4.27H2.93l-1.77-4.16c.06,3.74-.28,3.92.71,4v.18H.24v-.18c.58-.06.64-.18.64-.56v-3.33c0-.41-.21-.46-.63-.49v-.19H2L3.45,117l1.41-3.31H6.59v.18c-.55,0-.61.18-.61.64,0,4-.22,3.56.61,3.74v.18H4.26v-.18c.66-.06.6-.22.63-.54v-3.55Zm2.76,3.6v-3.39a.4.4,0,0,0-.22-.41A1.27,1.27,0,0,0,7,113.9v-.19H9.46v.18c-.59,0-.67.21-.67.49v3.38c0,.23.06.36.21.42a1.61,1.61,0,0,0,.48.09v.18H7v-.18c.56,0,.64-.19.64-.49m3.71-4.07,2.45,3c0-1.89.14-2.5-.21-2.7l-.14-.06h0v0l-.3,0v-.18h1.51v.18c-.47.07-.55.18-.55.56v4.13h-.19l-3.15-3.8c.06,3.28-.27,3.38.67,3.5v.18H9.86v-.18c.57-.07.61-.2.61-.56v-3.33c-.5-.59-.53-.46-.59-.5v-.18Zm4.38,4.07v-3.39c0-.41-.27-.46-.65-.49v-.19h2.46v.18c-.59,0-.66.21-.66.49v3.38c0,.23.06.36.2.42a1.61,1.61,0,0,0,.48.09v.18H15.1v-.18c.55,0,.64-.19.64-.49m5.5-2.66H21c-.2-.68-.63-1.29-1.35-1.29a.7.7,0,0,0-.73.41h0a1.26,1.26,0,0,0,0,.27c0,.42.34.61.73.79l1,.52a1.42,1.42,0,0,1,.13,2.45,2.37,2.37,0,0,1-2,.13c-.25-.09-.4-.13-.49.12v0h-.21v-1.73h.21c.19.82.59,1.5,1.44,1.5a.77.77,0,0,0,.61-1.35h0c-.6-.46-2.16-.7-2.17-2s1.14-1.68,2.36-1.28c.25.1.41.13.5-.11l0,0h.21l0,1.54Zm2.43,2.51v-3.7a1.34,1.34,0,0,0-1.13.48h0a1.69,1.69,0,0,0-.23.7H22.1l0-1.41h4.22v1.41h-.21a1.19,1.19,0,0,0-1.35-1.19c0,3.46-.09,4,.14,4.22h0a1.21,1.21,0,0,0,.55.13v.18H23v-.18a1.09,1.09,0,0,0,.59-.16.91.91,0,0,0,.09-.49m4.93-3.39V116c.88,0,1.28-.15,1.28-1,0-.52-.15-.84-.45-.95v0c-.17-.07-.68-.13-.78,0a.49.49,0,0,0,0,.19m3.08,4v.18H30.24l-1.46-2.2h-.19c0,1.82-.19,1.92.62,2v.18H26.84v-.18c.53-.06.58-.18.6-.41v-3.33c0-.52-.13-.61-.6-.64v-.19h2.25c1.06,0,1.7.28,1.92.83a1.12,1.12,0,0,1-.24,1.19,2.35,2.35,0,0,1-.79.4l1.42,2a.3.3,0,0,0,.28.15m5.11-4.57v.18a.63.63,0,0,0-.48.26L35,116.34c0,.9-.07,1.62.12,1.79h0a1.22,1.22,0,0,0,.52.14v.18H33.18v-.18c.83-.08.62-.21.65-1.68l-1.28-2.33a.73.73,0,0,0-.56-.39v-.16h2.35v.18c-.14,0-.52,0-.57.16v0a12.3,12.3,0,0,0,1,2c.77-1.34,1.38-2,.86-2.2a2.29,2.29,0,0,0-.4-.06v-.16Zm4.85.13c-1,0-1.26,1.26-1.26,2.33s.21,2.19,1.25,2.19,1.25-1.19,1.25-2.22a2.56,2.56,0,0,0-.66-2.1.91.91,0,0,0-.58-.2m0-.24c3.24,0,3.33,5,0,5a2.49,2.49,0,1,1,0-5"></path><path class="cls-3" d="M48.59,113.71v1.41h-.16a2.17,2.17,0,0,0-.31-.79s-.23-.38-1.29-.38c-.41,0-.45.12-.45.32v1.64a1,1,0,0,0,.82-.31h0a1.66,1.66,0,0,0,.25-.73h.18v2.37h-.18c-.1-.84-.4-1.07-1.07-1.08.06,2-.27,2.08.77,2.14v.18H44.63v-.18c.31,0,.49-.09.55-.18a.58.58,0,0,0,.06-.33v-3.38c0-.23-.06-.36-.21-.42a1.23,1.23,0,0,0-.42-.07v-.21Zm6.23,0v1.41h-.17c-.15-.65-.35-.85-.32-.8a1.73,1.73,0,0,0-1.28-.37c-.39,0-.45.1-.45.32v1.64a1,1,0,0,0,.83-.32h0a1.55,1.55,0,0,0,.26-.72h.17v2.37h-.19c-.1-.84-.4-1.07-1.08-1.08.06,2-.27,2.08.77,2.14v.18H50.84v-.18c.29,0,.49-.09.54-.18s.06-.24.08-.33v-3.38c0-.4-.21-.48-.62-.49v-.21Zm3.25.13c-1.06,0-1.26,1.28-1.26,2.33s.22,2.19,1.24,2.19,1.25-1.19,1.25-2.22-.24-2.3-1.23-2.3m0-.24a2.51,2.51,0,1,1-2.53,2.5,2.41,2.41,0,0,1,.76-1.84,2.57,2.57,0,0,1,1.77-.66m4.87.64V116c.88,0,1.29-.15,1.29-1,0-.52-.15-.84-.46-.95v0c-.18-.07-.67-.13-.78,0a.46.46,0,0,0,0,.19m3.07,4v.18H64.57l-1.45-2.2h-.2c0,1.8-.2,1.92.63,2v.18H61.17v-.18c.6-.07.57-.2.61-.41,0-2,0,2.85,0-3.33,0-.52-.13-.61-.62-.64v-.19h2.25c1.06,0,1.7.28,1.92.83a1.12,1.12,0,0,1-.24,1.19,2.3,2.3,0,0,1-.78.4l1.41,2a.34.34,0,0,0,.29.15m4.5-4.57v1.41h-.18c-.17-.91-.5-1.17-1.66-1.17-.41,0-.46.12-.46.32v1.64c.79,0,1-.29,1.14-1.06h.18v2.38h-.18a1.16,1.16,0,0,0-.44-1l0,0h0a1.6,1.6,0,0,0-.65-.12v1.7c0,.35.24.38.58.38a2,2,0,0,0,1.25-.37,2.45,2.45,0,0,0,.61-.87h.2l-.28,1.45H66.46v-.18a.88.88,0,0,0,.55-.17.55.55,0,0,0,.07-.33v-3.39c0-.41-.22-.47-.61-.49v-.16Zm1.59,4.07v-3.39c0-.41-.24-.46-.65-.49v-.19h2.46v.18c-.59,0-.66.21-.66.49v3.38c0,.23.07.36.2.42a1.77,1.77,0,0,0,.48.09v.18H71.46v-.18c.57,0,.64-.19.64-.49m7.53-1.34v.18c-.52.06-.61.16-.61.64v.89a4.22,4.22,0,0,1-1.94.43,2.49,2.49,0,0,1-1.78-4.28,2.44,2.44,0,0,1,2.8-.46c.31.14.45.17.6-.15l0-.09h.19v1.64h-.15a3.39,3.39,0,0,0-.59-.94,1.64,1.64,0,0,0-1-.49c-1.07,0-1.3,1.18-1.3,2.25s.29,2.27,1.43,2.27c.76,0,.65-.46.67-.51,0-1,.21-1.17-.71-1.23v-.18l2.4,0Zm1.93-2.73,2.45,3c0-1.86.14-2.5-.21-2.7l-.14-.06h0v0l-.3,0v-.18h1.51v.18c-.47.07-.55.18-.55.56v4.13h-.19L81,114.78c.06,3.25-.26,3.38.67,3.5v.18H80.06v-.18c.55-.07.61-.2.61-.56v-3.33c-.5-.59-.53-.46-.59-.5v-.18Zm6.72,3.09h1.36l-.7-1.71-.66,1.71Zm3.51,1.48v.18H89.52v-.18c.14,0,.57,0,.57-.25a3.42,3.42,0,0,0-.33-1H88.19a5.4,5.4,0,0,0-.32.92c0,.28.49.27.58.28v.18H87v-.18a.59.59,0,0,0,.4-.22,47.55,47.55,0,0,0,1.85-4.43h.2l1.57,3.69a3.3,3.3,0,0,0,.49.9l0,0c.05,0,.05.06.21.06v0Zm4.62-4.57v1.41h-.16a2.17,2.17,0,0,0-.31-.79h0a1.7,1.7,0,0,0-1.27-.37c-.24,0-.39,0-.42.15a.65.65,0,0,0,0,.17v1.64a1,1,0,0,0,.83-.31h0a1.55,1.55,0,0,0,.24-.73h.18v2.37h-.19c-.09-.84-.41-1.07-1.07-1.08v1.63c0,.46.28.48.77.51v.18H92.43v-.18c.3,0,.48-.09.55-.18s.06-.24.08-.33v-3.38a.41.41,0,0,0-.21-.42,1.2,1.2,0,0,0-.4-.07v-.21Zm4.59,0v1.41h-.18c-.14-.67-.35-.85-.32-.8a1.7,1.7,0,0,0-1.28-.37c-.42,0-.45.12-.45.32v1.64a1,1,0,0,0,.84-.32h0a1.56,1.56,0,0,0,.25-.72H100v2.37h-.18c-.09-.84-.4-1.07-1.07-1.08v1.63c0,.46.27.48.77.51v.18H97v-.18c.29,0,.49-.09.55-.18a.7.7,0,0,0,.07-.33v-3.38c0-.4-.21-.48-.62-.49v-.21Zm1.81,3.09h1.37l-.71-1.71-.66,1.71Zm3.51,1.48v.18h-2.27v-.18h.22c.22,0,.33-.09.33-.24a3.22,3.22,0,0,0-.33-1H102.7a4.85,4.85,0,0,0-.32.92c0,.28.51.27.58.28v.18h-1.42v-.18a.59.59,0,0,0,.4-.22c.13-.19.19-.39,1.84-4.43H104c1.4,3.23,1.78,4.36,2.07,4.58h0a.3.3,0,0,0,.21.06Zm1.29-.5v-3.39c0-.41-.27-.46-.65-.49v-.19h2.45v.18c-.58,0-.67.19-.67.49v3.38c0,.23.06.36.21.42a1.59,1.59,0,0,0,.46.09v.18H107v-.18c.59,0,.65-.21.65-.49m4.11-3.54V116c.88,0,1.3-.15,1.3-1,0-.52-.15-.84-.45-.95v0c-.18-.07-.68-.13-.79,0a.38.38,0,0,0-.06.19m3.08,4v.18h-1.44l-1.46-2.2h-.19c0,1.79-.19,1.92.62,2v.18H110v-.18c.59-.07.56-.2.61-.41,0-2,0,2.85,0-3.33,0-.52-.13-.61-.62-.64v-.19h2.26c1,0,2,.25,2,1.25,0,.65-.42,1-1.06,1.15l-.06,0,1.43,2a.3.3,0,0,0,.28.15m3.74-3.16h-.19a2.41,2.41,0,0,0-.42-.82l-.07-.09a1.17,1.17,0,0,0-.86-.38.69.69,0,0,0-.73.41h0a.86.86,0,0,0,0,.27c0,.4.35.61.73.79l1,.52a1.42,1.42,0,0,1,.13,2.45,2.37,2.37,0,0,1-2,.13c-.27-.09-.4-.13-.47.12l0,0h-.21v-1.73h.21c.19.83.58,1.5,1.43,1.5a.77.77,0,0,0,.8-.43.73.73,0,0,0-.18-.92h0a6.28,6.28,0,0,0-1-.51,2,2,0,0,1-1.16-1.08,1.4,1.4,0,0,1,0-.37c0-1.27,1.16-1.68,2.36-1.28.25.09.41.15.5-.11l0,0h.21l0,1.54Z"></path><path class="cls-4" d="M65.91,40.2ZM52.38,31.46h0s0,0,0,0Zm3.16,0Z"></path><path class="cls-4" d="M60.18,30h0l.34.15h0l0,0,.18.1h0l.06.05.07,0v0h-.65l-.09-.19,0,0-.06-.15,0,2s.06.18,0,.14h0s.05.16,0,.11H60.1l0,.69h.25c0,.09.18.68.16.61.09.44.14.69.12.61l0,.06h0v.1l0,.05h-.54l0,.69h.65l.06.47L61,36c0,.07.09.73.07.65l.11.67h-.95V38h1c0,.24.08.55.06.48l.09,1.19,0,.32c0,.08,0,.27,0,.2H60.27v.68h1.23l.06.52c0,.21.09,1.71.09,1.62h0v0a4.39,4.39,0,0,1,1.07,1.16h1.78l1.25-.69H62.37c0-.56-.17-2.7-.17-2.66H66a18.41,18.41,0,0,1,.39,2.32c.22-.1.43-.22.65-.33-.18-1.26-.23-1.66-.22-1.59l-.12-.4h3.05l.22.69c.21-.09.41-.18.64-.26l-.12-.43h1.26c.7-.25,1.43-.47,2.14-.68h-.62c0-.07-.21-.44-.18-.36L73,39.56a2.13,2.13,0,0,0-.14-.31c-.08-.17-.23-.41-.17-.33a2.88,2.88,0,0,0-.29-.6c-.06-.11-.19-.35-.14-.28h1.27L74.64,40l0,0a6.77,6.77,0,0,1,.68-.16l-.07-.16h0L75,39.2h0l-.64-1.13h.52c.06.08.27.39.23.3h0c.87,1.36.84,1.39.81,1.34h0c.24-.06.49-.1.73-.15l-.23-.35h0c0-.08-.52-.85-.46-.76l-.68-1-.67-.86-1-1.17h0l-.24-.24h0l-.28-.3a10.56,10.56,0,0,1-.89-.83l-.55-.44h0l-1.55-1.15-1-.66-.48-.26c-.15-.07-1-.52-1-.47l-.31-.12c-.85-.39-.88-.39-.83-.37h0l-.46-.2h0c-.74-.28-1.72-.55-1.68-.55l-.18-.07c-1.33-.27-2.74-.52-2.63-.5h0l-1.32-.12,0,.95.06,0Zm1.24,4.45,0-.31,0-.1-.07-.33h0c-.06-.32-.14-.64-.11-.55l0-.15h2.12l.19.34c.05.07.23.36.18.27h0l.11.22c.17.33.34.68.31.61H61.42Zm.27,1.43c0-.16-.16-.83-.15-.76h2.78l.25.55h0v0l.06.22.06.16,0,0,.43,1.23H61.87c-.09-.77-.18-1.52-.18-1.44Zm4.56-2.11.22.33h0l.27.35h-2a7.8,7.8,0,0,0-.62-1.23h0l-.12-.2h1.53a9.75,9.75,0,0,1,.68.76ZM62.18,40.2l-.07-1C62.09,39,62,38,62,38h3.39l.13.51.08.16c.09.59.24.67.35,1.49H62.18Zm3.71-2.84-.22-.7-.06-.16h0l-.12-.34v0a9.14,9.14,0,0,0-.37-1h2.13c1,1.73,1.27,2.25,1.23,2.16v0Zm5.19,0H69.22l-.36-.74c-.22-.42-.41-.78-.37-.69l-.43-.74h1.47l1.12,1.5h0c0,.05.32.49.43.67ZM66.64,40.2a16.22,16.22,0,0,0-.54-2.13h0v0h2.67c.27.61.61,1.47.59,1.43h0l.23.72Zm5.82-.11.06.12H70.33l-.26-.82h0c0-.12-.25-.71-.42-1v0h0c0-.06-.09-.22-.11-.27h2l.07.15h0l.17.28v0h0c.09.16.26.55.22.44,0,.08.31.6.24.45.14.34.31.8.28.71Zm-.25-4.91V35c.07.07.72.7.61.58a5.11,5.11,0,0,0,.46.49l.25.25c.24.27.77.89.67.76l.17.26h-.46L73.66,37v0l-.59-.84-.8-.91h0l0,0Zm-.66-.75,0,0,.06,0h-.1l-.08-.09c.09.05.18.09.09,0Zm.06,1.13h0l.55.66h0l.31.34s.09.18.08.13.47.62.41.54h0l.09.1H71.88c-.18-.32-.45-.69-.4-.62h0c-.09-.13-.61-.91-.55-.83-.11-.13-.61-.8-.55-.73h.86ZM71,33.93l-.13-.12.13.12ZM68.48,33h.33l.19.13v0h0c1,.83,1.68,1.41,1.56,1.3h-.73l-.07-.09h0l-.09-.1h0A13.5,13.5,0,0,0,68.48,33Zm-.67-.7h-.1l-.42-.29h0l0,0,.56.31Zm-.4.7h0s.18.16.13.13h0l1.17,1.1.08.12.1.09H67.59c-.48-.68-1.18-1.55-1.09-1.44h.91Zm-2.9-1.9h.08l.06,0v0l.64.34h0c.19.11.44.24.35.2l.49.31c.24.16.48.34.39.29h-.69l-.17-.16h0l-.32-.3L65,31.49a4,4,0,0,0-.48-.35Zm-1.18,0c.44.32.29.2,1,.74h0a3.26,3.26,0,0,1,.51.48H63.62l0,0,0,0-.29-.49-.06,0h0c-.24-.32-.53-.67-.47-.6h0l.63,0Zm-1.3-.7h0Zm-.29.7c.06,0,.13.12.17.15h0l.07.13.12.07c.21.27.61.79.55.7l.11.12h0l0,0H61s-.05-.16,0-.12h0l-.13-.43v0s0-.16,0-.12l0-.13h0v0l-.06-.06h0l-.12-.28Zm-1-.81h0s0,0,0,0Z"></path><path class="cls-4" d="M40.91,39.47h0S40.9,39.48,40.91,39.47Zm30.87-2.35ZM38.54,46.69Zm.19,6.55Zm2.72,5.49Z"></path><path class="cls-4" d="M44.92,60.65a9.25,9.25,0,0,0,.94-.69h-.18l-.1-.21-.11-.23-.08-.18v0c0-.08-.75-1.75-.7-1.63h0c0-.06-.08-.23-.11-.29h0V57.3h2.29c.1.36.25.84.22.75l0,.16h0c0,.07.14.39.11.31v0a3.78,3.78,0,0,0,.37-.55,10.92,10.92,0,0,0-1-1.41H44.32l0,0h0l-.06-.14c0-.06,0-.15,0-.17-.11-.27-.21-.57-.18-.48,0-.09-.14-.59-.12-.52L43.65,54h.19c-.1-.28,0-.51.33-.69h-.64l-.16-1.15c0-.12-.15-1.58-.15-1.47h2.61V51c.12,1.42.12,1.5.18,1.93a5.39,5.39,0,0,1,.7,0c0-.08-.05-.61-.05-.54l0-.17c0-.48,0-.93,0-.85l0-.74H50l.1,2.4,0,.24H48l1,.68H50.2c0,.12.12,1,.1.94l0,0,.1.08s.18-.2.52-.52c0-.08-.06-.61,0-.52h.6c.21-.21.46-.43.73-.69H50.84c0-.07-.06-.4-.05-.31-.06-1.47-.1-2.33-.1-2.31H55v.25c.37-.31.76-.63,1.16-.94h-.48V48.44c-.22-.17-.46-.31-.68-.48v2H50.67l0-2.41h3.66c-.36-.24-.72-.46-1.07-.68H50.73c0-.27.08-1.22.08-1.14l0-.3-.67-.37c-.09.86-.13,1.84-.13,1.79H46.62l.09-.59c.09-.94.13-1.29.12-1.2l0-.17h0l.1-.69H48.5c-.69-.35-1.38-.67-2.06-1l0,.28H43.93c0-.09.15-.52.12-.44v0c0-.1.15-.52.12-.44l.07-.2v-.07c-.22-.09-.44-.18-.67-.25,0,.07,0,.25,0,.16l-.06.13v0l-.11.31-.08.36h0c0,.08-.12.4-.11.31v.12h-1.7c0-.09.14-.32.11-.24h0c0-.07.4-1.2.37-1.13s.13-.43.12-.36.12-.26.07-.19h0l-.65-.23-.18.52-.13.32c-.17.52-.31,1-.31,1h0l-.09.3h-.87l.09-.24h0l.11-.35h0l.1-.3h0c.28-.69.31-.88.3-.81a2.32,2.32,0,0,0,.19-.44v0h0l.09-.17v0h0l-.67-.21c-.37.82-.4,1-.39.93A9.15,9.15,0,0,0,39.36,43l-.06.15v0l-.17.52h0c0,.13-.44,1.81-.43,1.69-.27,1.75-.34,2.67-.34,2.64s0,1.29,0,1.22l.34,0-.34,0a13,13,0,0,0,.15,2.25l.06.56h0l.06.3v.21c.14.84.21,1.05.2,1l.31,1.2.12.37.06.17h0l.1.31h0c0,.09.56,1.67.46,1.33l.24.5v0l.38.75.05.18c.07.14.59,1,.55.94h0c1.36,2.23-.45-.7.64,1-.06-.08.13.19.18.28a3.67,3.67,0,0,1,.83-.05l-.14-.17h.52l.18.26a4.68,4.68,0,0,1,.76.23L44.2,61l-.27-.41,1,.09Zm1.64-13.09H50c0,.08,0,2.48,0,2.41H46.51C46.56,47.74,46.57,47.52,46.56,47.56Zm-3-2.46.18-.88h2.48c-.21,1.22-.36,2.7-.35,2.64H43.34C43.39,46.51,43.6,45,43.59,45.1Zm-.31,2.46h2.6c-.05,1.18-.06,2.42-.06,2.41H43.2C43.22,49.88,43.29,47.41,43.28,47.56Zm-.15,7.35.09.37c0,.09.35,1.22.34,1.13v.15l0,0H42L41.81,56c-.2-.61-.23-.74-.2-.67l-.12-.26v-.17h0c0-.09-.26-1.06-.25-1H43a3.84,3.84,0,0,1,.06.43c0,.09.12.6.11.52Zm-.28-1.63H41.08l-.18-1.16c-.09-1-.12-1.51-.12-1.41v-.06h1.78c.21,2,.27,2.51.25,2.44l.05.19ZM41,45.75c.06-.24.35-1.57.33-1.48v0H43L42.9,45h0l0,.37v0c-.2,1.26-.21,1.59-.21,1.54H40.86C40.94,46.23,41,45.66,41,45.75Zm-.26,2.44,0-.18c0-.08,0-.39,0-.43h1.79l0,.35c0,.23,0,2.13,0,2H40.71c0-.13,0-2,0-1.79Zm-1.25-2.93h0c.16-.7.25-1.08.24-1v0h.89a11.91,11.91,0,0,0-.29,1.41c0,.16-.17,1.17-.15,1.07h0s0,.13,0,.16h-1c.07-.44,0-.34.28-1.63Zm-.42,3.25h0c0-.16.08-1,.08-.95h1C40,48.38,40,50.09,40,50h-1V48.51Zm.15,3.4-.12-1.26h.95c.06,1,.32,2.69.32,2.64h-.91C39.44,53.21,39.21,51.82,39.22,51.91Zm1.25,4.71a3.9,3.9,0,0,1-.31-.85h0c0-.13-.4-1.25-.37-1.17,0-.09-.11-.42-.09-.33h0s-.06-.21-.09-.28h.9c.15.65.39,1.54.38,1.5h0l.37,1.16ZM42.18,60a3.71,3.71,0,0,1-.23-.33c-.25-.44-.47-.85-.5-.89h0c-.05-.08-.22-.41-.18-.32h0l-.06-.09,0-.16-.43-.82h.77c0,.09.23.52.18.43h0a2.4,2.4,0,0,0,.14.33c.1.21.26.57.23.49l0,0c.19.4.43.86.37.75h0c0,.08.3.52.33.6Zm1.38,0h0l-.24-.45h0l-.07-.15h0l0,0c-.24-.4-.64-1.23-.61-1.18a3.06,3.06,0,0,0-.19-.45c-.12-.24-.16-.42-.13-.33h1.54c0,.13.43,1.16.39,1.07h0c.19.49.47,1.16.46,1.11l.2.45-1.33,0Z"></path><path class="cls-4" d="M41.63,39.68a18.59,18.59,0,0,1,1-1.64h.5c0,.09-.34.66-.29.58-.64,1.12-.45.79-.67,1.19l.69.18h0l.33-.58.09-.16h0c.48-.82.43-.75.68-1.19h1.28a18.18,18.18,0,0,0-1,2.17h-.52c.72.2,1.42.43,2.14.68H47s-.09.34-.11.37c.21.07.44.16.64.25l.18-.62h3.06a4.63,4.63,0,0,0-.25,1.6c0,.11-.09.42-.08.31v0c.23.1.44.21.66.33a8.65,8.65,0,0,0,.15-1v0c.1-.61,0-.33.22-1.2h3.82l-.18,2.66H51.86c.43.22.83.44,1.25.68h1.78a4.76,4.76,0,0,1,.91-1c.07-1.19.17-2.38.17-2.35h1.34l0-.68H56L56.17,39l.09-.92h1.12l0-.69h-1c.23-1.39.35-2.28.32-2.18h.76v-.68h-.63v-.17h0l0,0,.11-.62.15-.55v0l0,0h.35l0-.68h-.21l0-.12h0l.12-.37.06-.16.06-2.65-.6,0-.35,0-1.24.18-.35.07-1.58.3-1.32.43c-.09,0-.61.24-.52.19h0l-.48.2h0l-.7.27s-.19.14-.15.1a2.24,2.24,0,0,0-.59.27h0l-1.13.58-1.06.66c-.43.35-1.61,1.19-1.57,1.16l-.3.24c-2,1.83-2.18,2.14-2.14,2.09h0v0l-.22.24-.23.28h0l-.25.28a2.68,2.68,0,0,1-.29.37v0h0a2,2,0,0,0-.22.31h0c-.24.34-.57.8-.51.73h0c-.39.64-.66,1.06-.64,1h0l-.19.28,0,.05a7,7,0,0,1,.79.15Zm1.69-.46Zm4.26-.12a9.65,9.65,0,0,0-.37,1.1H45c.11-.27.26-.64.23-.55v0l.13-.27h0l.1-.17.23-.46,0-.14.06-.09h0a2,2,0,0,0,.17-.3h0s.06-.13.09-.16H48l-.2.58a3,3,0,0,1-.2.49Zm2.35-3.31h0c0-.09.43-.7.39-.63h2.12l-.07.16v0c0,.07-.17.34-.14.25l0,.15-.09.21h0l-.25.68-.21.68H49.08c.36-.66.92-1.66.85-1.52Zm1.78-2.47h0l0,0,0-.07s.16-.12.12-.07l.09-.11h1.5l-.31.61,0,0c-.22.44-.41.83-.38.78l0,0h-2l.93-1.19Zm-2.55,2.39,0,.12-.08.09c-.38.76-.74,1.45-.72,1.44H46.47l.33-.51h0l.25-.39h0l1-1.26h1.47a5.47,5.47,0,0,0-.31.52ZM51,39.9c0,.07-.1.36-.08.27H48L48.34,39l.15-.31h0l.06-.15h0l.15-.32,0,0a.84.84,0,0,1,.06-.17h2.67c-.34,1.22-.49,1.89-.49,1.86Zm4.38.3H51.62c.11-.49.2-.92.2-.91l.14-.43c.12-.52.23-.86.23-.85h3.4c-.05.18-.23,2.07-.24,2.19Zm.52-4.44-.07.53h0c0,.42-.12.88-.12.83v0l0,.2H52.38L52.5,37c0-.06.06-.19.07-.23h0c.17-.41.36-1,.37-1l0,0,.1-.27h0l.09-.21.05-.06v0H56l-.1.6Zm.4-2.22c-.06.31-.1.6-.09.52s-.07.17-.06.12l0,.31H53.51l.41-.81.36-.63h2.11Zm.34-3.12h0l.08,0,.06,0v0h0a4.84,4.84,0,0,0,.69-.34h0l0,.05a2,2,0,0,0-.07.19l0,0c0,.07-.14.28-.09.19h-.66l0,0Zm-1.19,0,.09,0v0h-.09Zm-.2,1.31,0-.09.28-.27.06-.1h0l0,0h0l0,0,.12-.08H57c0,.05-.09.24-.08.19l0,.18v0h0l-.12.34-.11.36h0s0,.16,0,.12H54.74l.06-.09h0l0-.05c.41-.55.38-.49.35-.46Zm-1.77-.1.15-.12.16-.08.1-.13.3-.15.05,0h.64l-.17.19-.13.17h0l0,0h0l-.11.12v.08h0l-.06,0c0,.08-.31.5-.34.55H52.69l.05-.07.71-.61Zm-2.09.41.41-.24,0,0,0,0,.25-.15.11,0v0l.74-.4H53c-.68.52-.81.67-.8.65l-.56.57H51a3.68,3.68,0,0,1,.36-.3Zm-1.13,0-.09.1-.24.14,0,0,0,0h-.13l.52-.29ZM50,33.17h0l.17-.12H51l-.61.78-.07.12-.1.09-.3.45H48.59a3,3,0,0,1,.3-.31c.48-.42,1.11-1,1.08-1ZM47.55,34c.14-.11,1.24-1,1.16-.92l0,0h.31a15.68,15.68,0,0,0-1.35,1.44H47c.35-.28.67-.57.58-.49Zm-.95-.09,0,0c.19-.18.06-.08,0,0Zm-.61.59H45.9c1.25-1.07,0,.12.09,0Zm.29.69h.86c-.06.09-.52.66-.46.59s-.34.48-.29.4a2.61,2.61,0,0,1-.17.3l-.08.12h0a5,5,0,0,0-.44.7l0,.05H44.49l.51-.63c.1-.15,1.41-1.7,1.28-1.53Zm-1.34.16.15-.09.09-.12v0h.15l-.85,1c-.06.09-.34.46-.28.39-.14.19-.57.83-.52.74l0,.06h-.46l1.77-2Z"></path><path class="cls-4" d="M48.89,34.18s0,0,0,0Zm.24-.22ZM71.45,45.3ZM46.22,64.48h0S46.22,64.46,46.22,64.48Z"></path><path class="cls-4" d="M79.07,47.43c-.18-1.37-.26-1.8-.24-1.78l-.1-.52c0-.14-.23-.92-.21-.84h0l-.06-.21h0l-.09-.3h0c-.31-1-.4-1.25-.37-1.17v0h0c0-.12-.2-.56-.17-.47L77.37,41l-.66.21.07.17h0v0c.39.93.25.62.51,1.25h0a7.12,7.12,0,0,1,.29.89h-.86c0-.09-.1-.38-.07-.29h0c-.05-.17-.39-1.24-.36-1.15-.07-.19-.22-.61-.25-.67h0l-.66.23.06.16h0l.11.33a5.86,5.86,0,0,1,.38,1.16h0l.09.23H74.33l-.19-.8L74,42.44v0h0l0-.12s0,0,0-.12c-.22.09-.45.18-.67.25v0c0,.09.25.74.22.67,0,.15.14.53.12.44H71.17l0-.22c-.64.28-1.29.58-1.94.91h1.39c.08.54.17,1,.15,1,.12,1,.18,1.56.19,1.63H67.48c-.07-1.1-.07-1.26-.13-1.72l-.67.36.09,1.35H64.36c-.35.22-.71.44-1.06.68h3.52c0,.15,0,2.53,0,2.41H62.55v-1.9l-.68.47V50h-.31l1,.81v-.13h4.27c-.14,2.78-.1,1.65-.14,2.64H65.45l.74.69h.46l-.06.37.63.62c0-.13.07-.47.06-.4l.07-.61h1.34l1-.68H67.39c.06-.51.15-2,.15-2v-.64H71c0,.09,0,1.2,0,1.13s-.09.7-.07.62v.23c0,.09-.05.31-.05.32a5.43,5.43,0,0,1,.69,0l0-.19.14-2H74.3c-.27,2.55-.19,1.9-.22,2.1h0c0,.2-.11.64-.08.52h-.49c.29.18.42.41.31.69h.06l-.2,1,0,0v.16a3,3,0,0,1-.08.31,1.49,1.49,0,0,1-.09.34,3.9,3.9,0,0,0-.17.49c0,.27-.09.45-.08.38H71.09a10.92,10.92,0,0,0-1,1.41c.09.15.18.28.28.43v-.06l0,0c.06-.23,0-.13.13-.46h0l.18-.6H73l-.18.52c0,.09-.22.58-.19.49l-.31.75h0a1.34,1.34,0,0,1-.12.25l-.33.64h0v0h0c.35.26.66.49.94.68h.76l-.2.25,0,.08.25.13.61-.19.19-.28h.52l-.08.1,0,.07a3,3,0,0,1,.84,0c.14-.19.64-.93.55-.81a3.48,3.48,0,0,1,.27-.48h0c0-.07.83-1.54.74-1.39h0l.08-.17h0l.13-.3h0c.42-1,.58-1.43.59-1.49h0l.11-.33h0v-.06l.26-.83v0c.27-.95.36-1.38.36-1.36l0-.18c0-.08.15-.76.13-.67h0c0-.08.08-.47.08-.51h0l.06-.36c0-.07.12-1.33.1-1.24a16.17,16.17,0,0,0,0-3.18ZM67.54,50c0-2.27,0-2.45,0-2.41H71L71,50Zm10.15-5.75v-.37c.09.36.25.95.25.91.38,2,.38,2.09.37,2v.08h-1l0-.18h0c0-.08-.19-1.28-.17-1.21a1.81,1.81,0,0,1,0-.19l0,0L77,44.61c0-.09-.12-.48-.09-.39Zm-1,3.34c0,1.38.07,2.48.07,2.41H75c0-1.9,0-2.08,0-2l0-.37Zm-.29,5.72H74.69a1.66,1.66,0,0,0,0-.22h0v0a3,3,0,0,0,0-.32h0A18.73,18.73,0,0,0,75,50.65h1.8a18.77,18.77,0,0,1-.3,2.63Zm-.26-9.06c0,.18.09.45.07.36,0,.09.12.44.09.35a2.72,2.72,0,0,1,0,.32l.08.34.06.34v.18c0,.25,0,.1.11.77H74.88l-.18-1.23h0L74.6,45l-.14-.74h1.73Zm-4.65,2a12.78,12.78,0,0,0-.2-1.57l-.07-.4h2.5a19.61,19.61,0,0,1,.4,2.58h0v.06H71.6a6.27,6.27,0,0,0-.06-.68ZM71.7,50c0-2.07,0-2.26,0-2.21l0-.18h2.6c0,.07.07,2.48.07,2.4H71.7ZM74,56.41l0-.12h0c.18-.49.38-1.37.37-1.32v0h0c0-.08.2-1,.18-.94h1.74c0,.09-.49,1.74-.46,1.67-.13.47-.19.68-.18.59a2.92,2.92,0,0,1-.15.34v0H73.94a1,1,0,0,1,0-.23Zm.58,2.47h0l-.15.3a2,2,0,0,0-.16.27c-.23.46-.06.09-.27.5H72.62l.43-1c.18-.35.54-1.38.49-1.22l.12-.32,0-.11h1.56c0,.08-.53,1.16-.49,1.09l-.13.31-.08.15Zm1.53-.15a2.25,2.25,0,0,1-.18.31v0a3,3,0,0,1-.15.26h0c-.13.24-.3.46-.24.39s-.12.19-.16.25h-.59l.23-.43h0l.08-.16h0c.29-.57.49-1,.49-.94.38-.92.41-1,.4-1l.06-.15h.76l-.69,1.4Zm1.67-4.14h0l-.26.8h0l-.1.36c0,.1-.25.71-.22.61-.14.3-.08.19-.09.25h-.8c.1-.31.32-1,.35-1.16h0c0-.07.21-.75.18-.68.12-.51.19-.85.19-.82h.89c0,.09-.17.72-.14.63Zm.59-2.83c-.13.75-.16,1-.16,1h0l-.11.52h-.9A6.3,6.3,0,0,0,77.34,52h0l.06-.35,0-.69v0l0-.28h1c0,.18-.09,1.19-.09,1.11ZM78.46,50h-.95V48.6c0-.07-.08-1.11-.08-1h.95c0,.09.09,2.59.08,2.41ZM55.31,67.06h0S55.31,67.05,55.31,67.06Z"></path><path class="cls-4" d="M71.45,64.33Zm-2,.36Zm-5.61-.09ZM55.74,44.92h-.69v.43l.65.42s0-.75.05-.85Z"></path><path class="cls-4" d="M71.45,64.33h0L71,63.82l-.26.26c-.94.83-1.15,1-1.07,1h0l-.4.31-.07.08h-.42c.83-.85,1-1.09,1-1l.49-.58s.12-.14.08-.1h.63L70,62.89l-.11.15,0,0H68.34c0-.08.33-.63.3-.54h0l.09-.18h0a1.32,1.32,0,0,0,.12-.22l.13-.3-.5-.5-.11.19h0l-.62,1.22a1.16,1.16,0,0,0-.16.24l-.08.12H65.29l.17-.48h0l.14-.38a1.56,1.56,0,0,0,.12-.37,6,6,0,0,1-.79.17c-.09.26-.09.23-.36,1v0h0l0,.06H61.62l.25-1.62v-.27c0-.07.06-.39.08-.52h1.19a3.69,3.69,0,0,1,.19-.68H62c.09-.69.26-2.69.24-2.65H65.2c-.18-.23-.37-.46-.57-.68H62.32l0-1.1h0l.06-1.3-1-1H56.12c-.37.36-.74.73-1.1,1.1l.14,2.25H53c-.19.22-.39.44-.57.68H55.2c.12,1.45.25,2.67.25,2.64H54.28a4.3,4.3,0,0,1,.21.69h1l.09.63c0,.18.14,1.21.14,1.13v0l.1.62H53L52.54,62c-.5-.09-.69-.18-.78-.19h0l.32,1h0l.11.31H50L49.88,63h0l-.14-.21c-.05-.07-.72-1.38-.63-1.21v0l-.06-.1-.5.52c0,.07.24.52.21.43h0l.31.54,0,.13,0,0H47.58l0,0,0-.07-.75.78h.49c0,.05.12.15.07.11h0c.05,0,.13.14.09.09v0c.46.52.76.83.74.81.18.23.39.46.31.38l.23.19.09.09h-.42c-.07-.06-.43-.34-.49-.37h0L46.6,63.94l-.47.49c.7.72-.08,0,0,0l-.49.51,1,.8a2.11,2.11,0,0,1,.31.19c.06.05.21.15.26.2h0l1.16.74c.79.43.49.29,1.31.69h0l.28.16c.33.15.79.34.67.3h0l1.17.44.33.15,1,.31.85.21h0l.17,0v0l.21,0h0c1.32.24,1.73.33,1.69.31l.87.09,2.51.06,1.06-.06c.52,0,.9-.09.89-.09l.37-.06c1.23-.25,1.59-.3,1.55-.3l.17,0h0v0L64,69l1.37-.42.66-.27c.3-.12,1-.37.84-.31h0l.67-.3.3-.16.32-.15.33-.18.4-.21,1.68-1.1h0l.31-.19,1.07-.88-.48-.49c-.83.7,0,0,0,0Zm-7.17.92c0-.07.37-.74.34-.67h0c.07-.16.43-.92.4-.85H67.1c-.09.12-.31.47-.26.38,0,.09-.78,1-.72,1h0l-.26.28h0v0l0,0H64.2l0-.05h0s.06-.13,0-.1Zm0-1.52,0,.08h0a7.34,7.34,0,0,1-.82,1.59H61.2c.22-1.08.27-1.32.25-1.24,0-.08.08-.39.09-.44Zm-7.63-.68-.36-2.4h5c-.21,1.3-.27,2.05-.27,2l-.09.37Zm4.11,1.23v.09a8.23,8.23,0,0,0-.24,1.06H57.06L57,65.07l-.06-.38-.09-.3c-.09-.43-.13-.71-.12-.64h4.13l-.12.53Zm-4.78-7h5.69c-.09.68-.14,1.4-.14,1.38a3.06,3.06,0,0,1,0,.31c0,.08-.08.85-.06.76l0,.19H56.18l-.06-.49c-.06-1-.21-2.2-.19-2.15Zm0-.7-.1-2c0-.46-.06-.76-.06-.67H61.8l-.11,1.69v0l-.06.93ZM56,63.73c0,.08.15.63.12.54v.22l.08.25v0l.11.53h0l0,.14h-2.2a9.3,9.3,0,0,1-.51-.92l-.31-.67h0v0l0-.08Zm-3.47,0h0l.4.87h0l.09.21c.18.33.36.68.32.61H51.74l-.12-.14h0c-.08-.08-.24-.28-.18-.19L50.63,64h0l-.2-.27,2.1,0Zm-2.65,2.69-.16-.06-.35-.25h.23l.15.13v0c1.28,1,0,.1.13.16Zm-.05-1-.7-.67c-.36-.36-.75-.77-.64-.67l-.3-.36H49.6c0,.05,1.34,1.83,1.13,1.56h0l.09.12h-1Zm2.7,1.91-.42-.23L52,67l-.13-.06-.09-.09a5.59,5.59,0,0,1-1.08-.74h.77l.09.13c.24.24.58.55.49.46h0l.2.21.29.25.21.16h0l-.22,0Zm1.33,0-.1-.1-.15-.07-.53-.45h0l-.15-.13v0l-.11-.1h0c-.16-.18-.39-.4-.31-.33h0v0h1.35l.4.62v0c.21.25.39.47.31.39l.12.17.05,0Zm1.36.82C55.1,68.09,55,68,55,68h.25l.15.16.1.07,0,0-.21-.1-.1,0Zm.34-.82c-.64-.71-.74-.9-.7-.83l-.06,0v0l-.17-.28h0l0,0h1.93c.13.57.41,1.29.38,1.23Zm1.94,1.38-.37-.17h0l-.21-.14-.12,0h0l-.1-.09,0,0,0-.07-.11,0c-.06-.06-.2-.2-.14-.15h.83l0,.06h0v0l0,.06a3.85,3.85,0,0,0,.26.56Zm0-1.84h0l-.19-.59v0l-.06-.16H60.3c-.11.31,0,.16-.24.76h0c0,.08-.15.39-.18.45H57.62l-.15-.45ZM59.6,68h0l0,0h0v0l-.14.28h0v0h0l-.12.06v.12h0s-.15.18-.12.13h0l-.11.12v0l-.12.06-.1,0h-.16l0,0h-.06l-.05,0h0v0l-.12-.12h0l-.12-.15s-.07-.16-.06-.12l-.09,0h0c0-.08-.22-.43-.18-.34v0h0v0H59.6Zm1.44.14-.11,0,0,.07h0l-.1.09h0l-.14.06-.06.06v0l-.12,0h0l-.13.06,0,0h0s-.18.07-.13.06h0v0h0l0,0c.16-.31.31-.67.28-.59v0h.85l-.17.13Zm1,.1c.18-.19.33-.36.26-.25h.28c-.54.28-.43.22-.54.25ZM62.26,67c0,.06-.2.18-.26.24l0,.06H60.62l.12-.31h0v0l.11-.32v0l.1-.34v-.1l0-.12h1.91c0,.07-.25.41-.2.32-.48.61-.52.67-.46.61Zm2-.16-.61.47h-.78l0,0c.06-.07.3-.43.25-.35l0,0,.06,0c.06-.11.36-.58.31-.49l.09-.08,0-.13.06-.07h1.33c-1,.89-.86.75-.84.74Zm2.16-.43h0l-.75.49c-.15.09-.79.47-.66.38l0,0h-.2c.07-.08.87-.82.78-.74l.24-.23.25-.28h.76c-.06.09-.48.42-.39.36Zm.78.27h0c.07-.08.8-.67.72-.6h.23l-1,.6Zm.47-1.28h-1L67,65.1a6.55,6.55,0,0,0,.58-.82l.31-.44.06-.11h1.4l-.52.58c-1.08,1.13-1.14,1.15-1.1,1.12Zm3.16-.57.15-.12ZM78,56.15Z"></path><path class="cls-4" d="M67.8,60.56l-.11.09h.19M50,60.65l-.11-.08-.07.08m24.92-7.59ZM50.43,67.91Zm2.4.9Zm9.66-23.89h-.68l0,.95c.22-.15.45-.28.68-.43,0-.15,0-.48,0-.52Zm-4.11,2.64h.94c.32-.22.65-.46,1-.68H57.38c.33.24.66.46,1,.68Z"></path><path class="cls-4" d="M57.44,68.67Z"></path><path class="cls-1" d="M89.42,41.15s-.36-.06-.36-.3c0,0,0-.22.49-.12,0,0,.58.19.64.3s-.65-.3-.82-.2c0,0-.2.06,0,.32"></path><path class="cls-1" d="M89.39,40.86c.1-.07.53.09.79.2l.09,0,0-.09c-.06-.12-.55-.28-.65-.31s-.34-.07-.49,0a.13.13,0,0,0-.06.11c0,.26.37.33.38.33l.11,0c-.05-.05-.21-.18-.2-.27l.08-.08Zm-.54-3.47s-.35.07-.43-.13c0,0-.09-.21.42-.3a2.14,2.14,0,0,1,.7,0s-.73,0-.83.13c0,0-.18.14.14.27"></path><path class="cls-1" d="M88.72,37.14c.07-.11.54-.14.8-.12h.11c-.11,0,0-.17-.81-.11h0c-.23.05-.37.12-.43.23a.17.17,0,0,0,0,.12c.09.23.46.16.47.16l.11,0c-.12-.06-.27-.09-.28-.18l0-.07ZM93,36.9l-.37.1-3.43-2.58.36-.09"></path><path class="cls-1" d="M89.17,34.36l-.11,0,3.55,2.67.51-.15c-.17-.12.89.67-3.57-2.64l-.38.09ZM86.4,41.22a.48.48,0,0,1,.26.21s.09.1,0,.13-.19,0-.46,0a.42.42,0,0,0-.4.17s-.1.14.07.37a.92.92,0,0,0,.64.32A2.14,2.14,0,0,1,86,42s-.18-.21-.13-.28,0-.1.24-.07.93.14.75-.17a1.51,1.51,0,0,0-.25-.31l-.24.06Z"></path><path class="cls-1" d="M86.63,41.19a2.57,2.57,0,0,1,.25.3v.1l-.17.06h0c-.29.05-.64-.12-.79,0l-.05.06h0c-.09.16.43.6.61.71l0,0a1,1,0,0,1-.63-.32c-.16-.21-.07-.34-.07-.34h0c.16-.27.49-.12.86-.12h0l.06,0,0-.12h0c-.15-.2-.26-.22-.27-.22v.05l.22-.05Zm-.09,23.33s.56.18.38.43a1.08,1.08,0,0,1-1.41-.29c-.06-.06-.53-1.56,1.15-1.44a32.08,32.08,0,0,1,3.92,1.08c1.23.39,1.62.24,1.62.24l.46.47a5.62,5.62,0,0,1-2-.29,23.35,23.35,0,0,0-3.77-1c-1.25-.06-1,.85-1,.89l.6-.06Zm7.24-2.69c-.31-.19-.65-.43-.6-.4s-7-.87-7.06-1.11c0,0,.43.58,2.08.86s4.07.59,4.07.59l-.34.3,1.85-.24Zm1.28-7.08-.64-.34s-7.07-.25-7.13-.48c0,0,.48.54,2.16.67s4.11.22,4.11.22l-.31.33,1.81-.4Zm-.59-10.32-.61-.21s-6.09,1.1-6.18.91a2.74,2.74,0,0,0,2,.22c1.46-.19,3.55-.57,3.55-.57l-.21.38,1.49-.73ZM92.82,60.51s.13-.24.22-.25.12,0,.15,0,.09.23-.16.29l-.21-.08Zm-.13.12a3.4,3.4,0,0,0,.56.15c.25.1.24-.18.24-.18a1.07,1.07,0,0,0-.37-.59c-.36-.23-.58.26-.58.26s-.08,0-.08,0a17.67,17.67,0,0,1-.87-2.11l0,.09a3.45,3.45,0,0,0,.8,2.15l0,.09-.21.17.3.22.21-.21Z"></path><path class="cls-1" d="M93.84,46s0-.31.12-.35.12-.08.17,0,.19.19-.06.36Zm-.08.2c.08,0,.65-.09.65-.09a.19.19,0,0,0,.18-.29,1.18,1.18,0,0,0-.64-.46c-.48-.09-.49.52-.49.52s-.11,0-.11,0a19.43,19.43,0,0,1-1.82-1.82v.1a4,4,0,0,0,1.77,1.89l0,.09c0,.06-.14.25-.14.25l.4.1.15-.29Zm-7.53-21s-.06-.21,0-.25l.1-.06s.18.07.06.24l-.13.07Zm0,.15s.38-.24.38-.24a.12.12,0,0,0,0-.22.83.83,0,0,0-.53-.12c-.32.07-.17.46-.17.46s-.07,0-.07,0a11.13,11.13,0,0,1-1.65-.62l0,.06a2.62,2.62,0,0,0,1.63.68l0,0v.2l.28-.05,0-.22Zm-2,39.21.32.34.51-.34-.33-.36"></path><path class="cls-1" d="M84.46,63.94l.33.36.5-.34L85,63.59m1.3-3.66.31.36.52-.34-.33-.37"></path><path class="cls-1" d="M86.45,59.29l.31.36.52-.34L87,58.94M87.4,35l-.06.62h.47L87.9,35"></path><path class="cls-1" d="M87,34.43l-.06.63h.48l.09-.61m2.21,18,.45.17.29-.54L90,51.94m.57-8.77.41.22.37-.49L91,42.66m-2.09-4,.46.11.22-.58L89.08,38M85,28.26l0,.62.46-.09v-.61m-5-4.34,0,.63.46-.09v-.61m4.32,8.94,0,.61.46-.07,0-.63m3.74,24.86s-.35-.25-.22-.49c0,0,.12-.22.61.14,0,0,.52.5.53.63s-.55-.65-.78-.63c0,0-.27,0-.14.35M94,49.89s-.37-.17-.3-.44c0,0,.06-.25.59,0,0,0,.57.4.6.53s-.63-.55-.85-.47c0,0-.24,0,0,.35"></path><path class="cls-1" d="M94.1,49.57c.15,0,.56.26.8.47l.09.08L95,50c0-.15-.52-.49-.62-.57h0c-.09,0-.36-.19-.55-.1s-.21.36.21.59l.12.06s-.18-.26-.12-.37l.09,0Zm0,.28s-.34-.16-.27-.39l.06-.06c.06,0,.2,0,.48.11h0a3,3,0,0,1,.58.5L95,50c-.06-.06-.66-.57-.88-.49h0a.17.17,0,0,0-.15.09c0,.07,0,.19.06.32l0,0Zm-2-1.58s-.38-.16-.31-.41c0,0,0-.25.59,0,0,0,.6.36.64.49s-.67-.5-.87-.43c0,0-.27,0,0,.37"></path><path class="cls-1" d="M92.14,48c.13-.06.59.22.83.41l.09.08,0-.12c0-.16-.61-.49-.66-.52-.22-.1-.58-.19-.63,0s.32.46.34.46l.12.05c0-.06-.2-.27-.15-.36l.09,0Zm0,.28s-.36-.15-.3-.37l.06-.06c.06,0,.19,0,.47.07h0c.24.15.6.39.61.48L93,48.3c-.07,0-.68-.52-.9-.43h0A.18.18,0,0,0,92,48a.35.35,0,0,0,.08.33l.06-.06ZM89.57,43s-.42-.07-.4-.34c0,0,0-.25.58-.15a3,3,0,0,1,.72.34s-.75-.34-1-.22c0,0-.25.09,0,.37"></path><path class="cls-1" d="M89.54,42.71c.12-.09.62.08.9.22l.11,0-.06-.1a2.21,2.21,0,0,0-.76-.36h0c-.27,0-.46,0-.55.06a.19.19,0,0,0-.06.14c0,.29.42.37.45.38l.12,0s-.24-.23-.23-.32l.08-.08Zm0,.29s-.37-.07-.37-.29l0-.08c.06,0,.18-.09.49,0h0a2.25,2.25,0,0,1,.71.33l0-.06c-.08,0-.79-.36-1-.22h0a.18.18,0,0,0-.12.13.36.36,0,0,0,.15.3l0-.08Zm-.15-1.88s-.33-.06-.31-.26l0-.06s.16-.07.43,0h0c.23.07.58.2.61.28l0-.05c-.07,0-.68-.31-.85-.19h0s-.09,0-.11.1a.33.33,0,0,0,.14.27Zm-.58-3.78s-.33.08-.39-.1l0-.07c0-.06.12-.14.38-.2h0a2.49,2.49,0,0,1,.67,0l0-.06c-.08,0-.75,0-.86.15h0a.15.15,0,0,0-.06.14c0,.07.09.13.22.19v-.08Zm1.38-4.42s-.4.09-.49-.16c0,0-.1-.23.46-.35a3.14,3.14,0,0,1,.79,0s-.82,0-.94.15c0,0-.19.18.18.33"></path><path class="cls-1" d="M90.07,32.64c.09-.12.6-.15.91-.14h.12L91,32.43a2.27,2.27,0,0,0-.82,0c-.06,0-.4.08-.49.26a.2.2,0,0,0,0,.13c.1.27.52.18.53.18l.12,0c-.06,0-.3-.11-.31-.21l0-.07Zm.14.25s-.38.07-.45-.13v-.08c0-.06.14-.15.44-.21h0a2.29,2.29,0,0,1,.75,0l0-.07c-.09,0-.84,0-1,.16h0a.18.18,0,0,0-.06.17c0,.08.1.16.25.22v-.09Zm-8-.43s-.41,0-.48-.21c0,0-.07-.24.49-.3a2.91,2.91,0,0,1,.79.12s-.82-.12-1,0c0,0-.21.16.15.34"></path><path class="cls-1" d="M82.13,32.16c.09-.1.61-.07.92,0h.12L83.09,32a2.25,2.25,0,0,0-.81-.13c-.09,0-.41,0-.52.21s0,.13,0,.13c.07.28.49.24.52.24l.12,0c-.06,0-.28-.13-.3-.23l0-.08Zm.12.27s-.38,0-.44-.18l0-.07c0-.06.15-.14.45-.17h0a2.58,2.58,0,0,1,.75.11l0-.08c-.09,0-.83-.1-1,.06h0a.16.16,0,0,0-.07.15c0,.09.09.16.22.24l0-.06Zm-1.83-4s-.36.05-.42-.17c0,0-.07-.21.43-.26a2.17,2.17,0,0,1,.69.11s-.7-.11-.83,0-.18.12.13.28"></path><path class="cls-1" d="M80.31,28.17a1.48,1.48,0,0,1,.81,0h.1l-.07-.07a2.1,2.1,0,0,0-.7-.12s-.36,0-.45.18,0,.34.43.32h.11c-.06,0-.24-.11-.25-.21l0-.07Zm.09.23s-.32,0-.37-.14l0-.08a.56.56,0,0,1,.38-.15h0a2,2,0,0,1,.66.11l0-.06c-.08,0-.73-.11-.86.06h0a.12.12,0,0,0-.06.13c0,.07.07.15.19.21V28.4Zm-2.64-3.34s-.31.17-.45,0c0,0-.13-.16.32-.38a2.51,2.51,0,0,1,.68-.14s-.7.15-.76.33c0,0-.15.16.21.22"></path><path class="cls-1" d="M77.57,24.84c0-.12.47-.25.74-.3h.09l-.09-.05c-.12-.06-.61.11-.7.14h0c-.21.1-.32.2-.35.31a.16.16,0,0,0,0,.12c.15.21.48,0,.49,0l.09,0c-.06,0-.28,0-.31-.11l0-.1Zm.18.18s-.3.15-.41,0v-.07c0-.06.08-.15.32-.27h0a2.07,2.07,0,0,1,.65-.13v-.06c-.07,0-.71.15-.79.34h0a.12.12,0,0,0,0,.14.37.37,0,0,0,.25.14V25Zm-.06,2.39s-.32.16-.45,0c0,0-.13-.16.33-.39a2.56,2.56,0,0,1,.67-.13s-.7.15-.76.33c0,0-.14.17.21.22"></path><path class="cls-1" d="M77.51,27.2c0-.12.47-.25.74-.3l.1,0-.08,0c-.12-.06-.61.1-.7.13h0c-.21.11-.33.21-.36.32s0,.11,0,.11c.15.21.48.05.49.05l.1-.05h-.1a.32.32,0,0,1-.21-.09V27.2Zm.16.18s-.3.15-.4,0v-.05c0-.06.07-.17.31-.27h0a1.93,1.93,0,0,1,.65-.14v-.06c-.07,0-.71.15-.79.35v0a.14.14,0,0,0,0,.15c0,.06.12.1.27.13Zm-.52-5.12s-.31.16-.44,0c0,0-.14-.17.32-.39a2.27,2.27,0,0,1,.67-.13s-.7.14-.76.32c0,0-.13.18.21.23"></path><path class="cls-1" d="M77,22.05c0-.12.48-.25.75-.31l.1,0-.09,0a2,2,0,0,0-.7.13h0c-.21.1-.32.21-.35.31s0,.12,0,.12c.14.21.47.05.49.05l.1-.05h-.1a.32.32,0,0,1-.21-.09l0-.09Zm.17.18s-.3.13-.4,0l0-.07c0-.06.09-.15.31-.27h0a2.17,2.17,0,0,1,.66-.13v-.06c-.08,0-.72.15-.79.34v0c-.1.17,0,.26.24.29v-.06Zm-.32-4.09s-.35.05-.41-.21c0,0-.06-.23.43-.29a2.16,2.16,0,0,1,.68.12s-.71-.12-.83.06c0,0-.18.14.13.32"></path><path class="cls-1" d="M76.72,17.86c.09-.12.54-.09.8,0h.11l-.08-.09c-.1-.12-.75-.13-.71-.13-.24,0-.39.09-.45.21s.06.41.43.37l.11,0c-.05,0-.25-.13-.25-.24l0-.07Zm.09.25s-.33.05-.37-.18v-.07c0-.06.14-.13.39-.16h0a1.74,1.74,0,0,1,.65.1l0-.06c-.07,0-.72-.12-.86.06h0a.14.14,0,0,0-.06.14c0,.09.07.17.19.24v-.06ZM87.29,56.44S87,56.21,87.1,56c0,0,.12-.23.57.12,0,0,.47.47.47.61s-.5-.63-.73-.6c0,0-.23,0-.12.34m.23,9.34a.38.38,0,0,1-.25-.43s0-.29.49-.13c0,0,.49.31.52.46,0,0-.55-.46-.72-.33,0,0-.22.08,0,.43m1.72-3.34-.15-.29a.77.77,0,0,1-.93-.14.86.86,0,0,0,1.08.43m5.69-14-.43-.31a1.27,1.27,0,0,1-1.46.46,1.45,1.45,0,0,0,1.89-.15M92,57l-.34-.31a1.11,1.11,0,0,1-1.32.27A1.28,1.28,0,0,0,92,57m2.53-.12-.25-.28a.89.89,0,0,1-1.07.11,1,1,0,0,0,1.32.17M92.33,46.06l-.3-.32a1,1,0,0,1-1.26.11,1.18,1.18,0,0,0,1.56.21M86,31l-.57,0s-.06.77-1.12,1.13A1.84,1.84,0,0,0,86,31M76.13,16.72l-.32.2a1,1,0,0,1-.23,1,1.22,1.22,0,0,0,.55-1.24m-.73,2.79-.33.19a1,1,0,0,1-.29,1,1.26,1.26,0,0,0,.62-1.22M91.65,33.13h-.52s0,.7-1.06,1a1.71,1.71,0,0,0,1.58-1m.72,33.13L92.2,66s-.84.18-1.19-.15c0,0,.25.73,1.36.46m.76-2.58-.25-.26s-.77.37-1.2.14c0,0,.43.65,1.45.12m.49-4.18-.3-.13-.95-2.85.27.13m2.21-3.82-.34-.07-1.69-2.9.33.08M90.73,64.05l-.24-.11-.77-2.3.2.1m1.13,6.12-.28-.16-.7-3.06.27.16m4-21-.34,0-2.27-2.85.31,0"></path><path class="cls-1" d="M91.65,40.83,94,43.77l.44,0-2.37-2.94Zm2.7,2.87H94l-2.27-2.85,0,.07.31,0h0l2.3,2.83,0-.07ZM93,36.84l-.37.1,0,0-3.43-2.59v.11l.35-.09,0,0L93,36.93m-2.73-3.34-.36.15-3.7-2.19.34-.12"></path><path class="cls-1" d="M86.05,31.55l3.83,2.26.47-.19-3.84-2.23Zm4.17,2-.36.15h0L86.2,31.51v.1l.34-.12h0l3.71,2.16v-.11Zm-6.7-9.49-.22.15-2.78-.95.21-.13"></path><path class="cls-1" d="M80.43,23.25l2.88,1,.3-.2-2.88-1-.3.16Zm3.08.77-.22.15h0l-2.77-1v.06l.21-.12h0l2.79.93V24ZM73.26,23.4l1.95.18.11-.14-2-.17"></path><path class="cls-1" d="M73.38,23.31l1.89.16-.09.09-1.89-.18.09-.07Zm0,0h0l-.11.11,0,0,2,.2h0l.11-.14,0,0-2-.17Zm-.23.5,1.94.21.12-.14-2-.19"></path><path class="cls-1" d="M73.26,23.68l1.89.18-.08.09-1.88-.19.07-.08Zm0,0h0l-.12.12,0,0,2,.2h0l.12-.13,0,0-2-.19Zm9.37-1.43-.29.18-3.54-1.22.26-.16"></path><path class="cls-1" d="M78.67,21.19s3.92,1.33,3.68,1.26l.37-.24L79,21l-.37.21Zm3.92,1-.29.17h0l-3.54-1.21v.09l.27-.17h0l3.56,1.19v-.07ZM88.81,47h-.12l-.79-1L88,46"></path><path class="cls-1" d="M87.81,45.91l.87,1.1.22,0c-.08-.09-.89-1.15-.85-1.09h0l-.23,0Zm1,1h-.09l-.79-1,0,.08H88l0,0,.79,1,0-.06Z"></path><path class="cls-1" d="M88,46l-.1,0h0l.8,1h0l.11,0h0L88,46Zm.79,1h-.1l-.79-1,0,0H88l.79,1,0,0Z"></path><path class="cls-1" d="M88.84,47l-.79-1L88,46h0l0-.08h-.11L88,46l0,0H87.9l.79,1,.06-.06h0l0,.08h.11l0-.06v0Zm0,0h-.12V47h0l0-.06-.84-1.07,0,.06v0l0,.06H88L88,46h0L88,46s.89,1.13.83,1.07l0-.06,0,0,0-.06-.06,0Z"></path><path class="cls-1" d="M88,46l.82,1,0-.07h-.12l-.79-1,0,0,0,.06H88Zm0-.06h-.13l-.09,0L88.68,47h.26c-.26-.34-.9-1.16-.87-1.11h0l0,0Zm5.35-6.78-.27.07-2.66-2.69.26-.06"></path><path class="cls-1" d="M90.35,36.5l2.75,2.78.36-.11L90.7,36.42Zm3,2.58-.26.08h0l-2.66-2.69v.09l.25-.06h0l2.67,2.67v-.09ZM83.23,26.35h-.36l.36.63s0,.09-.12,0l-.67-.34s.52.73,1.19.49c0,0,.09,0,0-.24a1.59,1.59,0,0,0-.37-.55M94.1,58.76a.71.71,0,0,1-.27.15c-.21.06-.24-.17-.25-.19s.29,0,.26-.12,0-.05-.13-.21a7.23,7.23,0,0,0-.73-.57l0-.14a3.11,3.11,0,0,0,.86.08s.12,0,.06-.1l0-.09.27-.07a.81.81,0,0,1,.19.26s0,.17-.25.21a1.51,1.51,0,0,1-.69,0s-.1,0,0,0a6.26,6.26,0,0,1,.64.51s.16.22.06.25M91.72,39.88a.53.53,0,0,1,0,.3c-.08.21-.27.09-.3.09s.16-.25.06-.28,0-.06-.25,0c0,0-.57.14-.9.26l-.14-.06a3.66,3.66,0,0,0,.58-.64s.07-.09-.06-.11l-.06-.07.09-.27a.61.61,0,0,1,.32,0s.17.07,0,.32a1.53,1.53,0,0,1-.42.54s-.07.06,0,0a8.06,8.06,0,0,1,.79-.21s.31,0,.28.09"></path><path class="cls-1" d="M90.65,39.94h0V40l0,0c.19-.13.53-.62.47-.83a.21.21,0,0,0-.09-.1.73.73,0,0,0-.35,0l0,0-.11.31h0l.06.08h0l0,0v0h0a3.18,3.18,0,0,1-.57.63h0l0,0,.22.09h0A8.1,8.1,0,0,1,91.2,40c.16,0,.21,0,.21,0h0l0,0c0,.07-.11.23-.14.28h.11a.24.24,0,0,0,.33-.13.65.65,0,0,0,0-.33v0c0-.07-.2-.09-.3-.09s0,0-.82.19Zm1,0h0a.41.41,0,0,1-.05.27c0,.13-.15.09-.27.07l0,.06a.41.41,0,0,0,.09-.3l-.06-.06,0,0s-.06-.09-.29-.06c0,0-.58.14-.89.26h0l-.14-.06v.07a2.85,2.85,0,0,0,.58-.65h0a.17.17,0,0,0,0-.1.2.2,0,0,0-.11-.08l0,0-.06-.08,0,.05.09-.27,0,0a.56.56,0,0,1,.31,0l0,.06a.25.25,0,0,1,0,.2,1.38,1.38,0,0,1-.4.52l0,.09.09,0h0s.61-.19.79-.21h0a.37.37,0,0,1,.24.06h0v0Zm-4.12-6.61a.36.36,0,0,1,0,.25c0,.18-.21.12-.24.12s.09-.22,0-.24,0,0-.21,0a4.79,4.79,0,0,0-.68.36l-.14,0a2.77,2.77,0,0,0,.38-.63s0-.09-.06-.09L86.55,33l0-.23a.55.55,0,0,1,.28,0s.14,0,.06.27a1.18,1.18,0,0,1-.25.5s-.06.06,0,0a5.23,5.23,0,0,1,.61-.29s.27,0,.25.07"></path><path class="cls-1" d="M87.31,33.22c-.15,0-.59.29-.61.29h0v0h0c.13-.14.35-.6.25-.76s-.34,0-.39,0v0l0,.26,0,0,.06.06h.06v0h0a2,2,0,0,1-.38.61h0v0l.19,0h0c.24-.15.68-.35.68-.35s.16,0,.16,0h0s0,.14,0,.2l0,.06.06,0c.24,0,.26-.1.27-.15a.46.46,0,0,0,0-.26h0l0-.06a.86.86,0,0,0-.28,0Zm.22.08a.51.51,0,0,1,0,.23c0,.09-.06.1-.21.1l0,0s.08-.18,0-.26l-.06,0,0,0c-.07-.15-.83.28-.95.36h0l-.13,0v.06a2.53,2.53,0,0,0,.38-.63h0v-.09l-.09,0h0L86.58,33l0,0,0-.23v0a.82.82,0,0,1,.25,0l0,0a.22.22,0,0,1,0,.18,1.08,1.08,0,0,1-.23.49l0,.08h.09a6.14,6.14,0,0,1,.59-.3h0c.11,0,.2,0,.2,0l0,0ZM77,19.79a.46.46,0,0,1,.09.24c0,.18-.15.18-.18.19s0-.25-.07-.22,0,0-.19.09a5.58,5.58,0,0,0-.54.55H76a2.8,2.8,0,0,0,.15-.71s0-.09-.09-.06l-.08,0,0-.24a.53.53,0,0,1,.25-.13s.15,0,.15.24a1.35,1.35,0,0,1-.07.56s0,.07,0,0a4,4,0,0,1,.47-.48s.24-.12.25,0"></path><path class="cls-1" d="M76.75,19.79c-.12.09-.47.48-.49.48h0l0,0v0c.08-.18.13-.68,0-.8l-.11-.05a1,1,0,0,0-.27.14h0a1.41,1.41,0,0,1,0,.27h0l.07,0h.06v0h0a2.31,2.31,0,0,1-.15.69h0v0h.2v0c.18-.21.53-.53.53-.55s.15-.09.15-.09h0v0h0s0,.21,0,.25l.06,0h0c.06,0,.21,0,.18-.22a.54.54,0,0,0-.1-.25h0l0,0c-.06,0-.21.06-.24.07Zm.24,0a.36.36,0,0,1,.09.2c0,.11,0,.12-.17.17l0,0s0-.2-.06-.26h0s-.07,0-.24.09c0,0-.37.34-.55.55H76l0,.05a3,3,0,0,0,.16-.72v0l0-.09h-.07l-.08,0,0,0L76,19.61v0a.47.47,0,0,1,.22-.12l.06,0c.1.09.06.55,0,.73v.09l.08,0h0s.35-.38.47-.47h0a.36.36,0,0,1,.19-.06h0ZM91.62,60.26l-.15-.16a.92.92,0,0,0-.52.07s-.21.06-.19-.06,0-.22.16-.22a3.2,3.2,0,0,0,.67,0l-.12-.14a1.06,1.06,0,0,1-.46,0s-.23,0-.23-.34c0,0,0-.06.26-.09a2.2,2.2,0,0,1,.5,0l-.15-.19a3,3,0,0,0-.63,0c-.17,0-.29.16-.27.25s0,.19.27.35c0,0-.44.15-.29.38,0,0,.11.22.52.2l.27-.06a1,1,0,0,1,.36,0"></path><path class="cls-1" d="M91.26,60.26l-.27.07h0c-.37,0-.47-.17-.47-.17,0-.17,0-.11,0-.12a.48.48,0,0,1,.28-.2l.08,0c-.06,0-.28-.13-.31-.35v0l0-.06a.27.27,0,0,1,.2-.13,5.09,5.09,0,0,1,.63,0h0l.15.2,0-.07c-.15-.05-.76-.06-.8.09h0c0,.36.25.39.25.39h0a1.06,1.06,0,0,0,.47,0h0l.13.15,0-.06a2.26,2.26,0,0,1-.64,0c-.17,0-.21.18-.21.27l0,.09c.06,0,.19,0,.22,0h0a1,1,0,0,1,.49-.07h0l.15.16.05-.08a.72.72,0,0,0-.39,0m.22-.19a.84.84,0,0,0-.55.09h-.12v0s0-.19.14-.19a2.62,2.62,0,0,0,.67,0l.06,0,0,0-.12-.14,0,0h0a1,1,0,0,1-.43,0h0s-.18,0-.18-.3h0s0,0,.22-.06a1.86,1.86,0,0,1,.6,0l-.21-.3c-.49,0-.8,0-.92.19l0,.14h0c0,.09,0,.21.28.36v-.07s-.26.08-.32.25a.17.17,0,0,0,0,.19h0s.12.24.55.24h0a1,1,0,0,0,.26-.08.81.81,0,0,1,.32,0l.13,0c-.09,0-.33-.31-.3-.26Zm1.46-7.71-.15-.16a.92.92,0,0,0-.52.07s-.21.06-.19-.06,0-.24.16-.24a3.86,3.86,0,0,0,.67,0l-.12-.15a1.06,1.06,0,0,1-.46,0s-.22,0-.21-.32c0,0,0-.08.25-.09a3.08,3.08,0,0,1,.51,0l-.15-.19a4.11,4.11,0,0,0-.64,0c-.16,0-.28.16-.27.25s0,.2.27.36c0,0-.43.13-.28.38,0,0,.1.23.52.21a1.5,1.5,0,0,0,.27-.07.91.91,0,0,1,.34,0"></path><path class="cls-1" d="M92.58,52.34l-.25.08h0a.5.5,0,0,1-.48-.19h0v-.12c0-.11.21-.18.28-.2l.09,0c-.07-.06-.28-.13-.33-.37l0-.07a.34.34,0,0,1,.21-.14,4.64,4.64,0,0,1,.63,0l0,0,.14.2,0-.06a2.38,2.38,0,0,0-.51,0c-.23,0-.28.09-.29.1v0h0c0,.35.25.37.25.38h0a1.16,1.16,0,0,0,.48,0l0,0,.12.15,0-.06a4.46,4.46,0,0,1-.65,0c-.17,0-.21.18-.21.27l0,.08a.28.28,0,0,0,.22,0h0a1.06,1.06,0,0,1,.49-.08h0l.15.16,0-.06a.74.74,0,0,0-.37,0m.24-.19a1,1,0,0,0-.56.08h-.12v0s0-.19.13-.19c.7,0,.68-.05.73-.05a2.67,2.67,0,0,1-.18-.21.92.92,0,0,1-.46,0h0c-.13,0-.19-.14-.18-.29h0s0,0,.22-.06a1.32,1.32,0,0,1,.49,0l.11,0-.21-.3a5.57,5.57,0,0,0-.67,0,.42.42,0,0,0-.27.16l0,.13a.64.64,0,0,0,.29.39v-.08s-.27.09-.33.26a.22.22,0,0,0,0,.19h0s.12.24.55.24h0a1.1,1.1,0,0,0,.27-.08.78.78,0,0,1,.31,0l.14,0-.27-.28Zm.15-9-.2-.12a.88.88,0,0,0-.47.21s-.18.1-.21,0S92,43,92.2,43a3.41,3.41,0,0,0,.62-.19l-.15-.11a.9.9,0,0,1-.43.13s-.21.05-.3-.26c0,0,0-.06.23-.15a1.67,1.67,0,0,1,.49-.1l-.2-.15a5.9,5.9,0,0,0-.61.19c-.14.07-.22.24-.19.31s.06.18.36.27c0,0-.39.25-.17.44a.53.53,0,0,0,.55.06,1.2,1.2,0,0,0,.24-.13.91.91,0,0,1,.33-.13"></path><path class="cls-1" d="M92.63,43.23l-.24.13h0c-.35.1-.5,0-.5-.06h0l-.05-.1c0-.11.17-.23.21-.27l.08,0-.09,0c-.28-.08-.3-.19-.33-.25v-.07a.3.3,0,0,1,.16-.18,4.72,4.72,0,0,1,.6-.18h0l.2.14,0-.07c-.17,0-.76.13-.76.3h0c.09.34.34.3.36.3h0a.92.92,0,0,0,.46-.15h0l.14.1v0a3.63,3.63,0,0,1-.62.17c-.15.05-.15.23-.13.33l.06.07c.06,0,.15,0,.22,0h0a.84.84,0,0,1,.44-.19l0,0,.17.12,0-.07a1,1,0,0,0-.31.12M92.8,43a1,1,0,0,0-.52.22h0l-.13,0v0s0-.19.07-.22a3.67,3.67,0,0,0,.65-.21l0,0-.22-.15c-.33.16-.6.27-.7-.09v0s0-.05.19-.12a1.92,1.92,0,0,1,.58-.12l-.28-.24c-.4.11-.58.18-.64.2a.34.34,0,0,0-.21.37h0c0,.08.09.19.37.28l0-.07s-.24.15-.25.33a.21.21,0,0,0,.07.17h0s.18.21.6.08c.22-.11.38-.25.55-.25l.13,0c-.07,0-.38-.22-.33-.19Zm-6.4-1.74c.09,0,.2.16.24.21l0,.07,0,0h0s-.19,0-.46,0a.42.42,0,0,0-.43.18c-.15.2.24.72.74.72h.08l-.06,0a2.63,2.63,0,0,1-.46-.4c-.08-.08-.17-.22-.14-.25h0s0-.08.21-.06a3.11,3.11,0,0,0,.6,0h0c.17,0,.28-.09.19-.23a1.75,1.75,0,0,0-.27-.31h0l-.23.06v0ZM89,64.64a1,1,0,0,0,.66-.12l.12.09c-.87.77-.38,1.83-.35,2.18s-.47,0-.74-.38c.18,0,.31.32.45.41s.07-.16,0-.25c-.37-1.26.17-1.8.17-1.8a.57.57,0,0,1-.34-.13"></path><path class="cls-1" d="M89.3,64.76a1,1,0,0,0-.24.43,2.26,2.26,0,0,0,0,1.38h0c0,.08.06.22,0,.24l0,0c-.06,0-.1-.1-.16-.17-.24-.32-.3-.23-.36-.26l0,0c.12.16.52.68.73.58s-.62-1.44.4-2.38h0c0-.06-.11-.1-.15-.12h0a1,1,0,0,1-.64.12h-.06l.05,0a.55.55,0,0,0,.35.13ZM89,64.67a1,1,0,0,0,.67-.13h0l.12.07h0c-1,.93-.14,2.22-.41,2.36s-.56-.42-.66-.57l0,0c.16,0,.3.31.45.42h.09c.06,0,0-.23,0-.29h0c-.36-1.24.16-1.77.17-1.77l0,0a.67.67,0,0,1-.38-.12l0,0Zm-1.81-2.15s.67.8.7.06a1.1,1.1,0,0,0-.58-1c-.22-.11-.48.19-.48.19l-.11-.4-.26-.1.24,1.64.33.27-.08-.74a.5.5,0,0,1,.42-.43c.06,0,.1,0,.16.31s-.34.24-.34.24m1.72-16.4s.64.19.4-.22a.67.67,0,0,0-.68-.34c-.16,0-.18.26-.18.26l-.2-.16-.18,0,.71.8.27,0-.3-.37a.3.3,0,0,1,.06-.37s.06,0,.19.1-.09.24-.09.24M88.25,33.6c.4-.09.47.06.47.09a.71.71,0,0,1-.21.51s-.32-.38-.26-.6m.53.66c.12-.09.19-.15.22-.44-.06-.07.4.11.4.11s.11-.15-.62-.43-.83.12-.83.12,0,.62.41.74a.51.51,0,0,0,.42-.1M84.4,24s.43-.16.37.27c0,0-.46-.34-.76-.12s-1.5,1.72-1.78,2c1-.29,1.72-1.75,1.72-1.75s.17-.21.81.39c.4,0,.46-.24.44-.2.09-.72-.09-.78-.13-.81-.34-.18-.67.26-.67.26M75,18.19s.24-.24.32.07c0,0-.41-.1-.54.13s-.55,1.61-.67,1.86a3.1,3.1,0,0,0,.69-1.69s.06-.2.67,0c.27-.14.26-.28.26-.25-.15-.54-.29-.52-.33-.52-.31,0-.4.37-.4.37m5,2s.35-.1,0-.22c0,0-.86-.22-1.08.06,0,0-.11.12.85.49.16.06.4.24.35.27a5.87,5.87,0,0,1-1.51-.7c-.11.16.34.4.37.41,1,.51,1.11.43,1.16.4a.24.24,0,0,0,.1-.25s.07,0-.67-.38a4.19,4.19,0,0,1-.43-.23s.11-.09.65,0a.32.32,0,0,1,.17.13m9.29,38.33s-.62.15-.78.06-.22-.56-.22-.56l1,.5Zm-2.37-.07s-.11-.37.37-.43c0,.29-.37.43-.37.43m7.41-2.9c0,.11,0,.15-.06.25a2.46,2.46,0,0,1-.91.09,32.62,32.62,0,0,0-4.07-.19,1.52,1.52,0,0,0-1.57,1.68s-.24-.21-.34-.18.09.28.09.28-1,.24-1.07.69a.68.68,0,0,0,1,.62c0,.3.14,1.07.14,1.07s0,.19.49.43c.31.07.53.12,1.19-.25,0,0,.31-.3-.42-.46a1,1,0,0,1-.82.23L88,58.36a1.25,1.25,0,0,0,.9.62,2.07,2.07,0,0,0,.94-.07c.42-.11.21-.31.21-.31s-1.32-.7-1.74-1c.07-1.43.94-1.44,1.07-1.46l2,0a20.41,20.41,0,0,0,3.4.07c.39-.16-.43-.82-.37-.61"></path><path class="cls-1" d="M88.2,51.94c-.56.18-.43.91-.43.91s0,.58,1.75.62,4.12,0,4.12,0l-.3.34,1.8-.49,0,0L94.48,53s-3.89.06-5.92,0c-.57-.08-.28-.64-.17-.69a.7.7,0,0,1,.61,0,5.05,5.05,0,0,1-.71-3.81,1.77,1.77,0,0,0,1.59.93,1.14,1.14,0,0,0,.36,1s-.91.43,0,1c.33.25,1.08-.21,1.08-.21a1.51,1.51,0,0,0-.54-.22c-.08.15-.36.08-.36.08s-.13-.52.64-.4c.06,0-.82-.72-.69-1.07.14-.54.85-.85.84-.85a1,1,0,0,0-.55-.22s-.54.31-.66.4a.61.61,0,0,1-.72,0,6.6,6.6,0,0,1-.75-.89,2,2,0,0,1,1.65-.72c1.23-.07,2.38-.1,3.36-.19A2.83,2.83,0,0,0,95,46.73l-.57-.27a3.67,3.67,0,0,1-1.69.37,16.93,16.93,0,0,0-2.73.05,3.78,3.78,0,0,0-1.78.65S87.43,46,88,45.35A1.41,1.41,0,0,1,89.76,45c.18.1.25-.11.25-.11a2.16,2.16,0,0,0-2.36,0s-1,.84.22,2.94c0,0-.75,1.36.33,4m.43-8.51a1.83,1.83,0,0,1,.49,0,1.22,1.22,0,0,1-1.78.59,1.18,1.18,0,0,1,.52-1.93c.68-.27,3.25-.4,5.55-1.26a2.43,2.43,0,0,1,.55.18c-.5.78-5.12,1.13-5.76,1.48-1,.63-.31,1.37-.31,1.37s.1,0,.74-.48M80,22.63l-.47.29s0,.15,0,.33a11.61,11.61,0,0,0,.08,3c0,.31-.18.29-.18.29s-3-.95-3.42-1.48,0-.64,0-.64a4.39,4.39,0,0,1,1.06-.48c1.13.24,1.11-.41,1.14-.5.61-.57-.3-3.86-.18-4.07.09,0,.27.3.27.3s-.07-.66-.13-1.28c1,.13,5,3.88,5.13,4.16s-1.2-.12-2.65-.19a15.74,15.74,0,0,0,2.77.51c.79,0,.29-.71.29-.71a30.16,30.16,0,0,0-5-4,.61.61,0,0,0-.54.09v-.15s-.48.23-.49.31c-.37,1.5.46,3.42.29,4.83,0,.36-.74.14-.74.14a9.32,9.32,0,0,0-3.34-.84c-2.23.14-1.71-.93-1.71-.93A2.79,2.79,0,0,1,74,20.19,2.42,2.42,0,0,0,71.72,22s-.23.92,1.33,1a6.92,6.92,0,0,1,2.38.3l1.26.52a2.41,2.41,0,0,0-1.25.84c-.37.67.58,1.12.58,1.12s2.48,1.12,2.87,1.2S80.15,27,80,25.6c-.26-1.71-.09-1.74-.09-1.74l.24.25L80,22.63Z"></path><path class="cls-1" d="M87.21,38.47c.19-.1.55.23.53.46s.06,1.58.06,2a5,5,0,0,1-1.56-2.07,3.14,3.14,0,0,0,1-.43m-1.85-2.7s.63,0,.69.28-.52.42-.85.06c0-.3.16-.34.16-.34m1.73-6.31c.34,0,.09.49.09.49a1,1,0,0,1-.09-.49m.4,7.72c1.69-.65,4.66-2,5.06-2.66l-.67-.06a27.58,27.58,0,0,1-6,2.81c-.31.1-.58-.55-.58-.55s1.63-.15,1.22-1c-.39-.68-1.59-.31-1.7,0a.71.71,0,0,1,.24-1.22s-2-.51-1.68-2.27a19.71,19.71,0,0,1,.69-2.32,1.36,1.36,0,0,0,.72.13A5.19,5.19,0,0,0,86,29.35l.14.21.35,0a2.83,2.83,0,0,0,.24.86c.19.36.52.07.52.07s1.08-.93.21-1.44c-.27-.13-.6.17-.94,0s-.15-.4,0-.8l-.58.22a1.61,1.61,0,0,1-.64.95c-.4.24-1.11-.15-1.11-.15l.8-3.41s0-.13.19-.05c1.44.38,4.71,5.48,4.68,5.66s-2.08-.47-2.29-.09a19.87,19.87,0,0,1,2.44.42c.55,0,.44-.39.44-.39s-3.23-5.15-5.08-6l-.23.08-.26-.06a.51.51,0,0,0-.41.25c-.12.24-.79,3.24-.91,3.3a3.43,3.43,0,0,1-2.09-2c-.51-1.35,1.44-1.94,1.54-2a2.1,2.1,0,0,0-2,1.6,2.26,2.26,0,0,0,.52,1.55,7.42,7.42,0,0,0,1.89,1.42s-.22.51-.25.6-.14.13-.32.16-.66-.74-.66-.74-.43.07-.46.17a.46.46,0,0,0,0,.39,11.31,11.31,0,0,0-2.9-1.68c-.78-.47.17-1,.24-1,.39-.14,1.67-.08,1.59-.17a3.13,3.13,0,0,0-1.77-.11,1.2,1.2,0,0,0-.84.86c-.14.74,1.91,1.38,2.51,1.81a5.62,5.62,0,0,1,1.26,1.42l.52-.1.1-.53s.14.38.89-.09c-.44,1.13-.9,2.63.06,3.35a10.64,10.64,0,0,0,.94.69.72.72,0,0,0-.3.84,1.44,1.44,0,0,0,.6.8c.19,1.64,1.23,1.4,1.23,1.45a1.3,1.3,0,0,0-.24,1l-.33.1s-.08.33.38.2a5.53,5.53,0,0,0,1.94,2.39l.24.46.49,0s0-2.09-.06-3a1,1,0,0,0-1.47-.72c-.16.07-.67.55-.64.41,0-.87,1.28-1.32,1.31-1.32"></path><path class="cls-1" d="M39.09,18.69s.19.67.18.63,4.57,4.76,4.45,5c0,0,.06-.66-.9-1.76s-2.72-3-2.72-3l.43,0-1.44-.83Zm-1,1-.2,0,0-.08s0-.13.18-.06l.06.11Zm.1,0L38,19.39a.09.09,0,0,0-.16,0,.57.57,0,0,0,0,.39c.07.24.34.1.34.1l0,.05a10.88,10.88,0,0,1-.34,1.23l0,0a1.93,1.93,0,0,0,.38-1.23l0-.05h.15l0-.2Z"></path><path class="cls-1" d="M38.35,19.66l0,.2,0,0h-.16l0,.06a1.86,1.86,0,0,1-.38,1.22h0l0,0,0,0a8.62,8.62,0,0,0,.34-1.25h0v-.08h0a.32.32,0,0,1-.22,0c-.15-.06-.12-.36,0-.48l.06,0,0,.06h0l.21.25v0h.2Zm-.12,0L38,19.39h0l-.11-.07c-.16,0-.26.5,0,.6a.28.28,0,0,0,.26,0h0v0h0a8.56,8.56,0,0,1-.36,1.31l.06,0,0,0h0a2,2,0,0,0,.38-1.25l0,0h0a.28.28,0,0,1,.11,0h0a1.48,1.48,0,0,1,0-.25h0l-.16,0,0,0Z"></path><path class="cls-1" d="M37.91,19.52s0,0-.07.09l.06.09.21,0h0s0,0-.07-.12h0l-.14,0Zm.2.12c-.06,0-.15.05-.17,0l0,0,0-.06H38l.06.09,0,0Zm5.6.64s-.3,0-.29-.07,0-.51.69-.35c0,0,.1.17-.4.42m.77-.85c-.8-.47-1.19-.13-1.19-.1a.94.94,0,0,0-.09,1,.65.65,0,0,0,.88.42s.43-.41.65-.44c0,0,.31-.08.39.11l0,.21-.12.55s-.43,1.21-.47,1.3-.91,1.86-.95,1.93-.94,1.71-1,1.82,1.68-1.91,1.85-2.17c.27-.58,1.18-2.68,1-3.28a2,2,0,0,0-1-1.39m-5,2,.21.43.6-.17L40,21.26m-2.41,1.8.17.44.6-.13-.16-.46"></path><path class="cls-1" d="M38,22.54l.17.44.61-.13-.17-.46m4,1.45s.26.33.06.51c0,0-.16.19-.5-.28a2.68,2.68,0,0,1-.3-.73s.31.76.54.79c0,0,.22.12.2-.29"></path><path class="cls-1" d="M42.39,24.1c-.15,0-.39-.49-.51-.77l0-.11,0,.12c-.05.16.32.82.29.77.17.22.31.33.43.33a.21.21,0,0,0,.14-.05c.21-.2-.05-.55-.06-.56l-.08-.1c0,.09,0,.32-.06.37Zm.17-.23s.23.3.06.46l-.07,0c-.08,0-.19-.05-.37-.29h0a2.22,2.22,0,0,1-.29-.7h-.07c0,.09.33.77.55.82h0a.18.18,0,0,0,.17,0c.08,0,.11-.16.09-.33ZM42.7,21s.19.35,0,.52c0,0-.19.16-.46-.36,0,0-.24-.64-.18-.77s.2.79.4.86c0,0,.21.15.26-.25"></path><path class="cls-1" d="M42.46,21.19c-.13-.05-.3-.54-.39-.84l0-.1,0,.1a2,2,0,0,0,.18.81h0s.18.35.38.4a.2.2,0,0,0,.14,0c.23-.18,0-.55,0-.57l-.06-.1s0,.31-.11.36l-.1,0Zm.19-.2s.18.33,0,.46l-.09,0c-.07,0-.17-.09-.32-.36h0a2.67,2.67,0,0,1-.18-.74H42c0,.09.21.82.43.89h0a.17.17,0,0,0,.16,0,.43.43,0,0,0,.15-.3Zm-2.49-2.71.09.37s.5-.08.89.59a1.24,1.24,0,0,0-1-1m-1,8.12.09.37a1,1,0,0,1,.89.59,1.23,1.23,0,0,0-1-1m3.09-9.65.15.22-.86,3-.14-.22"></path><path class="cls-1" d="M41.57,20.1,42.46,17h0l-.21-.31s-.89,3.19-.87,3.13.22.36.19.31Zm.67-3.32.15.22v0l-.87,3,.08,0-.14-.22v0l.85-3-.07,0Zm-3.18,3.07s-.11-.56-.31-.22a.56.56,0,0,0,0,.65c.07.1.28,0,.28,0l-.05.22.09.12.33-.85-.07-.22-.17.37a.26.26,0,0,1-.31.09s0,0,0-.2.19,0,.19,0"></path><path class="cls-1" d="M26.45,67.28l.73-.07s6-3.7,6.19-3.55a3.37,3.37,0,0,0-2.17.64c-1.47.82-3.53,2.09-3.53,2.09l.09-.44-1.31,1.33Zm-.34-32.59s-.17.11-.22.1l-.09-.07s0-.18.19-.12l.12.09Zm.12,0-.33-.27c-.15-.15-.21,0-.21,0a.82.82,0,0,0,.06.51c.17.25.46,0,.46,0l.05.06a12.17,12.17,0,0,1,0,1.64l0,0A2.44,2.44,0,0,0,26.36,35l0-.06.17,0-.12-.24-.2,0Z"></path><path class="cls-1" d="M26.41,34.61l.13.24v0l-.19,0h0l0,.08a2.52,2.52,0,0,1-.09,1.63h0l0,0h.05a12.56,12.56,0,0,0,0-1.65h0l0-.07h-.05a.5.5,0,0,1-.28.11c-.21,0-.27-.42-.22-.6l.07-.07.11,0h0a2.15,2.15,0,0,1,.32.27v0h0l.19-.06v0Zm-.15,0-.34-.27h0l-.14-.06c-.21,0-.16.72.15.75a.44.44,0,0,0,.31-.11h0a9.73,9.73,0,0,1,0,1.76l.05-.06,0,0h0A2.5,2.5,0,0,0,26.38,35v0h0a.45.45,0,0,1,.16,0h0s-.17-.32-.15-.28h0l-.19.06,0,0Z"></path><path class="cls-1" d="M26,34.57c-.15,0-.22,0-.22.15s.09.08.1.08.18,0,.25-.1h0s0,0-.13-.12Zm.1.1c-.06,0-.16.11-.2.09l-.08-.06,0-.1a.18.18,0,0,1,.13,0h0l.1.09h0Zm.2,1.77s-.14.19-.23.19-.1,0-.12-.06-.07-.21.18-.22l.17.09Zm.12-.09-.49-.18c-.23-.1-.23.13-.23.13a1,1,0,0,0,.27.55c.3.24.53-.16.53-.16s.08.05.08.05a14.36,14.36,0,0,1,.61,1.88v-.07a3.06,3.06,0,0,0-.53-1.93v-.08l.19-.1-.24-.22-.2.13Z"></path><path class="cls-1" d="M26.6,36.23l.24.22v0l-.21.14v.09a2.83,2.83,0,0,1,.54,1.9h0l0,.07h0a13.3,13.3,0,0,0-.61-1.9h0l-.06-.07,0,0a.53.53,0,0,1-.28.22c-.26,0-.48-.37-.49-.6l.06-.11s.07,0,.15,0h0a4.63,4.63,0,0,1,.49.18h0l.21-.14,0,0Zm-.18.1-.5-.17h0c-.15-.08-.26,0-.26.14s.24.69.54.64a.58.58,0,0,0,.32-.25h0l0,.05h0c0,.1,0-.27.63,2,0-.06,0-.09,0-.15a2.89,2.89,0,0,0-.55-1.93v0h0a.49.49,0,0,1,.18-.1l0,0-.28-.25-.21.15,0,0Z"></path><path class="cls-1" d="M26.11,36.35c-.18,0-.24.12-.19.25s.13.08.14.08.21-.17.24-.23-.12-.09-.19-.1Zm.15.07a.63.63,0,0,1-.2.2l-.1,0v-.13a.19.19,0,0,1,.15-.06h0c.07,0,.15,0,.16.06h0v0Zm-1.59,4.83s-.12.21-.2.22l-.13,0s-.09-.19.15-.24Zm.12-.1a2.6,2.6,0,0,0-.51-.12c-.24-.09-.21.15-.21.15a1,1,0,0,0,.33.52c.31.19.52-.23.52-.23s.07,0,.07,0a15.2,15.2,0,0,1,.81,1.81v-.07a3,3,0,0,0-.74-1.86l0-.07.18-.13L25,41l-.19.17Z"></path><path class="cls-1" d="M25,41l.26.2v0l-.2.14h0l0,.11a2.91,2.91,0,0,1,.74,1.84h0v.07h0a15.89,15.89,0,0,0-.8-1.82h0l-.07-.07-.05,0a.49.49,0,0,1-.27.25.29.29,0,0,1-.22,0,.84.84,0,0,1-.31-.51l0-.12s.08,0,.14,0h0c.53.11.46.12.5.14l0,0L25,41v0Zm-.16.12a3.3,3.3,0,0,0-.52-.13h0a.19.19,0,0,0-.18,0c-.19.15.18.84.54.74a.54.54,0,0,0,.28-.28v0h0l0,.05h0a15.12,15.12,0,0,1,.82,1.88V43.3l0-.07h0a3.12,3.12,0,0,0-.75-1.88v0h0s.09-.07.17-.12h0l0,0L24.94,41l-.2.17Z"></path><path class="cls-1" d="M24.49,41.18c-.18,0-.22.13-.16.26a.13.13,0,0,0,.14.05c.09,0,.2-.2.21-.24s-.13-.06-.19-.07Zm.16.07c0,.07-.13.21-.18.21l-.1,0v-.14s.06,0,.14-.07h0a.59.59,0,0,1,.17.05h0v0Zm2.6,23.54a1.07,1.07,0,0,1,.08.28l-.09.06a.16.16,0,0,1-.11-.25Zm0-.15a1.67,1.67,0,0,0-.34.22c-.18.09,0,.24,0,.24a.86.86,0,0,0,.54.15c.3-.06.09-.48.09-.48s.06,0,.06,0a14.85,14.85,0,0,1,1.74.77l0-.06a3.21,3.21,0,0,0-1.73-.83l-.06,0v-.21l-.27,0,0,.22Z"></path><path class="cls-1" d="M27.21,64.43l.26,0,0,0,0,.23h0l.07.06a3.18,3.18,0,0,1,1.73.83h0l0,.06,0,0a18.22,18.22,0,0,0-1.74-.78H27.5v.05s.12.22.05.36-.49.06-.65-.06L26.82,65l.06-.07h0a2,2,0,0,1,.33-.22h0l0-.26,0,0Zm0,.18a2.5,2.5,0,0,0-.36.24h0l-.09.1c0,.23.68.49.8.23a.46.46,0,0,0-.06-.42h0l0,0h0c.05,0,.09-.05,1.73.77l0,0s0,0-.05-.06a3.17,3.17,0,0,0-1.74-.83s-.07,0,0-.22v0h0l-.3,0,0,.25,0-.06Z"></path><path class="cls-1" d="M27.1,64.85a.18.18,0,0,0,.11.28c.06,0,.1,0,.12-.06s0-.25-.08-.3-.1,0-.15.08Zm.12-.06a.57.57,0,0,1,.08.25l-.08,0a.15.15,0,0,1-.1-.09v-.14h0l.11-.07Zm9.89-39s-.28.07-.29,0,0-.51.6-.45c0,0,.15.15-.31.48m.61-1c-.87-.33-1.19.07-1.19.1a1,1,0,0,0,.11,1,.63.63,0,0,0,.93.26s.36-.48.57-.54c0,0,.29-.15.4,0v.21l0,.56c0,.05-.22,1.27-.23,1.37s-.57,2-.6,2.08-.62,1.84-.65,1.94,1.32-2.16,1.45-2.46c.17-.62.7-2.82.43-3.42a2.14,2.14,0,0,0-1.2-1.17M26,45.75s-.16.24-.23.16-.37-.35.18-.74c0,0,.19,0,0,.58m-.16-1.13c-.87.31-.85.82-.83.85a.92.92,0,0,0,.74.73.64.64,0,0,0,.88-.42s-.05-.59.09-.77c0,0,.13-.3.32-.24l.15.15.34.44s.67,1.1.72,1.19l.9,2c.05.09.73,1.81.78,1.9s-.42-2.51-.49-2.8c-.29-.58-1.33-2.6-1.91-2.87a2.22,2.22,0,0,0-1.69-.12m1.81,17.69.39-.94s0,.32.1.26.83-.9,1.16-1,.64-.32,1.66.26a17.87,17.87,0,0,1,2,1.31s1.75,2.21,1.79,2.32-3.25-2.74-3.52-2.91a6.23,6.23,0,0,0-1.5-.85c-.22,0-1.05.89-1.33,1.32l-.72.21ZM24.49,48.84l.42.22.37-.49-.43-.24m1,16.59.47.08.19-.58L26,64.33m4.18-14.66.35.31L31,49.6l-.36-.33m-1.44-4.9.42.24.38-.48-.41-.25m-1.69-5.63.32.34.51-.35-.34-.36m2.73-4.31.32.34.51-.35-.34-.36"></path><path class="cls-1" d="M36.43,30.77l.21.43.59-.18L37,30.57M24.44,48.17l.42.22.37-.49-.43-.23m3.79-9.06.31.35.52-.34-.33-.37"></path><path class="cls-1" d="M28.77,38l.31.35L29.6,38l-.33-.37m7.86-15.13.18.43.59-.15-.18-.46M25,57.1l.61.1,0-.49L25,56.62"></path><path class="cls-1" d="M25.57,56.77l.61.1,0-.49-.61-.09m9.53-29.22s.15.37-.07.5c0,0-.21.14-.42-.4a2.52,2.52,0,0,1-.09-.79s.11.82.3.91c0,0,.19.16.28-.22"></path><path class="cls-1" d="M34.86,27.26c-.14-.06-.24-.56-.29-.88v-.11l-.06.1c-.09.15.1.86.09.82.09.23.25.53.47.41s.11-.55.09-.56l0-.12c0,.06,0,.31-.15.34Zm.22-.18s.13.34-.06.46h-.08c-.07,0-.17-.1-.28-.38h0a2.48,2.48,0,0,1-.09-.76l-.07,0c0,.09.12.84.33.94h0a.19.19,0,0,0,.16,0c.08,0,.14-.12.18-.28Zm-1.83,3.43s.14.31-.07.43c0,0-.2.12-.39-.34,0,0-.15-.56-.09-.65s.11.68.28.76.18.13.27-.2"></path><path class="cls-1" d="M33,30.68c-.11-.05-.22-.48-.26-.73l0-.09-.06.09c-.07.1.06.59.08.68h0c.09.21.19.33.31.36a.24.24,0,0,0,.13,0c.25-.13.08-.49.05-.56s-.05.27-.14.3l-.09,0Zm.2-.15s.13.29-.05.38h-.07c-.06,0-.17-.09-.25-.32h0a2,2,0,0,1-.09-.64h-.06c0,.06.1.7.29.77h0a.17.17,0,0,0,.15,0,.29.29,0,0,0,.17-.24l-.09,0Zm2.3,2.85s.15.31-.08.43c0,0-.19.12-.38-.34a2,2,0,0,1-.09-.66s.1.69.28.76c0,0,.19.14.27-.19"></path><path class="cls-1" d="M35.27,33.54c-.12,0-.22-.47-.27-.73v-.08l-.06.08c-.07.12.09.73.07.69.09.19.26.44.43.35s.08-.49,0-.56,0,.25-.13.3l-.08-.05Zm.21-.15s.12.29,0,.39h-.07c-.06,0-.16-.09-.25-.33h0a2,2,0,0,1-.09-.64H35c0,.07.1.7.3.79h0a.17.17,0,0,0,.15,0c.07,0,.13-.11.16-.24ZM30.34,46.66s.33.13.25.35c0,0-.06.21-.5,0,0,0-.49-.3-.52-.42s.53.43.73.36c0,0,.2,0,0-.31"></path><path class="cls-1" d="M30.28,46.94c-.12,0-.49-.19-.7-.36l-.07-.06v.11c0,.12.45.38.54.44h0a.55.55,0,0,0,.47,0,.17.17,0,0,0,.09-.11c.09-.26-.29-.4-.37-.44s.15.22.11.31l-.08.06Zm0-.25s.29.11.22.31l-.06.06c-.06,0-.18,0-.42-.06h0c-.19-.12-.49-.33-.5-.4l-.06,0c.06,0,.55.43.76.36h0a.26.26,0,0,0,.14-.09.34.34,0,0,0-.05-.28v.06Zm1.11,13.5s.42.11.37.43c0,0,0,.29-.59.13,0,0-.66-.31-.72-.46s.75.46.94.34c0,0,.27-.09,0-.44"></path><path class="cls-1" d="M31.44,60.57c-.13.09-.62-.16-.91-.34l-.1-.06c.06.13,0,.22.79.62h0c.87.27.77-.56.23-.65l-.11,0c0,.08.22.27.19.4a.11.11,0,0,1-.09.06Zm0-.34c.33.09.36.31.34.39l0,.07c-.06.06-.2.1-.51,0h0a2,2,0,0,1-.68-.43l-.06.06c.07,0,.76.47,1,.34h0a.21.21,0,0,0,.14-.13.46.46,0,0,0-.12-.37l0,.07Zm2-23.49s.14.31-.08.43c0,0-.19.12-.39-.35a2,2,0,0,1-.08-.65s.1.68.28.76c0,0,.18.13.27-.19"></path><path class="cls-1" d="M33.18,36.9c-.12,0-.23-.48-.26-.73v-.09l-.06.09c-.07.11.06.58.07.68h0c.09.21.2.33.32.36a.15.15,0,0,0,.13,0c.25-.14.07-.51.05-.57s-.05.25-.14.3l-.1,0Zm.21-.15s.11.3-.06.39h-.08c-.06,0-.16-.09-.25-.33h0a2,2,0,0,1-.09-.64h-.06c0,.07.1.69.3.78h0a.17.17,0,0,0,.15,0,.26.26,0,0,0,.16-.23Zm-4.22,3s.28.19.16.4c0,0-.1.19-.5-.09,0,0-.42-.4-.42-.52s.43.53.64.5c0,0,.22,0,.12-.29"></path><path class="cls-1" d="M29.05,40c-.13,0-.45-.3-.61-.49l-.06-.08v.11c0,.12.36.47.43.55h0a.58.58,0,0,0,.45.15.17.17,0,0,0,.1-.08c.15-.25-.19-.46-.25-.5l0,.1a.27.27,0,0,1,0,.22l-.09,0Zm.1-.22s.27.17.15.35l-.06.05c-.06,0-.18,0-.38-.15h0a2,2,0,0,1-.41-.49l-.05,0c0,.06.44.55.66.52h0A.18.18,0,0,0,29.2,40a.29.29,0,0,0,0-.28l-.06,0Zm1.21-3.05s.19.3,0,.43c0,0-.18.15-.44-.27a2.14,2.14,0,0,1-.19-.63s.21.65.4.69c0,0,.2.12.23-.22"></path><path class="cls-1" d="M30.15,36.91c-.14,0-.3-.43-.37-.68l0-.09-.05.09a1.74,1.74,0,0,0,.2.67h0c.37.59.75.24.49-.19l-.06-.09,0,.1a.39.39,0,0,1-.07.21l-.09,0Zm.18-.17s.16.26,0,.38l-.07,0c-.06,0-.18-.06-.32-.29h0a3.13,3.13,0,0,1-.19-.6h-.07c0,.07.21.66.41.72h0a.14.14,0,0,0,.15,0c.07,0,.1-.12.12-.26ZM33.1,28l.17.33a1,1,0,0,1,1,.39A1.26,1.26,0,0,0,33.1,28m-3,3.91.15.34a1,1,0,0,1,1,.42,1.27,1.27,0,0,0-1.13-.76M29,33.3l.21.5a1.4,1.4,0,0,1,1.42.6A1.72,1.72,0,0,0,29,33.3M22.94,53.78l.36.11a1,1,0,0,1,.95-.49,1.24,1.24,0,0,0-1.31.38m1.5,7.27.36.1a1,1,0,0,1,.95-.49,1.23,1.23,0,0,0-1.31.39M27.13,68l.48.13a1.27,1.27,0,0,1,1.26-.65,1.68,1.68,0,0,0-1.74.52M25.47,50.25l.36.28a1.17,1.17,0,0,1,1.3-.12,1.51,1.51,0,0,0-1.66-.16M37.14,20.41l.15.23-.86,3-.13-.23"></path><path class="cls-1" d="M36.43,23.76c0-.05,1-3.35.89-3.14l-.21-.31-.87,3.13.19.32Zm.68-3.33.15.22v0l-.86,3h.06l-.13-.23v0l.84-3-.06,0Zm-1.57,1.65.21.26-.67,3.79-.18-.25"></path><path class="cls-1" d="M35.09,26.24s.73-4.18.69-3.91L35.51,22l-.67,3.92Zm.4-4.12.21.27v0l-.65,3.79.07,0-.18-.26v0l.64-3.78ZM33.27,27.2l.19.21L34,24.1l-.2-.23"></path><path class="cls-1" d="M33.22,27.23l.2.21,0,.06.58-3.42-.28-.29-.55,3.43Zm.54-3.33.2.23v0l-.55,3.31.07,0-.19-.21v0l.54-3.31Zm-1.89,5.84.21.22.24-3.87-.24-.23"></path><path class="cls-1" d="M32.11,26l.15.15L32,29.86l-.13-.13L32.11,26Zm-.28,3.8.28.31.24-4h0L32,25.78l-.2,4Zm-3.24,4.5.18.18.35-3.05-.19-.19"></path><path class="cls-1" d="M29,31.3l.13.13-.34,2.94-.12-.11.33-3Zm-.42,3h0l.18.19.06.06.37-3.15c-.35-.36-.23-.22-.26-.25l-.35,3.15Zm-5.67,13,.27,0,1.75,2.5h-.25"></path><path class="cls-1" d="M25,49.82l-1.83-2.58h0l-.36,0,1.84,2.58.36,0Zm-2.12-2.53.28,0,0,0,1.77,2.51,0,0-.26,0,0,0-1.78-2.5,0,0ZM23,48.85l.29,0,1.75,2.51-.25,0"></path><path class="cls-1" d="M25.14,51.41l-1.82-2.6-.38,0,1.85,2.59.35,0ZM23,48.88l.27,0,0,0L25,51.39l0-.06-.25,0,0,0-1.79-2.5,0,.06ZM23.75,59l.25-.1,2.67,1.5-.24.09"></path><path class="cls-1" d="M26.76,60.44,24,58.89l-.27.11-.07,0,2.77,1.53.33-.12Zm-3-1.37L24,59h0l2.68,1.5v-.08l-.24.09h0L23.76,59v.07ZM24.82,63l1.76.62.14-.07L25,62.89"></path><path class="cls-1" d="M25,62.92l1.7.62-.09.05L24.86,63l.1-.06Zm0-.06-.15.09-.05,0,1.83.65.18-.1-1.81-.67ZM30,50.65l.16,0,1.06,1.63-.15,0"></path><path class="cls-1" d="M31.26,52.34l-1.08-1.69H30s1.17,1.79,1.1,1.67h0A1.52,1.52,0,0,0,31.26,52.34ZM30,50.68l.16,0v0l1.05,1.65,0,0h-.14L30,50.65v0Zm-6.86-7.29h.18l1.35,2.15H24.5"></path><path class="cls-1" d="M24.73,45.59l-1.38-2.22h-.24l1.39,2.21.23,0Zm-1.58-2.16h.17l1.35,2.15v-.06h-.16l-1.35-2.15,0,.07Zm.54.06h.18l1.3,1.95-.16,0"></path><path class="cls-1" d="M25,45.47h.21l-1.34-2h-.24l1.37,2Zm-1.32-1.95h.16l1.29,1.94,0-.06H25v0l-1.3-1.93,0,0Zm10-8.82a.35.35,0,0,1,.24-.06c.17,0,.16.18.17.21s-.25-.05-.23,0-.05,0,.06.21a6.17,6.17,0,0,0,.49.6v.13a2.28,2.28,0,0,0-.69-.22s-.09,0-.06.07l0,.08h-.24a.62.62,0,0,1-.1-.25s0-.15.25-.12a1.25,1.25,0,0,1,.55.13s.07,0,0,0a4.42,4.42,0,0,1-.42-.53s-.1-.25,0-.27"></path><path class="cls-1" d="M33.64,35a4.15,4.15,0,0,0,.43.53h0v0h0a1.12,1.12,0,0,0-.6-.15.23.23,0,0,0-.22.06l-.06.1a.71.71,0,0,0,.11.29h.29l0,0,0-.07,0,0h0v0h0a2.67,2.67,0,0,1,.67.22h0s0-.23,0-.19h0c-.19-.21-.47-.6-.47-.6s-.06-.16-.06-.16h0v0s.13,0,.19,0l.06,0,0-.06c0-.24-.17-.22-.21-.22a.64.64,0,0,0-.27.07h0l-.05,0c-.06.09,0,.23,0,.28Zm0-.24h0a.58.58,0,0,1,.23-.06c.1,0,.11.06.13.13v.05l0-.05s-.19,0-.25,0l0,.06,0,0s0,.08.06.24a6.55,6.55,0,0,0,.49.61h0v.13l0,0a3.56,3.56,0,0,0-.7-.24h0l-.09,0v.07l0,.08,0,0-.23,0h0s-.11-.16-.09-.24l0-.06c.1-.09.56,0,.71.11h.09l0-.08h0a3.25,3.25,0,0,1-.41-.53h0c0-.09-.05-.18,0-.19h0v0ZM24.31,52.86a.44.44,0,0,1,.09-.25c.1-.16.25,0,.28,0s-.19.19-.1.24,0,.06.21.06c0,0,.52,0,.83-.06l.12.07a3.6,3.6,0,0,0-.63.46s-.07.06,0,.11l.05.07-.14.22a.6.6,0,0,1-.29-.07s-.12-.09,0-.3a1.52,1.52,0,0,1,.46-.4s.08,0,0,0a6.18,6.18,0,0,1-.73,0s-.25,0-.21-.12"></path><path class="cls-1" d="M24.52,53a6.67,6.67,0,0,0,.74,0h0l0,0v0a1.22,1.22,0,0,0-.48.41c-.18.21-.13.42.3.42l.15-.25,0,0,0-.07v0h0l0,0h0a2.41,2.41,0,0,1,.61-.45h0l0,0-.18-.12h0a7.42,7.42,0,0,1-.83.06c-.15,0-.18,0-.18,0h0l0,0h0l.12-.17.05-.05h-.08v0a.22.22,0,0,0-.31.06.41.41,0,0,0-.09.28h0V53l.28.09Zm-.16-.19s0-.08.08-.22.14-.06.21,0h.05l0-.06s-.15.15-.14.24l0,.06,0,0s0,.09.26.1a7.14,7.14,0,0,0,.83-.06h0l.12.08v-.08a3,3,0,0,0-.64.48h0l-.05.09.08.09,0,0,.05.08v0l-.14.22,0,0a.6.6,0,0,1-.26,0l0-.06c0-.15.34-.51.53-.58l.06-.08-.07,0a3.75,3.75,0,0,1-.73,0h0c-.11,0-.19-.07-.19-.09h0v0Zm5,13.57s0-.06,0-.2.19-.08.21-.08-.11.18,0,.21,0,0,.18,0a6,6,0,0,0,.62-.19l.1,0a1.86,1.86,0,0,0-.38.46s-.06,0,0,.07l0,.06-.06.19a.6.6,0,0,1-.24,0s-.1,0,0-.22a.92.92,0,0,1,.28-.39s.06,0,0,0-.43.15-.55.17-.23,0-.22-.11"></path><path class="cls-1" d="M29.52,66.53a3.69,3.69,0,0,0,.57-.17h0v0l0,0c-.13.1-.37.44-.32.59l.06.08a.49.49,0,0,0,.25,0h0s.09-.27.08-.23h0l0-.06H30v0h0a2.55,2.55,0,0,1,.39-.45h0l0,0,0,0-.1,0h0c-.23.08-.61.17-.63.19a.48.48,0,0,1-.15,0h0v0h0l.06-.14,0,0h-.06c-.09,0-.19,0-.24.09a.63.63,0,0,0,0,.22h0l0,0a.37.37,0,0,0,.23,0Zm-.16-.11h0a.47.47,0,0,1,0-.19c0-.09.09-.07.15-.06h0l0,0s-.09.14-.06.2l0,0v0c0,.14.73-.1.83-.16h0l.1,0v0a2.25,2.25,0,0,0-.41.46h0v.07l.07,0v0l0,.06v0L30,67l0,0a.33.33,0,0,1-.22,0l0,0c0-.12.17-.45.29-.54l0-.06h-.07a4.47,4.47,0,0,1-.55.16h0c-.09,0-.16,0-.16,0h0v0Zm.48-14.57s-.64-.37-.49.14c0,.06.19.55.63.55.18,0,.27-.24.27-.24l.18.24h.19l-.56-1-.28-.11.22.48a.34.34,0,0,1-.18.38s-.07,0-.18-.16.2-.24.2-.24M28.51,36.78s-.17-.21.08-.27c0,0-.11.33.09.45s1.26.52,1.45.62a2.53,2.53,0,0,0-1.32-.64s-.15-.06.06-.53c-.09-.22-.22-.21-.19-.21-.43.09-.43.21-.43.24-.05.24.26.34.26.34m2.1,5.9-.11-.11c-.17-.1-.22,0-.22,0,0,.17.33.49.36.52a.23.23,0,0,0,.35,0,.76.76,0,0,0,.09-.15l.48.31s.25.17.43-.16a1,1,0,0,0-.25-1,3.08,3.08,0,0,1,0,1s-.05.14-.23,0a7.1,7.1,0,0,1-.68-.78h-.22l.22.3s.05.35-.12.34l-.15-.15c-.07-.07.08-.16.08-.16m-.14,16.21-.11-.09c-.21-.07-.23.06-.23.08s.4.43.45.44.33,0,.35-.06.06-.16.06-.16l.52.22a.32.32,0,0,0,.42-.23,1,1,0,0,0-.43-1,3.35,3.35,0,0,1,.15,1s0,.15-.21.06a7.07,7.07,0,0,1-.8-.64l-.22,0,.26.23s.11.35-.06.36a.59.59,0,0,1-.16-.12c-.12,0,0-.15,0-.15M25.35,38.43s0,0-.1-.11-.24,0-.23,0c0,.17.33.49.36.52a.24.24,0,0,0,.36,0l.09-.14.47.31a.32.32,0,0,0,.45-.15,1,1,0,0,0-.26-1,3.08,3.08,0,0,1,0,1c-.13.34-.77-.64-.89-.74l-.22,0,.22.28s.05.36-.12.35l-.14-.15c-.12-.09,0-.18,0-.18m2.12,6,.52.33a1.2,1.2,0,0,1,.79-.27s1.14,1.75-.92,2c-1.8.21-3.71-.62-5.15.09.37.28.43.34.43.34.86-.59,2.48-.09,5.09-.09,1.1,0,1.29-.75,1.29-.75s.38-1.43-.75-1.84a1.22,1.22,0,0,0-1.3.2"></path><path class="cls-1" d="M35.57,30.44a1.25,1.25,0,0,1,.27-.83,2.88,2.88,0,0,1-.39-.42c.19-.43.55-.58,1.37-1.16-.58,2.38-1.25,2.41-1.25,2.41m-.45.16a4.34,4.34,0,0,0-.55.2l.57-.63,0,.43Zm-2,2.76c-.15,0-.47-.25-.47-.25s.65.94.07,1.2c-2.25.94-4,.66-5.7,1.33-.22-1.16,2.33-5.36,2.33-5.36s.16.28.24.31a34.48,34.48,0,0,1,4,1.94c.18.12.44.88-.48.83m-2.65-4.78s.29-.44.31-.09a10.22,10.22,0,0,0,.1,2.17c-.12-.09-1.45-.52-1.45-.52l1-1.56ZM28.23,43.45c-.24-.27.14-.42.14-.42a.91.91,0,0,1-.14.42m13.32-18.7c-.1-.16-.17-.3-.64-.34s-.35.47-1,.7c-.56.07-.51-.4-.51-.4s0-.26,0-.64.73-.18.73-.18.89.06,1.13-.4a4.45,4.45,0,0,0,.3-.66s.1-.63-1.22-.95a4.52,4.52,0,0,0,.31.6s.27-.05.39.06-.24.62-.24.62a1.18,1.18,0,0,1-1.17.21c-.61-.28-.8.77-.63,1.4s.85,1.05,1.28.81,1-.83,1-.65a4.75,4.75,0,0,1-1.22,3,1.9,1.9,0,0,1-2.62,0,4.09,4.09,0,0,1,.72-1.15l-.28-.48a9.91,9.91,0,0,1-2.54,2c-.85.63-.15,1.14-.15,1.14a7.18,7.18,0,0,0-1.67,2.15,3,3,0,0,0,.38.42A3.28,3.28,0,0,1,35,31.29c0,.07,0,.05-.22.63-.42.72-1.31.23-1.31.23L31,30.8a10.82,10.82,0,0,0-.09-2.37c-.32-1-.72-.37-.72-.37s-3.88,5.5-3.45,7.65c.27.39.15.37.49.46a10,10,0,0,1,4-.4l-.16.73.37.32.19-.14A5,5,0,0,0,32,39.5c.24.89-.92.4-1,.28a2,2,0,0,0-.31-.62.61.61,0,0,0,.46-.89A1.12,1.12,0,0,0,30,38a2.79,2.79,0,0,0,.24.37,1.12,1.12,0,0,1,.46,0,.56.56,0,0,1-.25.45l-.52-.18a3.12,3.12,0,0,1,.58,1,.65.65,0,0,1-.43.8,2.22,2.22,0,0,0-.43-.24c1,1.28.1,1.56.1,1.56a1.27,1.27,0,0,1-1.2-.15c-.18-1-.6-1.34-.73-2.23-.12-.1-.55,0-.55,0s.34,1.06.64,1.73c.27,1.07-.88,1.42-1.17,1.44s-.21-.43-.21-.43a1.65,1.65,0,0,0-.67-1.82c-.83-.47-1.56,0-1.32,0l1.25.29a.6.6,0,0,1,.31.64c0,.38-.39,1.17.49,1.58s1.63-.54,1.63-.54l0,.22S26.87,43,28,43.77c1,.55.83-1,.83-1s.83-.77,2.36,4.39c0-.39-.06-1.59-.06-1.67-1.13-3.32-2.37-3.12-2.37-3.12s-.06-.31-.08-.49c1.74.72,2-.38,2-.38a1,1,0,0,0-.22-.76.82.82,0,0,0,.63-.76l.82.3s.86.22.46-1.22c-.64-2.3.36-3.22.36-3.22l-.36-.37-.58.32s.11-.25-.28-.52a5.41,5.41,0,0,0,1.43-.43.76.76,0,0,0,.31-1.15c.16.13,1.48,0,.87-1A1,1,0,0,0,35.27,32a3.48,3.48,0,0,0,.28-1c1.8-.58,1.3-2,1.82-3a2.48,2.48,0,0,0,2.24.77,2.94,2.94,0,0,0,1.33-1.22s1.1-2.29.61-2.88M26.73,48.36c-.4-.25.11-.53.11-.53s.09.43-.11.53m1.52,1.25c1.16-.8.15-2.17.15-2.17a1.87,1.87,0,0,0-2.38.49c-.31.61.67.78.67.78s.73.19.7-.7c.13-.67.56-.48.63-.31.63,1.33-.06,1.67-.28,1.7s-.62.05-.62.05a1.78,1.78,0,0,1,.9.47c.85,1-.13,1.27-.34,1.33a41.09,41.09,0,0,0-5,.86c-.09.52.64.4.64.4s-.08-.18,0-.23,4.23-.59,4.61-.69,1.74-.73.32-2m1.3,8.87c-.1-.09-.41-.46-.41-.46l.68,0a.54.54,0,0,1-.27.49m-.63-4.86c1.44-1.25,0-1.88-.41-1.71a5.59,5.59,0,0,0-1,.49l.58.26a.89.89,0,0,1,.61-.35c.61.46,0,.9-.18,1-1.24.55-4.91,1.1-5.45,1.47.64.29.55.23.55.23s4.95-1.22,5.25-1.16c3.06,2.49,1.41,3.55,1.41,3.55a5,5,0,0,0-1-1.13c.71,0,1.05-1.87-.52-1.53-2,.5-3.85,1.07-3.85,1.07l.18-.4-1.62.74.49.37s4.32-1.28,4.8-1.44.95.65.25.89a1.13,1.13,0,0,1-.61-.09s1.44,1.44,1.38,1.8a5.46,5.46,0,0,1-.81.06l-1.21-1h-.77a4.58,4.58,0,0,1,1.86,1.8,1,1,0,0,1-.46.8s-.42.28-.61-.37a1.5,1.5,0,0,0-2.23-.89s-1.06.38-1.06.58,1.61-.55,2-.48c.73.06.52.89,1,1.35.64.64,1.69-.3,1.74-.37-.43,1.72-3.8,1.63-4.4,3a.5.5,0,0,0,.61.18c1.14-1.65,2.44-.8,4-2.48a1.2,1.2,0,0,0,.23-1.13s.92-.36.61-1c.49.06,2.25-2.26-1.41-4.13m1,9.83c-.31.08-.27-.29-.27-.29s.49.2.27.29m-2,0s.26.22.26.34c-.34,0-.26-.34-.26-.34m5.44.24c-3.06-2.65-3.82-1.19-3.82-1.19a1.13,1.13,0,0,0-.86-.28c-1.17.46-1.29,1.2-1.29,1.2s0,1.19,1,.73c.76-.33,0-1-.12-1.19s.12-.33.24-.37.7.29.7.29-.35.57.06.89c1.14.42,1.17-.59,1-.63-.18-.23-.05-.11-.43-.43.17-.32,3.56.62,3.17,2.19-.09.27-.38.54-1.76.75,1.84.25,2.79-1.13,2.09-2"></path><polygon class="cls-1" points="58.17 8.1 57.7 4.94 58.46 5.68 57.7 2.88 58.46 3.36 59.02 0 59.59 3.43 60.34 3.05 59.5 5.63 60.34 5.04 59.87 8.1 59.02 11.47 58.17 8.1"></polygon></g></g></svg>