<svg xmlns="http://www.w3.org/2000/svg" xmlns:xlink="http://www.w3.org/1999/xlink" viewBox="0 0 383.39 139.03"><defs><style>.cls-1{fill:none;}.cls-2{clip-path:url(#clip-path);}.cls-3{fill:#403f68;}.cls-4{fill:#bfb1a2;}.cls-5{fill:#c8c8c8;}.cls-6{fill:#cdcccb;}</style><clipPath id="clip-path"><rect class="cls-1" width="383.39" height="139.03"></rect></clipPath></defs><g id="Layer_2" data-name="Layer 2"><g id="Layer_1-2" data-name="Layer 1"><g class="cls-2"><path class="cls-3" d="M226.36,70.36a4.39,4.39,0,0,0-2.75-2c-1.27,0-1.88.35-1.88,1s.87,1.19,2.6,1.13a7.21,7.21,0,0,0,2-.17m4.17,3.09a11.66,11.66,0,0,1-2.46,8,39.26,39.26,0,0,1-9.84,7.12A30.17,30.17,0,0,1,211,92.06c-.75,0-16.15,4.2-16.81,3.54a11.22,11.22,0,0,1,2.39-1.22c6.6-3,21.42-8.48,30-15.29,1.65-1.27,2.49-2.19,2.49-2.74a2.67,2.67,0,0,0-1.13-1.22,7.93,7.93,0,0,0-3.27-.58c-3.39,0-5.09-1.13-5.09-3.44a7.14,7.14,0,0,1,1.8-4.78c2.77-3.18,5.5-2.2,7.59,1.51a11.93,11.93,0,0,1,1.6,5.61"></path><path class="cls-3" d="M205.69,68.36a15,15,0,0,0-1.07-2.26,18.57,18.57,0,0,1,.47-3.56c.08-.35.2-.55.31-.57.38.14.78,1.09,3.56,3.73.44.43,1.13,1.19.5,1.1a5.59,5.59,0,0,1-1.62-.35c1.88,4.52,3.44,7,2.34,11.32a7.09,7.09,0,0,1-1.33,2.78,40.44,40.44,0,0,1-10.51,7.76A30.4,30.4,0,0,1,190.78,92c-.14,0-2.25.5-6.28,1.48a80.67,80.67,0,0,1-10.21,2.08l-.18,0a12.31,12.31,0,0,1,2.35-1.25c5.9-2.69,13.6-5.5,20.43-9.2a69.59,69.59,0,0,0,9.59-5.94c1.68-1.3,2.49-2.23,2.49-2.78s-2.31-4.68-3.27-8"></path><path class="cls-3" d="M190.35,44.91a8.13,8.13,0,0,0-.64-3.44,13.91,13.91,0,0,1,1.22-3.6c.11-.23.17-.35.26-.35s.2.12.32.35c.23.49.75,1.88,1.62,4.11,1.62,4.17,2.92,7.62-.15,4.05-.11-.17-.2-.08-.2.29,0,0,1.91,26.18,1.91,28.26a23.54,23.54,0,0,1-1.56,8.94c-.75,2-1.1,1.91-.81-.4.43-3.8.12-7.56-.87-21.25q-1.08-15.1-1.1-17m-8.74,23.45c-.87-2.81-1.33-1-.93-3.91a17.16,17.16,0,0,1,.32-1.88c.09-.35.2-.56.29-.58a1.93,1.93,0,0,1,.35.29c2.86,3.59,6.08,5.35,2.11,4.16,1.91,4.58,3.44,7,2.35,11.32a7,7,0,0,1-1.33,2.78,41.25,41.25,0,0,1-10.51,7.76A30.43,30.43,0,0,1,166.7,92c-.14,0-2.26.49-6.31,1.47a77.15,77.15,0,0,1-10.22,2.09l-.17,0c0-.23,3.15-1.62,12.3-5.5,12.54-5.27,22.61-11.75,22.61-13.64,0-.69-2.35-4.72-3.3-8"></path><path class="cls-3" d="M172.46,76.09a18.41,18.41,0,0,0-4-4.89c-1.22,1.3-4.2,6.07-4.2,7.44,0,.86.64,1.27,2,1.27,2.58,0,6.39-3.1,6.25-3.82m2.75-17.72A10,10,0,0,1,173.5,63c-.75,1.25-1.79,2.93-3.24,5,3,3.5,3.36,5.18,3.36,8a8.52,8.52,0,0,1-1.19,4.11,10.74,10.74,0,0,1-6.74,4c-1.71,0-2.52-1.27-2.52-3.79,0-4,1.48-6.75,3.76-10.51a35,35,0,0,1-4.05-5.1c-.17-.17-.58-.57-1.1-1.13a1.49,1.49,0,0,1-.49-1.07,9.22,9.22,0,0,1,.69-3.44,29.49,29.49,0,0,1,5.18,3.51v0c0,.09-.19.14-.72.14A3.33,3.33,0,0,0,165,63c0,.09.12.29.44.6a14.57,14.57,0,0,0,3.44,3.3,70.1,70.1,0,0,0,5.41-8.63c.32-.81.55-1.24.64-1.24s.23.4.23,1.36m-26-10.65a8.15,8.15,0,0,0-.64-3.45,13.91,13.91,0,0,1,1.22-3.6c.11-.23.17-.34.23-.34s.2.14.32.34a76.23,76.23,0,0,1,3.33,9.3c0,.66-.64.29-1.89-1.16-.34-.49-.19.32.76,13.69.64,8.83.95,13.75.95,14.85a23.79,23.79,0,0,1-1.56,9c-.2.54-.78,1.88-.87,1.27s.26-1.8.26-5.73c0-3.4-2.11-31.24-2.11-34.13m-19.34,25L122.1,70.8a16.24,16.24,0,0,1,3-1,50.2,50.2,0,0,0,6.23-2c.78-.26.81-1,.89-1.53.35-1.25-1-16.19-1-18a7.16,7.16,0,0,0-.7-3.44,13.23,13.23,0,0,1,1.28-3.62c.09-.23.17-.35.26-.35s.2.12.32.35c.26.52.78,1.85,1.65,4.08s1.44,3.8,1.62,4.31a6,6,0,0,1,.14.93c0,.64-.6.26-1.91-1.19-.11-.17-.23-.08-.23.26,0,.12.23,2.09.64,7.76s.43,7.7-.12,9.53a10.72,10.72,0,0,1-4.28,5.87"></path><path class="cls-3" d="M156.63,76.29c-1.65,3.07-1.62,3.5-2.15,3.5a46.84,46.84,0,0,0-14.5,1.1,119,119,0,0,1-33.75,6A49,49,0,0,1,88.14,84.2V79.83q5.77,2.78,19.31,2.75a104.37,104.37,0,0,0,31.26-5c-1.51-.18-13.4-3.42-16.18-3.42-1.28,0-1.94-.08-1.94-.32a1.19,1.19,0,0,1,.14-.4l1.33-2.59h7.5c20.12,5.56,27.12,4.37,27.12,5.21l-.06.29Z"></path><path class="cls-3" d="M84.81,77.38A12.86,12.86,0,0,0,88.43,80v4.37a11.2,11.2,0,0,1-7-5.82c-2.4-5.21-.69-25.07-3.93-32.45a11.59,11.59,0,0,1,1-3.4c.14-.34.26-.52.35-.55s.2.18.34.44c3.91,7.44,1,30.3,5.56,34.82M73.29,68.43a14.16,14.16,0,0,0-1.07-2.26,18.36,18.36,0,0,1,.46-3.54c.09-.35.2-.55.31-.58a1.12,1.12,0,0,1,.32.29c2.84,3.5,6.11,5.39,2.12,4.17a23.77,23.77,0,0,1,2.75,8.68,9.85,9.85,0,0,1-1.74,5.41,41.25,41.25,0,0,1-10.51,7.76,30.46,30.46,0,0,1-7.55,3.71c-.79,0-13.81,3.56-16.53,3.56l-.18,0A113.63,113.63,0,0,1,54,90.1c13.17-5.53,22.61-11.84,22.61-13.63a25.31,25.31,0,0,0-1.27-3,35.85,35.85,0,0,1-2-5"></path><path class="cls-3" d="M40.35,85.26V80.9c3.56.08,9.81-2.64,14.18-4.4L46.34,74a1.06,1.06,0,0,0-.87.35,1.17,1.17,0,0,1-1,.29c-6.71-.47-6.59-.18-6-1.45,1.24-2.11,1.39-3.1,2.19-3.3a44.55,44.55,0,0,1,6-.38c.09,0,1.73.55,5,1.63A61,61,0,0,0,65.5,74.56c4.58.81,4.58.6,4.9.72.11.06.11.24-.09.53L68.8,78.59c-.69,1.53-4.19-1.8-14,1.7-2.54,1.13-5.09,2.17-7.64,3.25a18.06,18.06,0,0,1-6.77,1.73"></path><path class="cls-3" d="M40.55,85.26a4.92,4.92,0,0,1-5.15-4.59,8.86,8.86,0,0,1-2.46,3,8.36,8.36,0,0,1-5.6,2.29V81.59a9.25,9.25,0,0,0,6.14-2c.29-.18,3.41-3.8,3.68-3.85s.28.17.28.43a1.6,1.6,0,0,1,0,.49c-.76,2.72.26,4.26,3.12,4.23l0,4.34Z"></path><path class="cls-3" d="M27.55,85.93a13.62,13.62,0,0,1-3.18-.26,6.16,6.16,0,0,1-3.5-2.75c-.58-1-1.16-2-1.74-3s-1-1.22-1.56-1.28c-1.62.06-3.36,1.45-5.12,4.2a38.74,38.74,0,0,0-1.74,3.89,26.14,26.14,0,0,1-2.14,4.54,3.84,3.84,0,0,1-3,2.14c-1.62,0-2.95-1.27-4.05-3.76A17.23,17.23,0,0,1,0,82.81C0,78.24,1,75,1.36,75s-.26,2.54-.26,5.79C1.1,86.92,2.5,90,5.33,90c1.13,0,2.17-.87,3.12-2.66,1-2.15,1.91-4.29,2.93-6.4,1.18-2.39,4-6.34,6.65-6.45A2.84,2.84,0,0,1,20.23,76c2.35,3.8,3.19,5.62,7.35,5.62l0,4.34Zm8.66,6.54c.06-.06.06-.11,0-.26,1.3-2.52,1.4-3,1.68-3.07a17.86,17.86,0,0,1,3.53,2.43,8.05,8.05,0,0,1-1.48,3c-.26.55-.2,0-3.73-2.14m-11.29-.93c1.22-2.43,1.16-2.52,1.4-2.55a17.58,17.58,0,0,1,3.53,2.46,8.09,8.09,0,0,1-1.48,3.1c-.11.2-.23.23-.37.15-1-.7-2-1.45-3.24-2.26a14.37,14.37,0,0,1-1.22,2.29c-.09.23-.2.26-.35.14-1.07-.81-2.2-1.56-3.36-2.31.06,0,.06-.15,0-.27,1.19-2.31,1.36-3,1.65-3.09a7.73,7.73,0,0,1,1.62,1,14.76,14.76,0,0,1,1.83,1.4M13.66,60.8c1.24-2.43,1.16-2.52,1.4-2.55a18,18,0,0,1,3.53,2.46,8.1,8.1,0,0,1-1.45,3.1c-.11.2-.23.23-.37.12-1-.7-2-1.45-3.25-2.26A14.32,14.32,0,0,1,12.31,64c-.09.23-.2.26-.35.14-1.07-.81-2.2-1.56-3.36-2.31.06,0,.06-.15,0-.26,1.16-2.29,1.33-3,1.65-3.1a22.41,22.41,0,0,1,3.42,2.37m105.42-1.56c.06-.06.06-.14,0-.26,1.25-2.38,1.36-3,1.68-3.07a17.72,17.72,0,0,1,3.53,2.4,8.17,8.17,0,0,1-1.44,3.07c-.29.54-.23,0-3.77-2.15m82.56-5c.06,0,.06-.14,0-.25,1.3-2.49,1.4-3,1.68-3.07a17.44,17.44,0,0,1,3.53,2.43,8.41,8.41,0,0,1-1.48,3.07c-.26.55-.17,0-3.73-2.18m-34.92-2.42c1.24-2.49,1.16-2.52,1.4-2.55a16.92,16.92,0,0,1,3.53,2.46,8.56,8.56,0,0,1-1.45,3.1c-.11.2-.23.23-.37.14-1-.69-2-1.44-3.25-2.25A16.4,16.4,0,0,1,165.41,55c-.09.2-.23.26-.38.15-1.07-.81-2.2-1.56-3.36-2.32.06,0,.06-.11,0-.26,1.16-2.26,1.34-3,1.65-3.09a7.73,7.73,0,0,1,1.62.95,21.11,21.11,0,0,1,1.8,1.4m32.51-6.66c12.91-4.69,15.51-5.7,15.69-5.7s.06.17,0,.35a2.83,2.83,0,0,1-.58,1c-4.46,1.62-9.73,3.65-15.75,6,.18-.49.38-1,.67-1.68M67.91,92.62c12.38-4.52,15.51-5.7,15.69-5.7s.05.17,0,.34a2.88,2.88,0,0,1-.58,1c-4.46,1.65-9.73,3.64-15.75,6a12.25,12.25,0,0,1,.67-1.68M211.14,46.33c4.92-1.8,10.94-3.65,16.24-5.59a3.53,3.53,0,0,0,.34-.12c.06.06.06.18,0,.35a2.5,2.5,0,0,1-.58,1c-4.45,1.65-10.65,3.65-16.67,6a17.16,17.16,0,0,1,.67-1.68M87.33,56.75c9.81-3.56,36-13.35,36.3-13.35.06.06.06.18,0,.32a3.23,3.23,0,0,1-.58,1C118.57,46.38,92.69,56,86.66,58.43a12.25,12.25,0,0,1,.67-1.68m-64.61-.2C30.47,53.74,58.79,43.2,59,43.2c0,.06,0,.18,0,.32a3.41,3.41,0,0,1-.55,1C54,46.19,28.1,55.83,22.08,58.2a9.68,9.68,0,0,1,.63-1.65M172.34,46.33c11.9-4.34,15.55-5.7,15.69-5.7s.06.17,0,.35a3.31,3.31,0,0,1-.55,1q-6.72,2.48-15.74,6a6.6,6.6,0,0,1,.6-1.68m-132.2-.76.12-.14.06,0v.2c-.35,1.85-.93,2.78-1.71,2.78s-1.24-.7-1.27-2.06a12,12,0,0,1,1.5-5.33c.26-.43.4-.69.44-.72l0,0a28.8,28.8,0,0,0-1.25,4.83c0,1.08.32,1.6.9,1.6.35-.06.75-.43,1.18-1.21M91.38,70.77l.12-.15,0,0v.2c-.34,1.86-.92,2.78-1.7,2.78s-1.25-.69-1.28-2a12,12,0,0,1,1.51-5.33l.43-.72,0,0a28.53,28.53,0,0,0-1.24,4.83c0,1.07.31,1.56.89,1.56.38,0,.76-.4,1.19-1.19M144.13,60l.11-.14.06,0v.2c-.35,1.85-.93,2.75-1.71,2.75s-1.24-.67-1.24-2.06a11.82,11.82,0,0,1,1.5-5.32c.26-.44.4-.7.44-.73l0,0a30.84,30.84,0,0,0-1.24,4.83c0,1.07.32,1.57.9,1.57.31,0,.72-.4,1.15-1.16m83.57-4.42.11-.15h.06v.2c-.35,1.85-.93,2.78-1.71,2.78s-1.24-.69-1.27-2.06a12,12,0,0,1,1.5-5.32c.27-.44.4-.7.44-.73l0,0a27.75,27.75,0,0,0-1.25,4.84c0,1.07.32,1.56.9,1.56.38,0,.75-.38,1.19-1.16M19.42,43.06c1.91,0,2.87,2.75,3.18,4.63a1,1,0,0,1,0,.23h.09s0-.08.06-.26a38.46,38.46,0,0,1,.87-3.79c.49-1.19,1-1.8,1.59-1.8s1.31,1,1.31,1.42a1.43,1.43,0,0,1-.15.64c-.11.37-.26.55-.38.52s-.2-.12-.43-.47a.88.88,0,0,0-.67-.49c-1.21,0-1.41,6.69-2.51,6.69-.09,0-.15-.14-.15-.4a7.37,7.37,0,0,0-.72-2.52c-.47-1.21-.81-1.85-1-1.85l-.26.12c0,.08-.15.14-.35.11a2,2,0,0,1-1.4-1.24,3.45,3.45,0,0,1,.46-.87c.23-.44.4-.67.47-.67m43.94,4.17c1.91,0,2.86,2.78,3.18,4.63a1,1,0,0,1,0,.24h.08a1.17,1.17,0,0,1,.09-.24c.12-.84.43-2.08.87-3.79.46-1.19,1-1.8,1.6-1.8a1.19,1.19,0,0,1,.89.58,1.31,1.31,0,0,1,.26,1.5c-.43,1.4-.78-.37-1.5-.43-1.25,0-1.45,6.69-2.52,6.69-.09,0-.12-.15-.14-.4a7.38,7.38,0,0,0-.73-2.52c-.46-1.22-.81-1.85-1-1.85l-.26.11c0,.09-.15.15-.35.12a2,2,0,0,1-1.4-1.25,4.11,4.11,0,0,1,.44-.86c.26-.47.43-.73.49-.73m72.77,40.18c1.91,0,2.87,2.75,3.19,4.63a1.79,1.79,0,0,1,0,.23h.06l.09-.26c.12-.84.43-2.08.87-3.79.46-1.19,1-1.8,1.6-1.8s1.27,1,1.27,1.44a1.43,1.43,0,0,1-.15.64c-.23.75-.46.64-.83.09a.87.87,0,0,0-.67-.49c-1.25,0-1.42,6.68-2.52,6.68-.09,0-.15-.14-.15-.39a7.15,7.15,0,0,0-.72-2.52c-.46-1.22-.81-1.86-1-1.86l-.26.12c0,.09-.14.15-.35.12a2,2,0,0,1-1.4-1.25,5.78,5.78,0,0,1,1-1.6M108.53,66.62a7.44,7.44,0,0,1-2.63,3,20.53,20.53,0,0,1-6.66,3.25,1.71,1.71,0,0,1-.67.14l-.08,0c.08-.32.86-.43,7.84-5a8.15,8.15,0,0,0,1.77-1.65,6,6,0,0,1,.86-.89l0,0a5,5,0,0,1-.46,1.12m4.2-7.38c0,.32-.24,1.22-.55,1.16-.35.15-1.42-3.6-2.55,2.87a8.19,8.19,0,0,1-.64,2.31c-.29.55-.58.67-.58.06a8.3,8.3,0,0,0-.72-2.43c-.46-1.22-.84-1.83-1-1.85l-.26.14c0,.09-.15.12-.38.12a2.06,2.06,0,0,1-1.4-1.25,8,8,0,0,1,1-1.62c1.91,0,2.87,2.72,3.19,4.6a1.09,1.09,0,0,1,0,.26h0c.18-.12-.08-.2,1-4,.64-1.47,1.53-2.49,2.52-1.18a1.44,1.44,0,0,1,.35.84m-76.25,3.3c0,1-.52,2.64-1.57,2.64-.75,0-1.33-.53-1.65-1.6-.34,1.21-1,1.82-2,1.82a1.3,1.3,0,0,1-1-.52,2.67,2.67,0,0,1-.44-1.62c-.06-1.65.15-1.68-.23-1.8a.48.48,0,0,1-.26-.43,1.93,1.93,0,0,1,.4-1c.26-.28.43-.43.55-.43s.29.35.26,1c0,.35,0,1.22,0,1.54,0,.69.35,1.62.93,1.62a1.32,1.32,0,0,0,1-.47c1-.87.17-2.08,0-3.39,0-.09.09-.29.2-.58a2.75,2.75,0,0,1,.26-.4c.35.06.76,2.49.76,3,0,1.1.43,1.65,1.27,1.65a.65.65,0,0,0,.69-.55,6.31,6.31,0,0,1-1.1-2.9,1.71,1.71,0,0,1,.67-1.33c.11,0,.14.82.32,1.28,0,0,.23.49.59,1.33a2.84,2.84,0,0,1,.38,1.16m55.06-12.3c-.12.31-.2.46-.32.46s-.14-.2-.06-.6a7,7,0,0,0-2.95-6.78.4.4,0,0,1-.06-.43l.58-1H89a7.28,7.28,0,0,1,3,6.08,5.9,5.9,0,0,1-.44,2.31m12.76-5.73a4.52,4.52,0,0,1-.81,2.26A7.58,7.58,0,0,1,101.32,49a1.44,1.44,0,0,1-.6.37l0,0c.12-.32,2.64-2.7,2.64-3.77,0-.49-.2-.75-.7-.75s-.84.4-1,.4l-.12-.06c.09,0,.06-2,1.68-2,.7,0,1.07.5,1.07,1.36M55.51,57.26a5.27,5.27,0,0,1-1,2.75,9,9,0,0,1-2.6,2.72,1.68,1.68,0,0,1-.75.46l0,0c.17-.44,3.21-3.3,3.21-4.58,0-.6-.26-.92-.84-.92a1.38,1.38,0,0,0-.87.29c-.2.14-.29.19-.34.19l-.12-.08c.09-.06.09-2.43,2.06-2.46.86,0,1.3.58,1.3,1.65M125,90.74a4.23,4.23,0,0,1-1.56,1.94,7.4,7.4,0,0,1-2.84,1.5,1.78,1.78,0,0,1-.72.18v0c.2-.24,3.47-1.83,3.82-2.84.15-.49,0-.81-.43-1a1.79,1.79,0,0,0-1.1.08l-.09-.08c.06,0,.09-.15.2-.38a1.78,1.78,0,0,1,2.11-1.07c.7.26.9.81.6,1.68M8.25,45.55a1.74,1.74,0,0,1,.14-1.71,1.2,1.2,0,0,1,.93-.37,6.3,6.3,0,0,1,4.28,3.39l.06.29a3.18,3.18,0,0,1-.4,1.45c-.26.52-.49.78-.75.78a18.82,18.82,0,0,1-2.12-.23,14.71,14.71,0,0,1-5.73,4.51,34.58,34.58,0,0,1-4,1.51l-.09,0c.2-.55,6.63-3.59,9.15-6-1.33-.26-2-.81-2-1.65a4.89,4.89,0,0,1,.55-1.91m2.09,2c.17-.64,0-1.65-.64-1.71a1.38,1.38,0,0,0-.7.43c-.31.26-.43.47-.43.58,0,.35.58.58,1.77.7m2.54,0A3.34,3.34,0,0,0,11.17,46a5.7,5.7,0,0,1-.23,1.74c1.22.2,2.12.26,2,.26.06-.09,0-.2-.06-.4m150.65-3.85c-1.19-.6-1.8-1.28-1.8-1.94a3,3,0,0,1,1.16-2.26c.78-.67,1.4-.93,1.91-.75s.64.63.64,1.4a7.1,7.1,0,0,1-.44,2.28,3.84,3.84,0,0,1,1.13.87,3.56,3.56,0,0,1-.81,1.65,4,4,0,0,0-1.1-.9,10.13,10.13,0,0,1-2.58,2.52A21,21,0,0,1,155,49.81a2.34,2.34,0,0,1-.64.18l-.09,0c.2-.6,6.86-3.62,9.27-6.25m.75-1.68c.2-.64.17-1.74-.49-1.74-.26,0-1,.32-1,.58s.5.7,1.45,1.16"></path><path class="cls-3" d="M321.81,36.29l.06,0,.08.09-.14-.06Zm-7.18-21.07,0,.28h-.06Zm-7.28,21.13.09-.09.05,0Zm31.15.31a25.43,25.43,0,0,0-4.11-4.56s1-.26,1.32.11a9.36,9.36,0,0,0-5-3,10.46,10.46,0,0,1,2.4-.62,28.23,28.23,0,0,0-7.8-1.72s.54-.79.88-.93a13.45,13.45,0,0,0-3.77-.56,1.78,1.78,0,0,0-.29-.12,24.87,24.87,0,0,1,6.73.23,4,4,0,0,0-.78-.9,13,13,0,0,1,4.84,1.07s-.28-.76-.6-.87c0,0,.67-.17,5.24,1.77a.46.46,0,0,0-.23-.53s1-.51,4.87.61c0,0-.25-1-3.46-2.81a2.3,2.3,0,0,1,1.49-.48,26.84,26.84,0,0,0-6.39-1.89s.9-.76,1.35-.62a9.93,9.93,0,0,0-6-.11,5.93,5.93,0,0,1,1.35-1.6,20.39,20.39,0,0,0-7.26,2.2,4.35,4.35,0,0,1,.2-1.24,23.33,23.33,0,0,0-3.89,1.66,8,8,0,0,1,2.74-1.46,5.41,5.41,0,0,0-1.27-.06A30.78,30.78,0,0,1,326.43,18a6.72,6.72,0,0,0-1.16-.43,21.71,21.71,0,0,1,4.37-.81,2.53,2.53,0,0,0-.68-.54,45.7,45.7,0,0,1,4.82-.31,1.48,1.48,0,0,0-.51-.42,12,12,0,0,1,4.37-1s-.43-1-4.09-1a1.72,1.72,0,0,1,1-1,23.52,23.52,0,0,0-6,.73s.33-1,.79-1a9.23,9.23,0,0,0-4.82,2,3.43,3.43,0,0,1,.45-1.55,13.32,13.32,0,0,0-4.73,4.12,3.14,3.14,0,0,1-.42-1.1,9,9,0,0,0-2.2,2.53,3.33,3.33,0,0,0-.93.28,20.5,20.5,0,0,1,3.35-3.79,1.85,1.85,0,0,0-1-.2,33.54,33.54,0,0,1,3.21-2.24s-.6-.17-.85,0c0,0,.29-.65,4.09-2.31a1.84,1.84,0,0,0-.74,0s.43-1,3.33-2.67c0,0-.93-.48-4.06.73a1.88,1.88,0,0,1,.54-1.24,21,21,0,0,0-4.71,2.7s-.17-.75.17-1c-1.15.7-1.49.87-3.18,3.52a4,4,0,0,1-.31-1.72A10.46,10.46,0,0,0,314.71,15a10.33,10.33,0,0,0-1.89-4.87,4.6,4.6,0,0,1-.31,1.72c-1.69-2.65-2-2.8-3.18-3.52.33.2.16,1,.16,1a20.49,20.49,0,0,0-4.7-2.7,1.76,1.76,0,0,1,.51,1.24c-3.13-1.21-4.06-.73-4.06-.73,2.9,1.72,3.33,2.67,3.33,2.67a1.84,1.84,0,0,0-.74,0c3.8,1.66,4.09,2.31,4.09,2.31a1.53,1.53,0,0,0-.85,0,32.24,32.24,0,0,1,3.21,2.23,1.7,1.7,0,0,0-1,.2,18.77,18.77,0,0,1,3.38,3.79,3.33,3.33,0,0,0-.93-.28,9.45,9.45,0,0,0-2.22-2.54c.05.31-.43,1.1-.43,1.1a13.11,13.11,0,0,0-4.73-4.11,3.86,3.86,0,0,1,.46,1.55,9.22,9.22,0,0,0-4.82-2c.45.06.79,1,.79,1a23.13,23.13,0,0,0-6-.73,1.68,1.68,0,0,1,1,1c-3.66.05-4.08,1-4.08,1a12.88,12.88,0,0,1,4.36,1,1.36,1.36,0,0,0-.5.42,43,43,0,0,1,4.81.31,2.7,2.7,0,0,0-.68.54,21.58,21.58,0,0,1,4.37.81A6.3,6.3,0,0,0,303,18a30.72,30.72,0,0,1,5.37,2.23,5.33,5.33,0,0,0-1.26.06,7.65,7.65,0,0,1,2.76,1.46A22.17,22.17,0,0,0,305.94,20a4,4,0,0,1,.2,1.24,20.39,20.39,0,0,0-7.26-2.2,6.31,6.31,0,0,1,1.35,1.6,9.93,9.93,0,0,0-6,.11c.45-.14,1.35.62,1.35.62a27.45,27.45,0,0,0-6.39,1.89,2.43,2.43,0,0,1,1.49.48c-3.21,1.79-3.46,2.84-3.46,2.84,3.85-1.13,4.87-.62,4.87-.62a.45.45,0,0,0-.23.53c4.56-2,5.27-1.77,5.27-1.77-.34.11-.62.87-.62.87a13,13,0,0,1,4.84-1.07,4.22,4.22,0,0,0-.79.9,24.89,24.89,0,0,1,6.73-.22,2.74,2.74,0,0,1-.28.11,13.35,13.35,0,0,0-3.77.57,4,4,0,0,1,.87.92,28.81,28.81,0,0,0-7.83,1.72,11.6,11.6,0,0,1,2.4.62,9.38,9.38,0,0,0-5,3c.28-.34,1.32-.09,1.32-.09a25.43,25.43,0,0,0-4.11,4.56,2.57,2.57,0,0,1,1.72-.28c-1.86,3.24-1.6,4.45-1.6,4.45,2.45-2.87,3.8-3.18,3.8-3.18a1,1,0,0,0,.14.79c2.5-3.92,3.29-4.2,3.29-4.2-.2.25,0,.93,0,.93A23.28,23.28,0,0,1,301.85,32a7.45,7.45,0,0,0-.2,1.24,13.14,13.14,0,0,1,3.07-2.17c.43.14.88.37,1,.42v0a13.38,13.38,0,0,0-6.06,3.83,6.33,6.33,0,0,1,2.17-.05c-2.82,2.33-3.07,2.89-3.63,4.33.17-.42,1.29-.53,1.29-.53a23.37,23.37,0,0,0-2.28,5.77,2.75,2.75,0,0,1,1.55-.85c-.7,3.69.23,4.45.23,4.45,1.38-3.52,2.33-4.11,2.33-4.11a.75.75,0,0,0,.4.62c1.1-4.53,1.55-4.79,1.55-4.79-.08.31.48.81.48.81a23.91,23.91,0,0,1,2.06-4,2.8,2.8,0,0,0,.08.64,12.26,12.26,0,0,0-2.2,3.52,5.66,5.66,0,0,1,1.83-.81c-1.38,3-1.29,3.32-1.21,4.7,0-.4.82-.73.82-.73a17.86,17.86,0,0,0,.56,5.4,2.07,2.07,0,0,1,.85-1.18c.93,3.24,2,3.69,2,3.69a7.46,7.46,0,0,1,.33-4.31,1.75,1.75,0,0,0,.51.57c-1-4.06-.53-4.68-.53-4.68.05.28.6.65.6.65a23.56,23.56,0,0,1,0-3.94,2.41,2.41,0,0,0,.84.65,18.26,18.26,0,0,1,1.36-5,3.05,3.05,0,0,0,.45,1.07,6.16,6.16,0,0,1,.73-2.45l-1,46.43s-4.29,2.2-5.16,5.13h16.12c-.62-3-5.13-5.13-5.13-5.13l-.95-46.77a7.43,7.43,0,0,1,.9,2.8,3.48,3.48,0,0,0,.45-1.07,18.25,18.25,0,0,1,1.35,5,2.26,2.26,0,0,0,.82-.65,25.91,25.91,0,0,1,0,3.94s.53-.37.6-.65c0,0,.42.62-.54,4.68a1.87,1.87,0,0,0,.48-.57,7.92,7.92,0,0,1,.34,4.31s1.07-.45,2-3.66a2.1,2.1,0,0,1,.84,1.18,18.19,18.19,0,0,0,.57-5.4s.84.33.81.73c.12-1.38.17-1.72-1.18-4.7a5.48,5.48,0,0,1,1.83.81,11.85,11.85,0,0,0-2.2-3.52,6.26,6.26,0,0,0,.09-.65,31.47,31.47,0,0,1,2.06,4s.59-.48.48-.82c0,0,.44.23,1.54,4.8,0,0,.43-.26.4-.62,0,0,1,.6,2.31,4.11,0,0,.93-.76.23-4.45a2.72,2.72,0,0,1,1.55.85,23.59,23.59,0,0,0-2.28-5.78s1.12.12,1.29.54c-.6-1.44-.84-2-3.63-4.34a5.87,5.87,0,0,1,2.17.06,13.35,13.35,0,0,0-6.06-3.83v0c.14-.06.6-.28,1-.42a12.74,12.74,0,0,1,3.07,2.17,6.42,6.42,0,0,0-.2-1.24,23.35,23.35,0,0,1,3.6,3.21s.2-.68,0-.93c0,0,.79.28,3.29,4.19a.94.94,0,0,0,.14-.78s1.36.31,3.8,3.18c0,0,.25-1.21-1.6-4.45-.2-.09.85-.28,1.52.2"></path><path class="cls-4" d="M333.61,128.15a27.13,27.13,0,0,1-18.05,6.76,28.05,28.05,0,0,1-14.76-4.28l-5.79-2.8a28.92,28.92,0,0,0,40.9.26,28.34,28.34,0,0,0,3.11-3.64l-5.4,3.69ZM283,72.59a19.68,19.68,0,0,1,19-14.38l4.28-1.07a21.22,21.22,0,0,0-25.05,16.53,21.51,21.51,0,0,0-.35,2.39L283,72.6Zm38.24-15.82A19.78,19.78,0,0,1,342,67.61l2.79,3.12a21.25,21.25,0,0,0-26.07-15c-.55.15-1.1.32-1.64.51l4.14.48Zm30.1,26.16a19.67,19.67,0,0,1,.45,22l-1.4,4.17a21.16,21.16,0,0,0-.21-29.93l-.39-.37Zm-70.91,29.68a19.63,19.63,0,0,1-4.31-21.12l.62-4.45a21.15,21.15,0,0,0,5.89,29.33l.05,0-2.25-3.8Z"></path><path class="cls-3" d="M317.56,56.31c.21,0,.41,0,.62.06a4.34,4.34,0,0,0-.62-.06m9.52-2.62a21.24,21.24,0,0,0-10.14,2.57c.73.05.87.05.08,0A21.25,21.25,0,0,1,344.23,69c.2.55.38,1.11.53,1.67l-.06,0A38,38,0,0,1,348.28,76a21.21,21.21,0,0,0-20.1-22.25l-1.11,0m-5.86,3.07c-.11,0-.25,0-.36-.06a38.4,38.4,0,0,1,21.26,11L342,67.6a19.78,19.78,0,0,0-20.78-10.84"></path><path class="cls-3" d="M349.77,78.89l0-.08Zm2,26.05a19.61,19.61,0,0,0-.45-22,38.78,38.78,0,0,1,.28,22.58c.06-.19.12-.36.17-.55Z"></path><path class="cls-3" d="M349.74,78.81a21.12,21.12,0,0,1,1,29.85l-.44.45,0-.11a37,37,0,0,1-4,7.38,21.1,21.1,0,0,0,3.35-37.56Z"></path><path class="cls-3" d="M339,124.49h0a28.93,28.93,0,0,1-40.4,6.46,29.31,29.31,0,0,1-3.59-3.08h0a36.64,36.64,0,0,1-5.32-3.78,28.17,28.17,0,0,0,49.7.06l-.42.34m-23.43,10.45a27.25,27.25,0,0,0,18.05-6.76,38.71,38.71,0,0,1-32.81,2.48,27.91,27.91,0,0,0,14.76,4.28M275.37,93.65a19.65,19.65,0,0,0,5,19l.08.16a38.21,38.21,0,0,1-4.39-21.29c-.26.71-.51,1.44-.71,2.17m5.52,19.83.68,1.18-.68-1.18m-7-20.22a21.32,21.32,0,0,1,2.82-6.2v.06a38.61,38.61,0,0,1,2.7-8.33,21.09,21.09,0,0,0,3.27,37.64,21.13,21.13,0,0,1-8.79-23.17M302,58.17a19.72,19.72,0,0,0-19,14.39c-.12.14-.2.28-.31.42a38.43,38.43,0,0,1,19.68-14.84l-.08,0H302m10.22-1.92a21.28,21.28,0,0,0-31.4,19.83c.37-.62.28-.53.06-.08a21.21,21.21,0,0,1,23-19.27,21.48,21.48,0,0,1,2.39.34l-.14,0a41.36,41.36,0,0,1,6.08-.84M281.06,75.57c.09-.16.2-.33.28-.5-.08.16-.2.33-.28.5m0,.06.06-.08Z"></path><path class="cls-3" d="M346.2,123.36a2.6,2.6,0,1,1,2.13-3,2.09,2.09,0,0,1,0,.43,2.38,2.38,0,0,1-2.17,2.56m-21.29-7.15c4.28-2,8.73-13.91,14.22-12.47-4.53,2.61-9.6,14.72-14.22,12.47m-20.69,0c-4.62,2.25-9.69-9.86-14.23-12.47,5.52-1.44,9.94,10.47,14.23,12.47M283,123.36a2.6,2.6,0,1,1,2.14-3,3.11,3.11,0,0,1,0,.43,2.37,2.37,0,0,1-2.17,2.56M342.49,117a19.78,19.78,0,0,1-6.64-5.86,22.68,22.68,0,0,1,5.85-6.34c4.65-3.29-4.08-4.28-6.61-2.64s-1.86,1.26-4.57,3.24a118.18,118.18,0,0,0-12.25-10.76,101.86,101.86,0,0,1,46.1-19.12c-18.5-2.68-37.11,7.23-49.79,16.36-12.67-9.13-31.31-19-49.81-16.36A102.46,102.46,0,0,1,310.9,94.67a121.86,121.86,0,0,0-12.28,10.76c-2.7-2-1.94-1.52-4.56-3.24s-11.27-.65-6.62,2.64a22.16,22.16,0,0,1,5.86,6.34,19.72,19.72,0,0,1-6.65,5.86c-8.81-3.27-10.16,7.35-5.35,9.26a7.73,7.73,0,0,0,8.08-1.94l8.2-8.39a28.7,28.7,0,0,0,3.66,2.28c7.15,2,4.95-3.1,4.39-4.11a50.21,50.21,0,0,0-3.32-4.23,93.05,93.05,0,0,1,12.22-12.33,90.69,90.69,0,0,1,12.22,12.33,45.08,45.08,0,0,0-3.32,4.23c-.54,1-2.73,6.08,4.39,4.11a28.7,28.7,0,0,0,3.66-2.28l8.19,8.39a7.75,7.75,0,0,0,8.09,1.94c4.92-1.91,3.57-12.56-5.27-9.26"></path><path class="cls-5" d="M9.52,108.05l-3.44,8.3H5.7l-3.44-8.1c.11,7.29-.55,7.64,1.39,7.79v.35H.47V116c1.13-.11,1.24-.35,1.24-1.1v-6.48c0-.81-.4-.9-1.21-1v-.37H4l2.75,6.45,2.75-6.45h3.4v.34c-1.07.09-1.19.35-1.19,1.25.09,7.73-.43,7,1.19,7.29v.35H8.32V116c1.28-.11,1.16-.43,1.22-1v-6.91Zm5.39,7v-6.59a.78.78,0,0,0-.43-.81,2.4,2.4,0,0,0-.84-.15v-.37h4.81v.34c-1.16.06-1.31.4-1.31,1V115c0,.44.12.7.4.81a2.48,2.48,0,0,0,.93.18v.34H13.66V116c1.1-.09,1.25-.38,1.25-1m7.24-7.93L26.92,113c-.09-3.68.26-4.86-.4-5.27l-.29-.12v0l-.58-.09v-.35h3v.35c-.93.14-1.07.35-1.07,1.1v8h-.38L21,109.2c.12,6.4-.52,6.6,1.31,6.84v.34h-3.1V116c1.1-.15,1.19-.4,1.19-1.11v-6.48c-1-1.16-1.05-.9-1.16-1v-.35Zm8.53,7.93v-6.59c0-.81-.52-.9-1.27-1v-.37h4.81v.35c-1.16,0-1.31.4-1.31,1V115c0,.44.12.7.4.82a2.69,2.69,0,0,0,.93.17v.35h-4.8V116c1.07-.09,1.24-.38,1.24-1m10.71-5.18H41c-.4-1.33-1.24-2.52-2.63-2.52a1.37,1.37,0,0,0-1.42.82,1.5,1.5,0,0,0-.09.52c0,.81.67,1.18,1.42,1.53l2,1a2.77,2.77,0,0,1,1.2,3.73,2.72,2.72,0,0,1-.94,1.05,4.58,4.58,0,0,1-3.94.26c-.49-.17-.78-.26-1,.23l0,.09h-.4v-3.36h.4c.38,1.6,1.16,2.93,2.81,2.93a1.5,1.5,0,0,0,1.18-2.64v0c-1.15-.89-4.19-1.36-4.22-3.82s2.23-3.27,4.59-2.49c.49.2.81.26,1-.2l0-.11h.4l0,3Zm4.75,4.89v-7.2a2.6,2.6,0,0,0-2.2.92v0a3,3,0,0,0-.46,1.36h-.4l.06-2.75h8.22l0,2.75H51a2.33,2.33,0,0,0-2.31-2.33,1.83,1.83,0,0,0-.33,0c.06,6.74-.17,7.84.26,8.22h0a2.35,2.35,0,0,0,1.07.26v.35H44.82V116a2.08,2.08,0,0,0,1.16-.32,1.87,1.87,0,0,0,.17-1m9.61-6.59v3.48c1.71,0,2.49-.29,2.49-2,0-1-.29-1.62-.87-1.85v0c-.35-.15-1.33-.26-1.53.06a.78.78,0,0,0-.09.37m6,7.88v.34H59l-2.84-4.28h-.38c.09,3.53-.38,3.74,1.22,3.94v.35H52.32v-.35c1-.12,1.13-.35,1.18-.81v-6.49c0-1-.26-1.18-1.18-1.24v-.38h4.39c2.06,0,3.3.55,3.74,1.62a2.18,2.18,0,0,1-.47,2.32,4.72,4.72,0,0,1-1.53.78l2.75,3.91a.66.66,0,0,0,.55.29m10-8.92v.35a1.19,1.19,0,0,0-.92.52l-2.64,4.26c0,1.76-.14,3.15.24,3.5h0a2.41,2.41,0,0,0,1,.26v.35H64.67V116c1.62-.14,1.22-.4,1.27-3.27l-2.49-4.54a1.44,1.44,0,0,0-1.1-.76v-.31h4.58v.34c-.27,0-1,0-1.11.32l0,.09a22.88,22.88,0,0,0,2,4c1.51-2.6,2.7-4,1.68-4.29a4,4,0,0,0-.78-.11v-.32Zm9.47.26c-2.06,0-2.46,2.46-2.46,4.55s.4,4.25,2.43,4.25,2.43-2.31,2.43-4.31a5,5,0,0,0-1.27-4.11,1.85,1.85,0,0,0-1.13-.38m0-.46c6.31,0,6.48,9.69-.06,9.69a4.85,4.85,0,0,1-.13-9.69.61.61,0,0,1,.19,0"></path><path class="cls-5" d="M94.71,107.12v2.75h-.32a4,4,0,0,0-.6-1.53c-.08-.06-.43-.75-2.52-.75-.78,0-.87.23-.87.63v3.18a1.79,1.79,0,0,0,1.6-.6,3,3,0,0,0,.49-1.41h.35V114h-.35c-.2-1.65-.78-2.09-2.08-2.12.11,3.85-.52,4.06,1.51,4.17v.35H87v-.35c.6-.06,1-.17,1.08-.35a1,1,0,0,0,.11-.63v-6.6c0-.43-.11-.69-.4-.81a2.46,2.46,0,0,0-.81-.14v-.4Zm12.13,0v2.75h-.32c-.29-1.27-.69-1.65-.64-1.56a3.27,3.27,0,0,0-2.48-.72c-.76,0-.87.2-.87.63v3.18a1.87,1.87,0,0,0,1.62-.6,3.22,3.22,0,0,0,.49-1.41H105V114h-.38c-.2-1.65-.78-2.09-2.11-2.12.11,3.88-.53,4.06,1.5,4.17v.35H99.08v-.35c.58-.06,1-.17,1.07-.35a1.36,1.36,0,0,0,.15-.63v-6.6c0-.78-.4-.92-1.22-.95v-.4Zm6.34.26c-2.06,0-2.46,2.49-2.46,4.55s.44,4.25,2.43,4.25,2.43-2.31,2.43-4.31-.46-4.49-2.39-4.49m0-.46a4.89,4.89,0,1,1-4.93,4.86,4.7,4.7,0,0,1,1.48-3.6,5,5,0,0,1,3.45-1.27m9.49,1.25v3.47c1.71,0,2.52-.29,2.52-2,0-1-.29-1.62-.9-1.85l0,0c-.34-.14-1.3-.26-1.5.06a1,1,0,0,0-.09.38m6,7.87v.35h-2.81L123,112.1h-.38c.09,3.5-.4,3.73,1.22,3.93v.35h-4.63V116c1.16-.14,1.1-.4,1.19-.81a58.37,58.37,0,0,0,0-6.48c0-1-.26-1.19-1.22-1.25v-.37h4.39c2.06,0,3.3.55,3.74,1.62a2.17,2.17,0,0,1-.46,2.31,4.48,4.48,0,0,1-1.54.78l2.75,3.91a.71.71,0,0,0,.58.29m8.77-8.91v2.75h-.35c-.35-1.77-1-2.29-3.24-2.29-.81,0-.9.23-.9.64v3.18c1.54,0,2-.55,2.23-2.05h.35V114h-.35a2.28,2.28,0,0,0-.86-1.85l-.09,0a3,3,0,0,0-1.28-.23v3.3c0,.69.47.75,1.13.75a4,4,0,0,0,2.44-.72,4.69,4.69,0,0,0,1.18-1.71h.4l-.55,2.83h-8V116c.58-.06.95-.18,1.07-.35s.11-.49.14-.64V108.4c0-.81-.43-.93-1.19-1v-.31Zm3.1,7.93v-6.6c0-.81-.47-.89-1.28-1v-.38h4.81v.35c-1.16.06-1.3.4-1.3,1V115a.79.79,0,0,0,.4.81,2.89,2.89,0,0,0,.92.18v.34h-4.8V116c1.1-.09,1.24-.38,1.24-1m14.68-2.6v.35c-1,.12-1.19.32-1.19,1.25v1.73a8.17,8.17,0,0,1-3.79.84,4.86,4.86,0,0,1-3.48-8.33,4.77,4.77,0,0,1,5.47-.9c.6.26.87.32,1.16-.29l.06-.18h.38v3.19h-.29a6.2,6.2,0,0,0-1.16-1.82,3.16,3.16,0,0,0-2-1c-2.08,0-2.51,2.29-2.51,4.37,0,2.23.55,4.43,2.77,4.43,1.48,0,1.28-.9,1.31-1-.09-1.94.4-2.28-1.4-2.39v-.35l4.69.06Zm3.76-5.32,4.78,5.84c-.09-3.61.26-4.86-.4-5.26l-.29-.12v0l-.58-.09v-.34h3v.34c-.93.15-1.08.35-1.08,1.1v8.05H164l-6.14-7.41c.12,6.34-.52,6.59,1.3,6.83v.35h-3.09V116c1.07-.14,1.18-.4,1.18-1.1v-6.48c-1-1.16-1-.9-1.15-1v-.35Zm13.09,6h2.66l-1.36-3.33Zm6.86,2.89v.35h-4.44V116c.26-.06,1.1.06,1.1-.49a6.07,6.07,0,0,0-.64-1.85h-3.06a11.18,11.18,0,0,0-.6,1.8c0,.55,1,.52,1.13.55v.34h-2.78v-.34a1.19,1.19,0,0,0,.78-.44c.29-.37.47-1,3.62-8.62h.38l3.07,7.18a6.51,6.51,0,0,0,1,1.76l.06,0a.59.59,0,0,0,.4.12l0,0Zm9-8.91v2.75h-.32a4.09,4.09,0,0,0-.6-1.54l0,0a3.38,3.38,0,0,0-2.49-.72c-.46,0-.75.09-.81.29a1,1,0,0,0-.06.35v3.17a1.86,1.86,0,0,0,1.62-.6,3.11,3.11,0,0,0,.47-1.41h.35V114h-.38c-.18-1.65-.78-2.09-2.09-2.12v3.19c0,.9.55.93,1.51,1v.35h-4.92v-.35a1.73,1.73,0,0,0,1.07-.34c.14-.18.11-.47.14-.64v-6.6a.81.81,0,0,0-.39-.81,2.39,2.39,0,0,0-.79-.14v-.4Zm8.94,0v2.75h-.34c-.29-1.31-.7-1.65-.64-1.57a3.3,3.3,0,0,0-2.49-.72c-.81,0-.87.23-.87.64v3.17a1.86,1.86,0,0,0,1.62-.6,3.11,3.11,0,0,0,.5-1.41H195V114h-.34c-.18-1.65-.79-2.09-2.09-2.12v3.19c0,.9.52.93,1.51,1v.35h-4.92v-.35c.57,0,1-.17,1.07-.34a1.57,1.57,0,0,0,.14-.64v-6.6c0-.78-.4-.92-1.21-.95v-.4Zm3.54,6h2.66l-1.4-3.33-1.27,3.33Zm6.83,2.89v.35H202.8V116l.43,0c.44,0,.64-.17.64-.46a5.81,5.81,0,0,0-.64-1.85h-3.06a9.51,9.51,0,0,0-.6,1.8c0,.55,1,.52,1.12.55v.34h-2.77v-.34a1.2,1.2,0,0,0,.78-.44c.26-.37.37-.75,3.59-8.62h.38c2.72,6.28,3.47,8.48,4,8.91h0l.06,0a.58.58,0,0,0,.4.12Zm2.52-1v-6.6c0-.81-.53-.89-1.28-.95v-.38h4.78v.35c-1.13.06-1.3.38-1.3,1V115c0,.43.11.69.4.81a2.47,2.47,0,0,0,.89.17v.35h-4.77V116c1.15-.08,1.27-.4,1.27-1m8-6.89v3.47c1.71,0,2.52-.29,2.52-2,0-1-.29-1.62-.87-1.85v0c-.35-.15-1.33-.26-1.53.05a.68.68,0,0,0-.12.38m6,7.88v.34H221l-2.84-4.28h-.38c.09,3.47-.37,3.73,1.22,3.94v.34h-4.63v-.34c1.15-.15,1.1-.4,1.18-.81,0-3.91,0,5.55,0-6.49,0-1-.26-1.19-1.22-1.24v-.38h4.4c1.91,0,3.88.49,3.88,2.43,0,1.28-.81,1.88-2.06,2.26l-.11,0,2.78,3.91a.64.64,0,0,0,.55.29m7.29-6.17h-.38a4.84,4.84,0,0,0-.81-1.6l-.14-.17a2.25,2.25,0,0,0-1.68-.75,1.34,1.34,0,0,0-1.42.81,1.54,1.54,0,0,0-.09.52c0,.78.67,1.19,1.42,1.54l2,1a2.76,2.76,0,0,1,.26,4.77,4.55,4.55,0,0,1-3.94.26c-.52-.17-.78-.26-.93.24l0,.08h-.4v-3.35h.4c.37,1.62,1.12,2.92,2.77,2.92a1.53,1.53,0,0,0,1.57-.84,1.43,1.43,0,0,0-.35-1.8v0a13.82,13.82,0,0,0-1.91-1,3.91,3.91,0,0,1-2.26-2.11,3,3,0,0,1-.09-.73c0-2.46,2.26-3.27,4.6-2.49.49.18.81.29,1-.2l0-.11h.4l0,3Z"></path><path class="cls-6" d="M317.11,58.06h0a4.59,4.59,0,0,1,.64.28l.06.06.34.2,0,0,.11.09.14,0,0,.06h-1.24c-.09-.14-.26-.53-.17-.37L317,58.4l-.11-.28.08,3.79.09.26c0,.08.08.31.06.22H317l0,1.3h.48c0,.17.34,1.29.31,1.15.17.85.26,1.33.23,1.16l0,.11,0,0v.2l0,.08v0h-1l0,1.29h1.24l.12.9.17.74c0,.14.16,1.38.14,1.24l.19,1.26h-1.79l0,1.3h1.92c.06.45.14,1,.11.9l.17,2.25.08.62a2.25,2.25,0,0,1,.06.36h-2.25l0,1.3h2.34l.12,1c0,.4.16,3.23.16,3.06v.12a8.19,8.19,0,0,1,2,2.2h3.38c.79-.45,1.57-.88,2.36-1.3h-6.42c-.06-1.07-.34-5.13-.34-5h7.24a36.37,36.37,0,0,1,.73,4.4c.43-.2.82-.43,1.24-.62-.34-2.4-.45-3.16-.42-3l-.23-.76h5.78l.42,1.3c.4-.17.79-.34,1.21-.48l-.23-.82h2.4c1.32-.47,2.71-.9,4.06-1.29h-1.19c-.08-.14-.39-.84-.33-.68l-.17-.56c-.07-.2-.16-.4-.25-.6s-.45-.76-.34-.62a5.78,5.78,0,0,0-.54-1.12c-.11-.23-.37-.68-.28-.54h2.42c.09.17,2.17,3.8,2.09,3.66l0,.06c.43-.11.85-.23,1.3-.31l-.14-.31-.48-.9L344,73.29h1c.11.14.51.73.42.56v0c1.67,2.56,1.6,2.62,1.55,2.53h0c.45-.11.93-.2,1.38-.28l-.42-.67c-.09-.15-1-1.6-.87-1.44l-1.3-1.94c-.34-.45-1.38-1.78-1.27-1.63-.14-.15-2.14-2.4-2-2.23l-.45-.45h0l-.54-.56c-1.38-1.27-1.86-1.72-1.69-1.58-.53-.45-1.21-1-1-.85h0l-2.93-2.16c-.14-.09-2.16-1.36-2-1.27l-.91-.48-1.79-.9c-.15-.06-.76-.28-.6-.23-1.6-.73-1.66-.73-1.58-.7h0l-.87-.37h0c-1.41-.53-3.27-1-3.18-1l-.34-.14c-2.53-.51-5.21-1-5-1h-.06c-1.32-.11.2,0-2.51-.22l0,1.8.11-.06Zm2.36,8.45-.05-.6-.09-.2-.14-.62v0c-.11-.6-.25-1.21-.2-1l-.08-.28h4l.36.65c.09.14.43.67.34.5a3.36,3.36,0,0,0,.2.43c.34.62.65,1.29.6,1.15h-5Zm.51,2.7c-.05-.31-.31-1.57-.28-1.43H325l.47,1h0l.12.43.11.31,0,0,.81,2.33h-6.19c-.17-1.46-.34-2.87-.34-2.73Zm8.65-4,.42.62h0l.5.68h-3.74v0a16.08,16.08,0,0,0-1.19-2.34l-.22-.36h2.89c.51.5,1.38,1.51,1.3,1.43Zm-7.72,12.11-.14-1.91c0-.34-.28-2.34-.25-2.17h6.42l.25,1,.14.31c.17,1.12.45,1.26.68,2.81Zm7-5.38-.42-1.32-.11-.31-.23-.65v0c-.51-1.4-.73-1.89-.7-1.83h4c1.86,3.29,2.42,4.28,2.34,4.11l0,0Zm9.83,0h-3.52l-.68-1.4c-.42-.79-.79-1.47-.7-1.3l-.82-1.4h2.8c.2.28,2.25,3,2.11,2.85.08.08.62.92.82,1.26Zm-8.42,5.38a36.92,36.92,0,0,0-1-4l0,0v0h5.07c.5,1.16,1.15,2.8,1.12,2.7v0l.42,1.35Zm11-.2.11.23h-4.14l-.5-1.55v0c-.09-.22-.48-1.35-.79-2v0l0,0c-.06-.11-.17-.42-.2-.5h3.69l.14.28.31.53v0c.17.31.51,1,.42.84.09.15.6,1.13.45.85.28.65.6,1.52.54,1.35Zm-.48-9.32v-.34c.14.15,1.38,1.33,1.15,1.1a11.1,11.1,0,0,0,.88.93l.47.48c.45.51,1.47,1.69,1.27,1.44l.34.51h-.87l-.48-.68v0c-.71-1-1.24-1.74-1.13-1.6-.2-.22-1.63-1.85-1.52-1.71h0l-.08-.08Zm-1.24-1.4.06,0,.11.09h-.2l-.14-.17c.17.08.34.17.17.05Zm.11,2.14h0l1,1.24.6.65c.06.08.17.34.14.25.11.17.9,1.19.79,1v0l.17.2H339.3a8.27,8.27,0,0,0-.76-1.19c-.17-.25-1.15-1.71-1-1.57l-1-1.38h1.63c.17.15.87.91.7.74Zm-1.21-3.1-.25-.23Zm-4.73-1.69h.62l.37.25v0c1.94,1.58,3.18,2.68,3,2.48h-1.38l-.14-.17v0c-.08-.08-.25-.28-.17-.2h0a26,26,0,0,0-2.22-2.36Zm-1.27-1.33.06,0h-.25l-.79-.56h0l-.05-.06,1.07.6Zm-.76,1.33h0c.09.08.34.31.26.25h0c2.53,2.37,2.25,2.11,2.22,2.09l.14.22c.09.09.28.26.2.17h-2.51c-.9-1.3-2.23-2.93-2.06-2.73Zm-5.49-3.6h.14l.12.09,0,0,1.21.65,0,0c.37.2.85.45.68.37l.93.6c.45.31.9.64.73.56H327.9a3.39,3.39,0,0,1-.34-.31v0l-.6-.56-.73-.73a10.25,10.25,0,0,0-.91-.68Zm-2.25,0c.85.62.56.4,1.91,1.41v0a5.3,5.3,0,0,1,1,.9h-2.34l-.05-.06-.06,0-.56-.93-.12-.08,0,0c-.45-.6-1-1.26-.9-1.12l0,0Zm-2.45-1.32.14,0h-.14Zm-.56,1.32c.11.09.25.23.33.28h0l.14.26.23.14c.4.51,1.15,1.49,1,1.32.08.09.28.31.2.23l0,0,0,0h-3.52c0-.08-.08-.31-.05-.22v0l-.26-.81v0c0-.09-.08-.31-.05-.23l-.09-.25v0l-.11-.11-.23-.53,2.29,0Zm-1.86-1.52h0s0,0,0,0"></path><path class="cls-6" d="M288.19,116.1a20.09,20.09,0,0,0,1.77-1.3h-.34l-.2-.4-.2-.45-.17-.34v0c-.08-.17-1.4-3.33-1.32-3.1v0a3.93,3.93,0,0,0-.2-.54v0l0-.11h4.34c.2.67.48,1.57.42,1.4l.09.3c0,.15.25.74.2.6v0l0,.06a9.09,9.09,0,0,0,.71-1,21.32,21.32,0,0,0-1.95-2.68H287l0-.08v0l-.11-.25c0-.12,0-.29,0-.34-.2-.51-.4-1.07-.34-.9,0-.17-.25-1.13-.22-1l-.54-2.44h.37c-.2-.54.05-1,.62-1.3h-1.21l-.31-2.2c0-.22-.28-3-.28-2.79h4.95v.6c.23,2.7.23,2.84.34,3.66a11.65,11.65,0,0,1,1.32,0c0-.14-.08-1.15-.08-1l-.08-.34c-.06-.9-.09-1.74-.09-1.6l-.08-1.4h6.56l.2,4.56.09.45H294l1.95,1.29h2.28c0,.23.22,1.95.2,1.78l0,.08.2.14s.33-.37,1-1a9.09,9.09,0,0,1-.08-1h1.12c.4-.4.88-.81,1.38-1.29h-2.62c0-.14-.11-.76-.08-.6-.11-2.8-.2-4.42-.2-4.4h8.08v.48c.71-.59,1.44-1.18,2.2-1.77h-.9V93c-.42-.31-.87-.6-1.3-.9v3.8h-8.11l.06-4.57h6.93c-.68-.45-1.35-.87-2-1.29H299.2c0-.51.14-2.31.14-2.17l.08-.56c-.42-.23-.84-.45-1.26-.71C298,88.19,297.9,90,297.9,90h-6.5l.16-1.13c.17-1.77.26-2.45.23-2.28l.06-.31.2-1.32H295c-1.32-.65-2.61-1.27-3.91-1.83l-.08.53H286.3c0-.17.29-1,.23-.84v0c.05-.2.28-1,.22-.84l.15-.37V81.4c-.43-.17-.85-.34-1.27-.48,0,.14-.06.48,0,.31a1.87,1.87,0,0,1-.11.26v0l-.2.6-.17.68v0c-.06.2-.12.4-.2.6l0,.22h-3.21c.06-.17.25-.62.2-.45v0c.06-.15.76-2.29.71-2.15.05-.14.25-.81.22-.67.06-.14.23-.51.14-.37v0l-1.24-.43c-.08.26-.4,1.16-.34,1l-.25.6c-.31,1-.6,1.94-.6,1.91v0l-.17.56h-1.63l.17-.45v0l.2-.65v0l.2-.56v0a15.28,15.28,0,0,0,.56-1.52,7.91,7.91,0,0,0,.37-.84v0l.17-.34v0l0,0c-.42-.15-.84-.26-1.26-.4a13.76,13.76,0,0,0-.74,1.77,19.94,19.94,0,0,0-.78,2.25l-.12.28v0c0,.14-.28.87-.31,1s-.84,3.43-.81,3.21c-.51,3.32-.65,5.06-.65,5,0,.14-.06,2.45-.06,2.31l.65.08-.65.06a25.23,25.23,0,0,0,.28,4.25l.12,1.07.11.56,0,.37v0c.25,1.59.4,2,.37,1.94l.6,2.28.22.7.11.31.2.6v0c.06.17,1.07,3.15.88,2.51l.45,1v0l.73,1.44.08.34c.14.25,1.13,1.94,1.05,1.77,2.59,4.22-.85-1.32,1.21,2-.11-.14.25.37.34.54a6.9,6.9,0,0,1,1.57-.09l-.25-.33h1l.34.5a10.36,10.36,0,0,1,1.44.43l.28-.14-.51-.79,1.89.17Zm3.09-24.81h6.54c0,.14-.06,4.7-.06,4.56H291.2c.08-4.22.11-4.65.08-4.56m-5.63-4.68L286,85h4.7c-.4,2.31-.67,5.13-.65,5h-4.87c.11-.68.51-3.55.48-3.36Zm-.6,4.68H290c-.09,2.22-.11,4.59-.11,4.56h-5c0-.17.18-4.84.15-4.56Zm-.28,13.94.17.7c.06.17.67,2.31.65,2.14l0,.28,0,.09h-3c-.06-.17-.42-1.24-.37-1.07-.36-1.16-.42-1.4-.36-1.27l-.23-.51,0-.31,0,0c0-.17-.5-2-.47-1.83h3.32c0,.17.14,1,.11.82,0,.17.23,1.13.2,1Zm-.54-3.1h-3.35l-.33-2.2c-.17-2-.23-2.87-.23-2.67l0-.09v0h3.38c.4,3.77.51,4.75.48,4.61Zm-3.49-14.28c.12-.45.65-3,.62-2.82v0h3.24l-.25,1.35,0,0-.08.7v0c-.37,2.4-.4,3-.4,2.93h-3.38c.18-1.26.32-2.34.29-2.17Zm-.5,4.62.08-.34c0-.14,0-.73,0-.82h3.41l-.08.68c0,.42-.06,4-.06,3.89h-3.43c0-.26.05-3.78.05-3.41Zm-2.37-5.55h0c.31-1.32.48-2.06.45-1.89l0,0H280a24,24,0,0,0-.56,2.67c0,.31-.31,2.23-.28,2v0c0,.08,0,.25,0,.31h-1.83C277.48,89.17,277.42,89.37,277.87,86.92Zm-.79,6.17h0c0-.31.15-2,.15-1.8H279c-.16,1.55-.14,4.79-.14,4.56h-1.8V93.09Zm.29,6.45-.23-2.4h1.8c.11,1.8.6,5.1.6,5h-1.72c0-.17-.47-2.78-.45-2.61Zm2.36,8.92a11.28,11.28,0,0,1-.6-1.59v0c-.08-.26-.76-2.37-.7-2.23a3.58,3.58,0,0,0-.17-.62c0-.08-.11-.39-.17-.53h1.72c.28,1.24.73,2.93.7,2.85l.7,2.19Zm3.24,6.31a3.75,3.75,0,0,1-.42-.62c-.48-.84-.91-1.59-1-1.69v0c-.09-.15-.42-.77-.34-.6v0l-.11-.17-.06-.31-.81-1.55h1.46c.06.17.42,1,.34.82v0a4.73,4.73,0,0,0,.25.62c.2.4.51,1.07.45.93l0,0c.37.76.82,1.64.7,1.44.09.14.57,1,.62,1.13Zm2.62,0h0l-.45-.84-.14-.28v0l0,0c-.45-.76-1.21-2.34-1.16-2.25a4.26,4.26,0,0,0-.36-.85,2.26,2.26,0,0,1-.26-.62l0,0h3c.09.26.82,2.2.74,2,.36.93.9,2.2.87,2.11l.4.85-2.54-.06Z"></path><path class="cls-6" d="M281.94,76.33c.6-1.06,1.26-2.1,2-3.09h1c-.08.16-.64,1.24-.56,1.1-1.21,2.11-.84,1.49-1.27,2.25l1.33.34.62-1.1.16-.31,1.3-2.25h2.42a36.68,36.68,0,0,0-1.94,4.11h-1c1.38.4,2.71.81,4.06,1.29h2.11c0,.09-.17.65-.2.71.4.14.82.31,1.21.48l.34-1.19h5.79a9.24,9.24,0,0,0-.47,3,5.77,5.77,0,0,1-.15.6v0c.43.2.82.4,1.24.62a14.6,14.6,0,0,0,.28-2v0c.2-1.15.09-.62.43-2.28h7.23l-.34,5h-6.14c.82.42,1.58.84,2.37,1.3h3.38a8.84,8.84,0,0,1,1.72-1.89c.14-2.25.33-4.51.33-4.45h2.54l0-1.3h-2.46c.17-1.52.29-2.5.26-2.36l.17-1.75h2.14l0-1.29h-2c.45-2.65.67-4.34.62-4.14h1.43l0-1.3H310.7v-.31l0,0,0-.06L311,65l.28-1v0l0,0H312l0-1.3h-.4l0-.22.23-.7.11-.31.11-5-1.12.06-.68.06c-.14,0-2.48.36-2.34.33l-.68.15c-.16,0-3.15.6-3,.56l-2.51.81c-.17.06-1.15.45-1,.37h0l-.9.37h0c-1.49.6-1.35.53-1.32.51s-.37.28-.29.2a4.32,4.32,0,0,0-1.12.5c-.31.17-2.31,1.19-2.14,1.1l-2,1.27c-.81.65-3.07,2.25-3,2.2l-.57.45a44.62,44.62,0,0,0-4.05,4h0v0l-.42.45-.42.54h0l-.48.53c-.11.17-.65.88-.53.71h0a4,4,0,0,0-.42.6c-.45.64-1.08,1.52-1,1.38h0c-.73,1.22-1.24,2-1.21,2l-.37.53,0,.09a12.63,12.63,0,0,1,1.5.28Zm11.29-1.1a15,15,0,0,0-.71,2.08h-4.16c.2-.51.48-1.21.42-1v0l.25-.51.2-.33.43-.88,0-.25.11-.17v0a4.65,4.65,0,0,0,.34-.56,3.07,3.07,0,0,1,.17-.31H294l-.4,1.1a5.26,5.26,0,0,1-.36.93ZM297.68,69h0c.08-.17.81-1.33.73-1.19h4l-.14.31v0c-.09.14-.31.65-.26.48l-.05.28c-.06.15-.26.57-.17.4l-.48,1.3-.4,1.29h-4.87c.68-1.26,1.75-3.15,1.6-2.9Zm3.38-4.68h0l0,0,.08-.14c.09-.06.31-.23.23-.15l.16-.2h2.85l-.6,1.16,0,0c-.42.84-.79,1.57-.73,1.49l0,.08h-3.75l1.78-2.25Zm-4.85,4.54,0,.22c-.06.09-.2.26-.14.17-.74,1.44-1.4,2.76-1.38,2.73h-3.52l.61-1h0l.48-.74,1.8-2.39h2.8a6.6,6.6,0,0,0-.6,1Zm3.44,7.94a2.73,2.73,0,0,0-.14.51v0h-5.58l.74-2.19.28-.6.11-.29a5.26,5.26,0,0,0,.28-.62l.06,0,.11-.31h5.07c-.65,2.31-.93,3.58-.93,3.52Zm8.31.56h-7.07c.2-.93.36-1.75.36-1.72l.28-.81c.23-1,.43-1.63.43-1.6h6.45c-.09.34-.43,3.91-.45,4.14Zm1-8.42-.14,1c-.08.79-.22,1.66-.22,1.57v0l0,.4h-6.23l.23-.65c0-.11.11-.36.14-.45.31-.76.68-1.83.7-1.91l0,0,.2-.51v0l.17-.4.08-.11,0-.06h5.24Zm.76-4.19c-.11.6-.2,1.12-.17,1,0,.08-.14.31-.11.23l-.06.6h-4.89l.78-1.55.68-1.19h4Zm.65-5.92h0l.14-.05.11-.09,0,0h0A10.71,10.71,0,0,0,312,58l0,0,0,0-.08.08a2.65,2.65,0,0,0-.14.37l-.06,0a2.66,2.66,0,0,0-.17.37h-1.24l.06-.06Zm-2.25.06c.08,0,.28-.09.16-.06v0l0,0Zm-.4,2.48.08-.17.54-.51.11-.2,0,0,.05,0,0,0,0-.06.22-.14H311c0,.08-.17.45-.14.36l-.12.34v0l-.22.65-.2.67v0c0,.08-.09.31-.06.23h-3.49c.06-.09.14-.26.11-.17l0,0,.11-.09c.76-1,.7-.92.65-.87Zm-3.35-.2.28-.23.31-.14.2-.25.56-.29.08-.05H307l-.31.36-.26.31-.05,0,0,0,0,0-.2.22,0,.09,0,.05,0,0-.12.09c-.08.14-.6.92-.64,1h-2.4l0,0,.08-.14,1.35-1.16Zm-4,.78.79-.43.08-.06.09-.08.48-.28L302,61l0,0c.14-.08,1.27-.7,1.4-.76h.11A16.44,16.44,0,0,0,302,61.41L301,62.48H299.7a6,6,0,0,1,.67-.56Zm-2.14,0-.17.2-.45.25,0,.06-.09,0h-.25l1-.56ZM297.76,64h0a3.25,3.25,0,0,0,.31-.23v0h1.66l-1.16,1.49-.14.23-.2.16-.56.85h-2.54a8,8,0,0,1,.56-.6c.91-.79,2.12-1.94,2.06-1.89Zm-4.6,1.55c.26-.2,2.34-1.83,2.2-1.75l.06,0H296a30.06,30.06,0,0,0-2.56,2.73h-1.37l1.1-.93Zm-1.8-.17-.08.06c.37-.34.11-.15.08-.06m-1.15,1.13H290c2.36-2-.09.22.17,0m.53,1.29h1.64c-.12.17-1,1.27-.87,1.13-.12.14-.65.9-.54.76a4.65,4.65,0,0,1-.34.56l-.14.22c-.73,1.13-.93,1.44-.85,1.33l-.05.11h-2.22l.95-1.21c.2-.28,2.68-3.21,2.43-2.9Zm-2.53.31.28-.17a1.84,1.84,0,0,1,.17-.22v.08h.28l-1.6,1.89c-.11.17-.64.87-.53.73-.26.37-1.07,1.58-1,1.4l-.08.11h-.87c.14-.2,3.49-4,3.35-3.83Z"></path><path class="cls-6" d="M290.64,123.37h0s0,0,0,0Z"></path><path class="cls-6" d="M352.93,91c-.34-2.59-.48-3.39-.45-3.37l-.2-1c-.06-.25-.43-1.74-.4-1.57v0l-.12-.4v0l-.17-.56c-.6-1.94-.76-2.37-.7-2.23v0c-.08-.22-.37-1.06-.31-.9l-.87-2.08c-.43.11-.85.25-1.27.4l.14.34v0c.74,1.78.48,1.19,1,2.37v0a12,12,0,0,1,.56,1.69h-1.62c0-.17-.2-.73-.14-.56-.09-.31-.74-2.34-.68-2.17-.14-.37-.42-1.16-.48-1.27l-1.24.42.12.31v0l.2.62a12.08,12.08,0,0,1,.73,2.2v0l.17.42h-3.22l-.36-1.52-.2-.62,0,0v0l-.09-.22s0,.08,0-.23c-.43.17-.85.34-1.27.48v0c.06.17.48,1.41.42,1.27.09.28.26,1,.23.84h-4.68l-.08-.42c-1.21.53-2.45,1.1-3.69,1.72h2.65c.14,1,.31,2,.28,1.94.23,1.89.34,3,.37,3.1H331c-.14-2.09-.14-2.4-.25-3.27l-1.27.68.17,2.56h-4.56c-.68.42-1.35.84-2,1.29h6.67c0,.28,0,4.8,0,4.57h-8.11V92.25c-.45.29-.87.6-1.29.9v2.7h-.6l1.92,1.55v-.26h8.1c-.28,5.27-.19,3.13-.28,5H327.1c.51.48,1,.93,1.4,1.29h.87l-.11.71,1.18,1.18c0-.26.14-.9.11-.76l.14-1.16h2.54c.36-.25.81-.56,1.94-1.29h-4.4c.12-1,.29-3.86.29-3.78V97.14h6.53c0,.17-.09,2.28-.09,2.14,0,.14-.17,1.33-.14,1.19v.42c0,.17-.08.6-.08.62a9.32,9.32,0,0,1,1.29-.09l.09-.36.25-3.89h5c-.51,4.84-.36,3.6-.42,4a8,8,0,0,0-.14,1h-.93c.54.34.79.76.6,1.3h.11l-.4,1.83,0,0,0,.31a4.39,4.39,0,0,0-.15.6c0,.22-.1.44-.16.65a7.36,7.36,0,0,0-.34.93c0,.51-.17.84-.14.7H337.8a23.11,23.11,0,0,0-1.94,2.68c.17.28.34.53.53.82l0-.12,0,0c.07-.29.15-.58.25-.87v0l.34-1.12h4.34c-.06.14-.4,1.15-.34,1-.06.17-.42,1.1-.37.93l-.6,1.41,0,0a5.24,5.24,0,0,1-.23.48c-.51,1-.4.75-.62,1.21h0l0,0c.65.51,1.24.93,1.78,1.3h1.43l-.36.48a.67.67,0,0,0-.09.14l.48.25c.4-.14.79-.25,1.16-.36.14-.23.31-.45.36-.54h1l-.17.2-.06.14a5.36,5.36,0,0,1,1.6,0c.26-.36,1.21-1.77,1-1.55a8,8,0,0,1,.51-.9c.09-.14,1.58-2.93,1.4-2.64l.14-.31v0l.26-.57v0c.79-2,1.1-2.71,1.12-2.82v0l.2-.62v-.11l.51-1.58v0c.51-1.8.68-2.62.68-2.6l.05-.34c0-.14.28-1.44.26-1.27v0c0-.15.14-.88.14-1l.11-.68c0-.14.22-2.53.2-2.36a32,32,0,0,0,0-6Zm-21.86,4.82c0-4.31,0-4.65,0-4.56h6.5l.08,4.56ZM350.31,85v-.7c.17.67.48,1.8.48,1.72.73,3.88.73,4,.7,3.88v0l0,.11h-1.83l0-.34v0c0-.15-.37-2.43-.34-2.29,0-.11,0-.28-.05-.36l0,0L349,85.68c0-.17-.22-.9-.16-.73Zm-1.8,6.34c.09,2.62.14,4.7.14,4.56h-3.43c0-3.6-.06-3.94-.06-3.86l-.06-.7ZM348,102.13h-3.35a2,2,0,0,0,.06-.42v0a5.63,5.63,0,0,0,.08-.62,32.09,32.09,0,0,0,.37-3.92h3.41a34.81,34.81,0,0,1-.57,5M347.47,85c.08.33.17.84.14.67,0,.17.22.85.17.68,0,.14.11.73.08.6l.14.64.11.65,0,.31v0c.06.48,0,.2.2,1.46H345l-.34-2.34-.2-1.26L344.2,85h3.26Zm-8.82,3.77a25.15,25.15,0,0,0-.36-3l-.14-.75h4.73a32.29,32.29,0,0,1,.76,4.89v0l0,.11h-4.9a9.36,9.36,0,0,0-.11-1.29Zm.31,7.12c0-3.91,0-4.28,0-4.19l-.06-.34h4.93c0,.14.14,4.7.14,4.56H339Zm4.31,12.23.08-.23v0a24.48,24.48,0,0,0,.71-2.5v0l0,0c0-.14.36-1.91.33-1.77h3.3c-.06.17-.93,3.29-.87,3.15a6.39,6.39,0,0,1-.34,1.13c-.09.22-.18.43-.28.65v.08h-3c0-.34.06-.51.06-.42Zm1.1,4.67h0l0,0-.28.56c-.08.14-.42.68-.31.51-.42.87-.11.17-.51,1h-2.53c.05-.14,1-2.23.81-1.86.34-.68,1-2.62.93-2.31.06-.17.28-.79.23-.62l.05-.2h3c-.08.14-1,2.2-.93,2.06l-.25.59-.14.29Zm2.9-.28c-.08.17-.42.73-.34.6l0,0c-.06.11-.23.42-.29.5-.25.45-.56.88-.45.74a3.46,3.46,0,0,1-.31.47h-1.12c.08-.14.4-.73.45-.81l.14-.31c.56-1.07.93-1.83.93-1.77.73-1.75.79-1.86.76-1.8l.11-.28h1.44l-1.3,2.64Zm3.16-7.86h0l-.48,1.52v0l-.2.68c-.06.2-.48,1.35-.43,1.15-.25.56-.14.37-.17.48h-1.52c.2-.6.62-2,.68-2.2s.4-1.44.34-1.29c.22-1,.37-1.6.37-1.55h1.69c0,.17-.34,1.35-.29,1.18Zm1.12-5.35c-.25,1.41-.31,1.92-.31,1.92l-.2,1h-1.71a11.84,11.84,0,0,0,.33-2.45l.12-.67.08-1.3,0,0,0-.54h1.79c0,.34-.16,2.25-.16,2.11Zm.23-3.39H350V93.25c0-.14-.14-2.11-.14-2h1.79c0,.17.17,4.9.14,4.56Zm-43.9,32.41h0s0,0,0,0Z"></path><path class="cls-6" d="M308.69,86.27h-1.3v.79l0,0,1.24.79c0-.06.06-1.41.09-1.6Z"></path><path class="cls-6" d="M338.48,123.08h0l-.9-1-.51.48c-1.77,1.58-2.16,1.94-2,1.83h0l-.76.6-.14.14h-.79c1.57-1.6,2-2,1.8-1.88l.92-1.1c.06-.09.23-.29.15-.2h1.21l-1.6-1.64c-.06.09-.25.37-.2.28l-.09.06h-2.93c.09-.14.62-1.18.57-1l.17-.34a4.23,4.23,0,0,0,.22-.42l.26-.57-1-.95-.2.36-1.18,2.31a4.53,4.53,0,0,0-.31.45l-.15.22H326.8l.33-.9v0c.06-.16.31-.87.26-.7a2.48,2.48,0,0,0,.22-.7,15.15,15.15,0,0,1-1.49.31c-.17.5-.17.45-.68,1.88v0l-.05.11h-5.55l.48-3.06,0-.48v0c0-.14.11-.73.14-1h2.25a7.3,7.3,0,0,1,.37-1.29h-2.48c.17-1.29.48-5.1.45-5h5.55c-.34-.45-.7-.88-1.07-1.3h-4.39l.11-2.08v0l.11-2.45-1.8-1.8H309.43c-.71.68-1.4,1.38-2.09,2.09l.26,4.25h-4.12c-.36.42-.73.84-1.07,1.29h5.27c.22,2.76.48,5.07.48,5h-2.23a7.4,7.4,0,0,1,.4,1.29h2l.17,1.21c0,.34.25,2.28.25,2.14v0c0,.14.17,1.07.2,1.18h-5.52c-.06-.14-.73-1.94-.79-2.08a13,13,0,0,1-1.49-.37l.62,1.86c.06.17.25.73.2.6h-4.22l-.15-.23-.28-.4c-.08-.14-1.35-2.62-1.18-2.3v0l-.11-.2-1,1c.09.14.45,1,.4.82l0,0a9.73,9.73,0,0,0,.6,1l0,.26,0,0h-2.93l-.05,0-.06-.15L291.7,122h.93c.09.08.23.28.14.2v0l.17.17v0c.87,1,1.44,1.58,1.41,1.55a6.53,6.53,0,0,0,.6.7l.42.37.17.17h-.79c-.14-.11-.82-.65-.93-.71-1.83-1.66-1.43-1.29-2.42-2.16l-.9.93c1.32,1.35-.14,0-.06,0l-.93,1c.37.31,2.17,1.74,1.89,1.52a3.67,3.67,0,0,1,.6.36c.11.09.4.29.48.37l0,0c.42.28,2.36,1.52,2.2,1.41,1.49.81.92.53,2.47,1.29l.54.31c.62.28,1.49.65,1.27.57l2.22.84.62.28c1.38.43,2.05.65,1.88.6.23.06,1.78.43,1.6.4h0l.31.09,0,0,.4.06h0c2.5.45,3.29.62,3.21.6,1.18.11,1.85.2,1.66.17l4.76.11,2-.11c1-.08,1.72-.17,1.69-.17l.71-.11c2.33-.48,3-.57,2.93-.57l.33-.11h0l0,0a8.68,8.68,0,0,0,.85-.2l2.59-.79c.17-.05,1.44-.56,1.27-.5.56-.23,1.83-.71,1.58-.6l0,0,1.26-.57.57-.3c.21-.09.41-.18.61-.29l.62-.33.76-.4,3.19-2.09.6-.36,2-1.67-.9-.92c-1.57,1.32-.05,0,0-.09Zm-13.6,1.75c.08-.15.7-1.41.65-1.27.14-.31.81-1.75.76-1.6h3.94c-.17.22-.6.87-.48.7-.11.17-1.49,2-1.38,1.8v0l-.48.54h0l0,0-.06.06h-3l.05-.08a.72.72,0,0,1,.09-.2ZM324.8,122l-.06.14v0a16.25,16.25,0,0,1-1.55,3h-4.14c.43-2.06.51-2.51.48-2.37,0-.14.14-.73.17-.82Zm-14.48-1.29-.67-4.56h9.54c-.4,2.47-.51,3.88-.51,3.85a3.5,3.5,0,0,1-.17.71Zm7.8,2.34v.16a15.62,15.62,0,0,0-.46,2h-6.47l-.17-.68-.11-.73-.17-.56c-.17-.82-.26-1.35-.23-1.21h7.83l-.22,1Zm-9.07-13.21h10.79c-.17,1.29-.26,2.65-.26,2.62,0,.14-.08.73-.08.6,0,.14-.14,1.6-.11,1.43l0,.37h-9.83c0-.17-.14-1.1-.11-.93-.12-2-.4-4.17-.37-4.08Zm-.09-1.33-.2-3.74c-.08-.87-.11-1.44-.11-1.27h11.52l-.2,3.21v0l-.11,1.78Zm.23,13.49c0,.15.28,1.19.22,1v.42l.14.48,0,0,.2,1c0,.09.09.34.06.26h-4.17c-.31-.43-1.07-2-1-1.75-.08-.14-.67-1.44-.6-1.27v-.05l-.05-.14Zm-6.6,0h0l.76,1.64,0,0,.17.39c.34.62.67,1.3.6,1.16h-3c-.09-.08-.28-.34-.23-.25h0c-.14-.17-.45-.54-.33-.37l-1.52-2-.37-.51,4-.05Zm-5,5.1-.31-.11-.67-.48h.45l.28.25v0c2.42,1.92.05.2.25.31Zm-.11-1.88c-.48-.45-1.58-1.53-1.33-1.27-.67-.68-1.4-1.47-1.21-1.27-.08-.11-.42-.51-.56-.67h2.68c.05.08,2.53,3.46,2.13,3l.17.23h-1.88Zm5.12,3.63-.79-.45-.22-.23-.25-.11-.17-.17a9.64,9.64,0,0,1-2.06-1.41h1.47l.17.26c.45.45,1.1,1,.93.87h0l.37.4.56.48.4.31-.42.06Zm2.54,0-.2-.2-.28-.14-1-.85h0l-.28-.25v0l-.22-.2h0c-.31-.34-.73-.76-.6-.62l0,0,0,0H305l.77,1.19v0c.4.48.73.91.6.74l.22.34.08,0Zm2.56,1.55c-.23-.14-.48-.29-.4-.26h.48l.28.31.2.14,0,.06-.4-.2-.2-.06Zm.65-1.55c-1.21-1.35-1.4-1.72-1.33-1.58l-.11-.08,0,0-.31-.54,0,0,0-.09h3.66c.25,1.07.78,2.45.73,2.34Zm3.69,2.62-.71-.34h0l-.4-.25-.22-.09-.2-.17-.08,0-.09-.14-.2-.09c-.11-.11-.4-.37-.28-.28h1.58l.05.11,0,0v.06l0,.11a5.52,5.52,0,0,0,.51,1.07Zm-.06-3.49h0l-.37-1.13v0l-.11-.31h5.83c-.2.6-.08.31-.45,1.44v0c-.06.14-.28.74-.34.85h-4.28l-.28-.85Zm4,2.19h0l0,0v0l0,0-.25.53v0l0,0v0l-.23.11,0,.22c-.09.09-.29.34-.23.26l-.2.22v0l-.22.11c-.09,0-.29.12-.2.09h-.23l-.08,0-.06,0h-.1l-.08-.06-.06,0v0l-.23-.23,0,0-.23-.28c0-.08-.14-.31-.11-.22l-.17-.09c-.08-.14-.42-.81-.34-.64v-.09H316Zm2.73.26-.2.05-.08.15-.06,0-.2.17-.25.11-.12.12v0l-.22.08h0l-.25.11-.09.09-.05,0c-.09,0-.34.14-.26.12l0-.06v0l0,0c.31-.6.6-1.27.53-1.13v-.06h1.6l-.31.26-.08,0Zm1.83.2c.34-.37.62-.68.48-.48h.53c-1,.53-.82.42-1,.48m.48-2.37c-.09.11-.37.34-.48.45l-.08.11H318l.23-.6v0l.2-.62v0l.19-.64,0-.2.09-.23h3.63c-.12.21-.26.42-.4.62-.9,1.15-1,1.27-.87,1.15Zm3.83-.31-1.16.9h-1.46l.08-.05c.11-.14.57-.82.48-.68l.06,0L323,128a9.2,9.2,0,0,1,.6-.93c.08-.08.25-.22.17-.14l.08-.25.11-.15h2.54c-1.86,1.69-1.64,1.44-1.6,1.41Zm4.11-.81h0c-.17.11-1.58,1-1.44.92-.28.17-1.49.91-1.24.74l-.05,0h-.4c.14-.15,1.66-1.55,1.49-1.41l.45-.42.48-.54h1.44c-.11.17-.9.79-.74.68Zm1.46.5h0c.15-.14,1.53-1.26,1.39-1.12h.42l-1.8,1.12Zm.91-2.42h-1.88l.51-.62a14,14,0,0,0,1.1-1.55l.6-.84.11-.2h2.65l-1,1.1c-2.05,2.14-2.16,2.17-2.08,2.11Zm6-1.07.28-.22Z"></path><path class="cls-6" d="M331.55,115.93l-.2.17h.37m-33.93,0-.2-.14-.15.14Zm23.7-29.82H320.2l.05,1.8,1.3-.82c0-.28-.06-.9-.06-1Zm-7.79,5h1.78c.61-.42,1.23-.87,1.88-1.29h-5.55c.62.45,1.24.87,1.89,1.29Z"></path><path class="cls-3" d="M372.55,79.12s-.67-.11-.67-.56c0,0,0-.42.93-.23a4.62,4.62,0,0,1,1.21.57s-1.24-.57-1.55-.37c0,0-.4.11.08.6"></path><path class="cls-3" d="M372.5,78.59c.2-.14,1,.17,1.49.36l.17.09-.08-.17c-.12-.23-1.05-.54-1.24-.6s-.65-.14-.93.08a.27.27,0,0,0-.11.23c0,.48.7.62.73.62l.2,0c-.09-.09-.4-.34-.37-.51l.14-.14Zm-1-6.6s-.67.15-.81-.25c0,0-.17-.4.79-.56a4.5,4.5,0,0,1,1.32,0s-1.38,0-1.58.26c0,0-.33.25.28.5"></path><path class="cls-3" d="M371.23,71.52c.14-.2,1-.25,1.52-.22h.2c-.2-.06.06-.31-1.52-.2a1.1,1.1,0,0,0-.82.42.42.42,0,0,0,0,.22c.18.45.88.31.91.31l.2,0c-.23-.12-.51-.17-.54-.34l.09-.14Zm8.08-.45-.7.2-6.51-4.9.68-.17"></path><path class="cls-3" d="M372.07,66.25l-.2.06,6.73,5.07,1-.28-6.76-5-.73.17Zm-5.23,13s.22,0,.47.4c0,0,.17.2,0,.26a8.35,8.35,0,0,1-.88-.06.78.78,0,0,0-.76.31s-.2.28.15.7a1.66,1.66,0,0,0,1.21.62,4,4,0,0,1-.88-.76s-.33-.4-.25-.53.06-.2.45-.14,1.77.28,1.44-.31a3.51,3.51,0,0,0-.48-.6l-.45.11Z"></path><path class="cls-3" d="M367.26,79.21a3.64,3.64,0,0,1,.48.56l0,.2-.34.11c-.54.09-1.21-.22-1.49,0l-.09.11v0c-.17.31.82,1.15,1.16,1.35l0-.09a1.74,1.74,0,0,1-1.19-.62c-.31-.39-.14-.64-.14-.64.31-.51.93-.23,1.64-.23l.11-.08-.09-.23c-.28-.4-.47-.42-.5-.42v.08l.42-.08Zm-.17,44.24s1.07.33.73.81a2,2,0,0,1-2.67-.56c-.11-.11-1-3,2.17-2.73a62,62,0,0,1,7.43,2.06c2.34.73,3.07.44,3.07.44l.87.91a10.55,10.55,0,0,1-3.69-.57,47.48,47.48,0,0,0-7.15-1.94c-2.36-.11-1.91,1.6-1.88,1.69l1.12-.11Zm13.74-5.1c-.6-.37-1.23-.82-1.15-.76s-13.29-1.66-13.38-2.11c0,0,.82,1.1,3.95,1.63s7.71,1.13,7.71,1.13l-.65.56,3.52-.45Zm2.43-13.43-1.21-.65s-13.41-.48-13.52-.9c0,0,.9,1,4.08,1.27s7.79.42,7.79.42l-.59.62,3.43-.76Zm-1.13-19.58-1.16-.4S369.43,87,369.26,86.66c0,0,1,.79,3.72.42S379.71,86,379.71,86l-.4.7,2.81-1.38ZM379,115.83s.26-.44.43-.47c0,0,.22,0,.28.08s.17.42-.31.53l-.4-.14Zm-.25.23a8,8,0,0,0,1.07.28c.48.2.45-.34.45-.34a2,2,0,0,0-.7-1.12c-.68-.42-1.1.51-1.1.51s-.14-.09-.14-.09a33.9,33.9,0,0,1-1.66-4l0,.16a6.57,6.57,0,0,0,1.52,4.09l0,.16-.4.31.56.43.4-.4Z"></path><path class="cls-3" d="M381,88.33s.09-.6.23-.67.22-.15.31,0,.36.36-.12.67Zm-.17.37a10.27,10.27,0,0,0,1.24-.17.34.34,0,0,0,.39-.29.32.32,0,0,0-.05-.25,2.22,2.22,0,0,0-1.21-.87c-.9-.17-.93,1-.93,1,0,.16-.2,0-.2,0a36.55,36.55,0,0,1-3.46-3.47l0,.2a7.42,7.42,0,0,0,3.35,3.58l.08.17c0,.11-.28.48-.28.48l.76.2.28-.57ZM366.51,49s-.12-.4-.06-.48l.2-.11c.08,0,.34.14.11.45l-.25.14Zm0,.28a6.24,6.24,0,0,0,.73-.45c.36-.16.05-.42.05-.42a1.5,1.5,0,0,0-1-.22c-.6.14-.31.87-.31.87s-.14.06-.14.06a23.17,23.17,0,0,1-3.13-1.19l.09.11a4.87,4.87,0,0,0,3.09,1.3l.09.08,0,.37.53-.09,0-.42Zm-3.72,74.35.62.64.95-.64-.62-.68"></path><path class="cls-3" d="M363.15,122.35l.62.67,1-.65-.62-.7m2.45-6.93.6.68,1-.65-.62-.7"></path><path class="cls-3" d="M366.92,113.53l.6.68,1-.65-.62-.7m.84-45.4-.11,1.19.9,0,.17-1.16"></path><path class="cls-3" d="M368.05,66.39l-.11,1.19h.9l.17-1.16m4.19,34.22.85.31.56-1-.87-.34M374.81,83l.79.42.7-.92-.82-.45m-4-7.66.88.2.42-1.1-.9-.23m-7.83-18.53.08,1.18.88-.17,0-1.15m-9.58-8.22.09,1.18.87-.16,0-1.16m8.19,17,.09,1.16.87-.14,0-1.19m7.1,47.14s-.68-.47-.42-.93c0,0,.22-.42,1.15.26,0,0,1,.95,1,1.21,0,0-1-1.24-1.49-1.21,0,0-.51-.06-.25.67m8.73-14.38s-.71-.34-.57-.85c0,0,.12-.48,1.13.06,0,0,1.07.76,1.13,1,0,0-1.19-1-1.6-.9,0,0-.45,0-.09.68"></path><path class="cls-3" d="M381.42,95.09c.29-.09,1.07.51,1.52.9l.17.14,0-.22c-.05-.28-1-.93-1.18-1.07s-.67-.37-1-.2-.4.67.4,1.12l.23.12c0-.09-.34-.51-.23-.71l.17-.08Zm-.08.53s-.65-.31-.51-.73l.12-.11c.11-.06.36-.06.9.2a4.76,4.76,0,0,1,1.09,1l.12-.09c-.12-.11-1.24-1.07-1.66-.93h0a.34.34,0,0,0-.28.17.69.69,0,0,0,.11.62l.09-.08Zm-3.72-3s-.73-.31-.6-.79c0,0,.09-.48,1.13,0,0,0,1.12.68,1.21.93,0,0-1.27-.95-1.66-.81,0,0-.51,0-.09.7"></path><path class="cls-3" d="M377.72,92c.25-.11,1.12.42,1.57.79l.17.14-.06-.22c-.08-.31-1.15-.93-1.23-1-.43-.2-1.1-.37-1.22.08s.62.88.65.88l.23.08c-.06-.11-.37-.51-.29-.67l.17-.09Zm-.06.54s-.68-.29-.56-.71l.11-.11c.11-.06.36-.08.9.14s1.13.73,1.15.9l.12-.08c-.14-.09-1.3-1-1.72-.82h0a.32.32,0,0,0-.28.17c-.09.14,0,.37.14.62l.11-.11Zm-4.82-9.86s-.78-.14-.76-.65c0,0,0-.48,1.1-.28a5.44,5.44,0,0,1,1.38.65s-1.44-.65-1.8-.42c0,0-.48.16.09.7"></path><path class="cls-3" d="M372.78,82.08c.22-.17,1.18.17,1.72.42l.19.08-.11-.19a4,4,0,0,0-1.43-.68c-.51-.08-.88-.06-1,.11a.36.36,0,0,0-.11.26c0,.56.79.7.85.73l.22,0c-.08-.09-.45-.43-.42-.6l.14-.17Zm.05.56s-.7-.14-.7-.56l.09-.13c.12-.09.34-.17.93-.06a4.48,4.48,0,0,1,1.35.62l.08-.11c-.13-.06-1.49-.68-1.85-.43h0a.34.34,0,0,0-.22.26.66.66,0,0,0,.28.56l0-.14Zm-.28-3.58s-.62-.11-.6-.48l.06-.11c.08-.08.31-.14.82,0A3.09,3.09,0,0,1,374,79l.09-.08c-.15-.06-1.3-.6-1.6-.37h0a.3.3,0,0,0-.2.2c0,.14.05.31.25.51Zm-1.1-7.15s-.62.14-.73-.2l0-.14c.05-.11.22-.25.73-.36a4.17,4.17,0,0,1,1.27.05l0-.11c-.14,0-1.4,0-1.63.28a.28.28,0,0,0-.11.25c0,.14.17.26.42.37v-.14Zm2.62-8.39s-.76.17-.93-.31c0,0-.2-.42.88-.65a6.18,6.18,0,0,1,1.49.06s-1.55-.06-1.77.28c0,.06-.37.34.33.62"></path><path class="cls-3" d="M373.79,63c.17-.23,1.13-.29,1.72-.26h.22l-.16-.14a4.06,4.06,0,0,0-1.55-.08c-.12,0-.76.14-.93.48a.52.52,0,0,0,0,.25c.2.51,1,.34,1,.34l.22-.06c-.11-.06-.56-.2-.6-.4l.08-.14Zm.26.47s-.71.14-.85-.25l0-.14c0-.11.25-.28.81-.4a4.1,4.1,0,0,1,1.44,0l.06-.14c-.17,0-1.6,0-1.83.31a.37.37,0,0,0-.12.31c0,.17.2.31.48.42l0-.17ZM359,62.65s-.76.08-.9-.4c0,0-.14-.45.93-.57a5.79,5.79,0,0,1,1.49.23s-1.55-.23-1.8.08c0,0-.4.31.29.65"></path><path class="cls-3" d="M358.73,62.09c.17-.2,1.15-.15,1.74-.09l.23,0-.14-.17a4.1,4.1,0,0,0-1.55-.25c-.17,0-.76,0-1,.4-.08.14-.06.25,0,.25.14.54.93.45,1,.45l.22,0c-.11,0-.53-.25-.56-.45l.08-.14Zm.22.5s-.7.09-.82-.33l0-.15c.09-.11.28-.25.85-.31a4.94,4.94,0,0,1,1.43.2l.06-.14c-.17,0-1.58-.2-1.86.11a.36.36,0,0,0-.14.29c0,.16.17.31.42.45l0-.12ZM355.49,55s-.68.08-.79-.34c0,0-.14-.4.81-.48a4.41,4.41,0,0,1,1.3.2s-1.33-.2-1.58.09c0,0-.33.22.26.53"></path><path class="cls-3" d="M355.29,54.51a3,3,0,0,1,1.52-.06l.2,0-.14-.14c-.17-.17-1.13-.2-1.32-.23s-.68,0-.85.34,0,.65.82.62l.2,0c-.11,0-.45-.2-.48-.4l.06-.14Zm.17.45s-.62.06-.7-.28l0-.14c0-.09.25-.23.73-.29a4,4,0,0,1,1.24.2l.05-.11c-.14,0-1.38-.2-1.63.11a.25.25,0,0,0-.11.26c0,.14.14.28.36.4l0-.14Zm-5-6.34s-.6.31-.85,0c0,0-.25-.31.6-.73a4.35,4.35,0,0,1,1.28-.26s-1.32.28-1.43.62c0,0-.29.31.4.42"></path><path class="cls-3" d="M350.08,48.2c.09-.22.9-.48,1.4-.56l.17,0-.17-.08c-.22-.12-1.15.2-1.32.25-.4.2-.63.4-.68.6a.29.29,0,0,0,0,.22c.28.4.9.09.93.09l.17-.09c-.12,0-.54-.05-.6-.2l.05-.2Zm.34.34s-.56.28-.76,0v-.14c0-.11.14-.28.6-.51a3.8,3.8,0,0,1,1.24-.25V47.5c-.14,0-1.35.28-1.5.64v0a.26.26,0,0,0,0,.28c0,.11.22.2.48.25l0-.11Zm-.11,4.53s-.6.31-.85-.06c0,0-.25-.31.62-.73a4.62,4.62,0,0,1,1.27-.25s-1.33.28-1.44.62c0,0-.25.34.4.42"></path><path class="cls-3" d="M350,52.68c.08-.23.9-.48,1.4-.56l.2-.06L351.4,52c-.23-.12-1.16.2-1.33.25-.4.2-.62.4-.67.6s0,.23.06.23c.28.4.9.08.93.08l.2-.08-.2,0a.55.55,0,0,1-.4-.17l0-.17Zm.31.34s-.57.28-.76,0l0-.11c0-.12.14-.31.6-.51a3.75,3.75,0,0,1,1.24-.25V52c-.14,0-1.35.29-1.49.65v0a.26.26,0,0,0,0,.29c.06.11.22.2.51.25Zm-1-9.72s-.6.31-.84,0c0,0-.26-.31.62-.74a4.48,4.48,0,0,1,1.26-.25s-1.32.28-1.43.62c0,0-.26.34.4.42"></path><path class="cls-3" d="M349,42.91c.09-.23.9-.48,1.41-.6l.2,0-.17-.08a4,4,0,0,0-1.32.25c-.4.2-.63.4-.68.6s0,.23.06.23c.28.4.9.08.93.08l.2-.08-.2,0a.55.55,0,0,1-.4-.17l0-.17Zm.31.34s-.56.25-.76,0l0-.14c0-.12.16-.28.59-.51a3.8,3.8,0,0,1,1.24-.25V42.2c-.14,0-1.35.28-1.49.65v0c-.2.31.09.48.45.54v-.11Zm-.59-7.75s-.68.09-.79-.4c0,0-.12-.45.81-.56a4.13,4.13,0,0,1,1.3.22s-1.35-.22-1.58.12c0,0-.34.28.26.62"></path><path class="cls-3" d="M348.48,35c.17-.23,1-.17,1.52-.09l.2,0-.14-.17c-.2-.22-1.44-.25-1.35-.25-.45,0-.74.17-.85.4s.11.79.82.7l.2,0c-.09-.05-.48-.25-.48-.45l.08-.14Zm.17.47s-.62.09-.71-.33l0-.15c.06-.11.25-.25.73-.31a3.7,3.7,0,0,1,1.24.2l.06-.11c-.14,0-1.38-.22-1.63.11l0,0a.33.33,0,0,0-.11.28c0,.17.14.31.37.45v-.12Zm19.88,72.69s-.62-.45-.37-.9c0,0,.23-.43,1.07.22,0,0,.9.9.9,1.16,0,0-1-1.19-1.38-1.13,0,0-.45-.08-.22.65m.42,17.71a.71.71,0,0,1-.48-.81s.08-.57.93-.26c0,0,.93.6,1,.87,0,0-1-.87-1.35-.61,0,0-.42.14-.08.81m3.27-6.34-.29-.56a1.45,1.45,0,0,1-1.77-.25,1.65,1.65,0,0,0,2.06.81M383,93l-.81-.6a2.4,2.4,0,0,1-2.76.88A2.75,2.75,0,0,0,383,93m-5.6,16.14-.65-.6a2.1,2.1,0,0,1-2.5.51,2.41,2.41,0,0,0,3.15.08m4.8-.22-.48-.54a1.68,1.68,0,0,1-2,.2,1.89,1.89,0,0,0,2.51.34m-4.11-20.5-.57-.62a2,2,0,0,1-2.4.22,2.26,2.26,0,0,0,3,.4M366,59.82l-1.07,0s-.11,1.46-2.14,2.14A3.48,3.48,0,0,0,366,59.82m-18.64-27-.6.4a1.87,1.87,0,0,1-.45,2,2.34,2.34,0,0,0,1-2.37M346,38.09l-.62.36a1.86,1.86,0,0,1-.57,1.95A2.35,2.35,0,0,0,346,38.09m30.8,25.82-1,0s-.09,1.32-2,2a3.22,3.22,0,0,0,3-2m1.37,62.83-.34-.6s-1.57.34-2.25-.28c0,0,.48,1.38,2.6.87m1.44-4.9-.48-.48s-1.47.7-2.28.25c0,0,.81,1.24,2.76.23m.92-7.91-.56-.26-1.8-5.41.51.26m4.2-7.24-.65-.14L379,95.64l.62.14M375,122.54l-.45-.2L373.12,118l.4.2m2.14,11.6-.54-.31-1.32-5.8.51.31m7.6-39.93-.65,0L377,78.62l.6,0"></path><path class="cls-3" d="M376.78,78.53l4.48,5.58.84,0-4.5-5.57ZM381.9,84l-.64,0,.05,0L377,78.56l-.05.14.6.06-.06,0,4.37,5.38.05-.14Zm-2.62-13-.7.19.08,0-6.5-4.9,0,.2.68-.16-.06,0,6.53,4.84M374.1,64.8l-.67.28-7-4.14.65-.23"></path><path class="cls-3" d="M366.16,60.93l7.27,4.28c.08,0,1-.4.9-.36L367,60.62Zm7.91,3.78-.67.28h.05l-7-4.14v.2l.65-.22H367l7,4.08Zm-12.7-18L361,47l-5.27-1.8.4-.25"></path><path class="cls-3" d="M355.51,45.19,361,47.08l.56-.37-5.46-1.83-.57.31Zm5.83,1.46-.42.29H361l-5.27-1.83,0,.11.4-.23h-.05l5.29,1.78,0-.12Zm-19.43-1.18,3.69.34.23-.25-3.72-.34"></path><path class="cls-3" d="M342.13,45.3l3.58.31-.17.17L342,45.44Zm0-.08h0l-.23.22-.06.06,3.83.36.23-.25.06,0Zm-.46,1,3.69.4.23-.25L341.85,46"></path><path class="cls-3" d="M341.91,46l3.58.34-.14.17-3.58-.37.15-.14Zm0-.08h0l-.23.23-.08.05,3.83.4.22-.25.06-.06-3.8-.37Zm17.77-2.7-.54.34-6.73-2.31.51-.31"></path><path class="cls-3" d="M352.17,41.27c.08,0,7.43,2.54,7,2.4l.7-.45-7-2.34-.7.4Zm7.43,1.86-.53.34h.05l-6.73-2.31,0,.17.51-.31h-.06l6.76,2.25,0-.14Zm11.8,47.06h-.23l-1.49-1.91.2,0"></path><path class="cls-3" d="M369.51,88.16l1.64,2.09.42,0c-.14-.16-1.69-2.16-1.6-2l0,0a3,3,0,0,0-.42,0Zm1.89,2h-.23l.06,0-1.49-1.91-.06.14.2,0-.06-.09,1.5,1.92.08-.11Z"></path><path class="cls-3" d="M369.91,88.25l-.2,0h-.06l1.52,2h0l.22,0h.06l-1.58-2Zm1.49,1.91h-.2l-1.49-1.91,0,0,.2,0h0l1.49,1.91.06-.08Z"></path><path class="cls-3" d="M371.45,90.16,370,88.25l-.11.11h0l.05-.14-.2,0,.06.11,0-.06-.15,0,1.5,1.92.11-.12h0l-.06.15h.23l-.08-.12,0,.06Zm-.05-.08h-.23l0,.14h0l.09-.11-1.58-2-.06.11,0,.06,0,.11.31,0,.05-.14h0l-.12.11c.06.08,1.69,2.14,1.58,2l.05-.12,0,0,.06-.11-.11,0Z"></path><path class="cls-3" d="M369.85,88.28l1.55,2,.06-.14h-.29l.06,0-1.49-1.94-.06-.06-.05.11h.05l.2,0Zm.06-.11-.2,0h-.06l-.17,0,1.66,2.17.51,0L370,88.19l0,0ZM380,75.29l-.5.14-5-5.09.47-.11"></path><path class="cls-3" d="M374.33,70.3l5.21,5.27.67-.2L375,70.16ZM380,75.2l-.51.14.06,0-5.05-5.1v.17l.48-.11-.05,0L380,75.37ZM360.81,51.07h-.68l.67,1.18s0,.17-.22,0-1.27-.65-1.27-.65,1,1.38,2.25.93c0,0,.17,0-.05-.45a2.65,2.65,0,0,0-.71-1m20.62,61.45a1.18,1.18,0,0,1-.5.28c-.4.11-.46-.31-.48-.37s.56,0,.5-.22c0,0,.06-.09-.25-.4a15.89,15.89,0,0,0-1.38-1.07l-.08-.28a6.36,6.36,0,0,0,1.63.17s.23,0,.11-.2l.06-.17.51-.14a1.49,1.49,0,0,1,.36.5s.06.31-.48.4a2.68,2.68,0,0,1-1.29,0s-.2-.06,0,.08a14.16,14.16,0,0,1,1.21,1c0-.06.31.42.11.48m-4.51-35.79a1,1,0,0,1-.08.56c-.14.4-.51.17-.57.17s.31-.48.12-.54c0,0,0-.11-.48,0,0,0-1.07.25-1.69.47l-.28-.11A6.29,6.29,0,0,0,375,76.05s.15-.17-.11-.2l-.11-.14.17-.51a1.3,1.3,0,0,1,.62,0s.31.14,0,.62a2.7,2.7,0,0,1-.79,1s-.14.12.05.09a11.05,11.05,0,0,1,1.5-.4c0-.06.59,0,.53.16"></path><path class="cls-3" d="M374.89,76.84h0l0,0v.06l0,0c.36-.26,1-1.19.9-1.58a.41.41,0,0,0-.17-.2,1.52,1.52,0,0,0-.67,0l-.06,0-.2.6,0,0,.11.14,0,0h0l.08,0,0,0v0a6,6,0,0,1-1.07,1.19l-.08.08.42.17h0a12,12,0,0,1,1.66-.45c.31-.06.4,0,.4,0l.05,0c0,.14-.19.44-.25.53h.14l.06,0a.46.46,0,0,0,.6-.22l0,0a1.19,1.19,0,0,0,.08-.62v.06l0-.14c-.08-.14-.36-.17-.56-.17,0,0-.08-.08-1.55.37Zm1.94-.08h0a.83.83,0,0,1-.08.51c-.08.25-.28.16-.5.14l.05.11a.76.76,0,0,0,.17-.56l-.11-.12.05.06c0-.06-.11-.17-.56-.11-.06,0-1.1.25-1.69.48h.06l-.28-.12,0,.14a5.36,5.36,0,0,0,1.1-1.23l0,0s.09-.11.06-.2a.3.3,0,0,0-.2-.14l.06,0-.12-.14,0,.08.17-.5-.06.05a1,1,0,0,1,.6,0l.09.11a.56.56,0,0,1-.09.4,2.56,2.56,0,0,1-.76,1l-.08.17.17.05a13.12,13.12,0,0,1,1.49-.4.65.65,0,0,1,.45.11v0ZM369,64.23a.76.76,0,0,1,0,.47c-.06.34-.4.23-.45.23s.17-.42,0-.45c0,0,0-.08-.4,0a10.64,10.64,0,0,0-1.3.67l-.25-.05a4.6,4.6,0,0,0,.7-1.19s.09-.16-.11-.16l-.14-.12.06-.45a1.06,1.06,0,0,1,.53-.08s.26.06.12.51a2.38,2.38,0,0,1-.48,1s-.12.12,0,.06a10.3,10.3,0,0,1,1.16-.56s.5,0,.48.14"></path><path class="cls-3" d="M368.55,64.08c-.28.09-1.12.57-1.15.57h0l0,0v0l0,0c.25-.26.67-1.13.47-1.44s-.64-.06-.73-.06l0,0-.08.51,0,0,.11.11,0,0h.08v0a3.91,3.91,0,0,1-.7,1.16l0,.08.37.06,0,0a13.13,13.13,0,0,1,1.3-.65c.26-.08.31,0,.31,0h.06a1.09,1.09,0,0,1-.06.36l-.05.12.11,0c.45,0,.48-.2.5-.28a.89.89,0,0,0,0-.51v0l0-.12a1.64,1.64,0,0,0-.54,0Zm.43.17a.89.89,0,0,1,0,.43c0,.16-.11.2-.39.2l.08.08c0-.06.14-.34.06-.48l-.12-.06.06,0c-.14-.28-1.58.54-1.8.68H367l-.26-.06,0,.11a4.69,4.69,0,0,0,.71-1.18v-.17l-.17-.08,0,0-.11-.12,0,.06.08-.45,0,.06a1.28,1.28,0,0,1,.48-.09l.08.09c.06.08,0,.2,0,.33a2.07,2.07,0,0,1-.45.93l0,.15h.17s.87-.48,1.13-.57.36,0,.36,0l0,.06ZM349,38.63a.83.83,0,0,1,.17.45c.06.34-.28.34-.34.36s0-.47-.14-.42c0,0-.05-.05-.36.17a12.52,12.52,0,0,0-1,1l-.25,0a4.85,4.85,0,0,0,.28-1.35s0-.17-.17-.12l-.14,0-.08-.45a1.06,1.06,0,0,1,.48-.25s.28,0,.28.44a2.64,2.64,0,0,1-.14,1.08s-.06.14.05,0a8.6,8.6,0,0,1,.91-.9s.45-.22.48,0"></path><path class="cls-3" d="M348.53,38.63c-.22.17-.9.9-.93.9l0,0h0l0,0v0c.17-.34.25-1.3,0-1.52l-.2-.09a1.76,1.76,0,0,0-.51.26l0,0a2.74,2.74,0,0,1,.08.5l0,0,.14.06h.11v.05a4.79,4.79,0,0,1-.28,1.3v.08h.08l.25,0h0v0c.34-.4,1-1,1-1.05.2-.17.28-.17.28-.17h0l0,0h.05c.09.09.06.4.06.48l.11-.06h0c.12,0,.4-.08.34-.42a1.2,1.2,0,0,0-.2-.48l0,0-.09-.08a1,1,0,0,0-.45.14Zm.45,0a.8.8,0,0,1,.17.4c0,.2-.06.22-.31.31l.09.05c0-.05,0-.37-.12-.48l-.11,0,.06,0s-.14-.08-.45.17c0,0-.71.65-1.05,1l.06,0-.25,0,.05.09a4.89,4.89,0,0,0,.31-1.36v0l-.05-.17h-.14l-.14-.05,0,.05L347,38.3l0,.05a.9.9,0,0,1,.42-.22l.12,0c.2.17.11,1,0,1.38l0,.17.14,0a12.38,12.38,0,0,1,.9-.9c.17-.08.34-.14.37-.11l0,0Zm27.74,76.71-.28-.31a1.77,1.77,0,0,0-1,.14s-.4.11-.37-.12c0,0,0-.42.31-.42a6.72,6.72,0,0,0,1.27,0l-.23-.28a2.12,2.12,0,0,1-.87,0s-.43,0-.43-.65c0,0,0-.11.48-.17a5.16,5.16,0,0,1,1,.06l-.28-.37a6.1,6.1,0,0,0-1.21.06c-.31,0-.54.31-.51.48s0,.36.51.67c0,0-.82.28-.54.71,0,0,.2.42,1,.4a4.7,4.7,0,0,0,.51-.12,1.87,1.87,0,0,1,.67-.08"></path><path class="cls-3" d="M376.05,115.37l-.51.14c-.71,0-.9-.34-.9-.34-.06-.31,0-.2,0-.23a.83.83,0,0,1,.53-.36l.14-.06c-.11-.08-.53-.25-.6-.67v-.06l.06-.11a.56.56,0,0,1,.4-.25,7.75,7.75,0,0,1,1.18,0l-.05,0,.28.4.08-.14c-.28-.09-1.43-.12-1.52.17v0c0,.68.48.74.48.74h0a2.33,2.33,0,0,0,.91,0l-.09,0,.25.28,0-.11a4.09,4.09,0,0,1-1.21,0c-.31,0-.4.34-.4.51l.06.17c.11.08.36,0,.42,0a2,2,0,0,1,.93-.14l-.06,0,.28.3.09-.14a1.21,1.21,0,0,0-.73,0m.42-.37a1.54,1.54,0,0,0-1,.17h-.22v0s0-.37.25-.37a4.9,4.9,0,0,0,1.27,0l.11-.06-.05-.08-.23-.28,0,0h-.05a2.26,2.26,0,0,1-.82,0h0s-.33,0-.33-.57v0s.05-.08.42-.11a3.89,3.89,0,0,1,1.13.08l-.4-.56c-.93,0-1.52,0-1.75.37l-.05.25v0c0,.17.05.4.53.67l0-.14s-.51.17-.62.48a.36.36,0,0,0,.06.37s.22.45,1,.45a2.85,2.85,0,0,0,.5-.14,1.54,1.54,0,0,1,.6-.06l.26.06a6.91,6.91,0,0,1-.57-.51Zm2.76-14.62-.29-.31a1.94,1.94,0,0,0-1,.14s-.4.12-.37-.11c0,0,0-.45.31-.45a6.72,6.72,0,0,0,1.27,0l-.23-.28a2,2,0,0,1-.87,0s-.42,0-.4-.62c0,0,0-.14.48-.17a7.7,7.7,0,0,1,1,0l-.28-.37a8.31,8.31,0,0,0-1.22.06c-.31.06-.53.31-.5.48s0,.37.5.68c0,0-.81.25-.53.73,0,0,.2.42,1,.4a2.85,2.85,0,0,0,.5-.14,1.78,1.78,0,0,1,.65-.06"></path><path class="cls-3" d="M378.55,100.35c-.17.06-.48.14-.48.14a.89.89,0,0,1-.9-.36l0-.23c.05-.19.4-.33.53-.36l.17-.06c-.14-.11-.54-.25-.62-.7l.06-.14a.58.58,0,0,1,.4-.26,11.62,11.62,0,0,1,1.18,0l-.06,0,.29.36.08-.11a4.42,4.42,0,0,0-1,0c-.45,0-.53.16-.56.2v0a.67.67,0,0,0,.48.74h0a2.27,2.27,0,0,0,.9,0l-.08,0,.22.28,0-.11a8.56,8.56,0,0,1-1.24,0c-.31,0-.4.33-.4.5l.06.17a.51.51,0,0,0,.42,0,1.74,1.74,0,0,1,.93-.14l-.06,0,.28.31.09-.11a1.42,1.42,0,0,0-.71,0M379,100a2.07,2.07,0,0,0-1.07.14h-.22v0s0-.37.25-.37c1.33.09,1.3-.08,1.38-.08-.08-.08-.4-.48-.33-.4a2.19,2.19,0,0,1-.88.06c-.25,0-.36-.28-.33-.57v0s.05-.08.42-.11a2.44,2.44,0,0,1,.93.06l.2,0-.4-.56a8.94,8.94,0,0,0-1.27,0,.88.88,0,0,0-.51.31l-.05.25a1.15,1.15,0,0,0,.53.74l0-.15s-.51.17-.62.48a.35.35,0,0,0,.06.37s.22.45,1,.45a2.85,2.85,0,0,0,.5-.14,1.54,1.54,0,0,1,.6-.06l.26.06L379,100Zm.29-17.09-.37-.23a1.79,1.79,0,0,0-.9.4s-.34.2-.4,0c0,0-.11-.42.2-.51A6.18,6.18,0,0,0,379,82.2l-.28-.2a1.71,1.71,0,0,1-.82.25s-.4.09-.56-.51c0,0,0-.11.42-.28a3.68,3.68,0,0,1,.93-.2l-.37-.28a9.61,9.61,0,0,0-1.15.37.62.62,0,0,0-.37.6c.06.15.12.34.68.51,0,0-.73.48-.31.84,0,0,.31.34,1,.11a2.46,2.46,0,0,0,.45-.25,1.59,1.59,0,0,1,.62-.25"></path><path class="cls-3" d="M378.64,83.06a2,2,0,0,1-.45.26h0c-.68.2-1-.09-1-.11l-.08-.2c0-.2.31-.43.4-.51l.14-.08-.17-.06c-.54-.17-.57-.37-.62-.48v-.14a.58.58,0,0,1,.31-.34,8.52,8.52,0,0,1,1.12-.34l-.08,0,.37.28.05-.14c-.31,0-1.43.25-1.43.56v0c.16.65.64.56.67.56h0a1.86,1.86,0,0,0,.88-.28h-.09l.28.2v-.11a6.67,6.67,0,0,1-1.18.34c-.28.08-.28.42-.25.61l.11.15c.11.05.28,0,.42-.09a1.7,1.7,0,0,1,.85-.36l-.06,0,.34.22,0-.14a2.07,2.07,0,0,0-.6.23m.34-.45a1.87,1.87,0,0,0-1,.42h0l-.26.08v0s-.08-.37.15-.43a5.9,5.9,0,0,0,1.23-.4l.09,0-.43-.28c-.62.31-1.12.5-1.32-.17v0s0-.08.37-.22a4.07,4.07,0,0,1,1.1-.23l-.54-.45c-.76.2-1.1.34-1.21.37-.34.17-.48.54-.4.7l0,0a1,1,0,0,0,.7.54l0-.14A1,1,0,0,0,377,83a.46.46,0,0,0,.14.34s.34.4,1.13.14c.42-.2.73-.48,1-.48l.26,0a4.23,4.23,0,0,1-.62-.37Zm-12.14-3.3c.17,0,.36.31.45.4l.06.14-.06,0s-.37,0-.87,0c0,0-.6-.09-.82.33s.45,1.38,1.4,1.38h.14l-.11-.08a4.91,4.91,0,0,1-.88-.76c-.14-.14-.31-.42-.25-.48s.06-.14.4-.11a7.07,7.07,0,0,0,1.13.06c.33,0,.53-.17.36-.43a3.19,3.19,0,0,0-.5-.6h0l-.42.12v0Zm4.87,44.36a1.87,1.87,0,0,0,1.24-.23l.22.17c-1.63,1.46-.7,3.46-.65,4.14.06.87-.9,0-1.4-.73.33,0,.6.61.84.78s.14-.31.06-.47c-.7-2.4.33-3.41.33-3.41a1,1,0,0,1-.64-.26"></path><path class="cls-3" d="M372.33,123.9a1.86,1.86,0,0,0-.45.81,4.42,4.42,0,0,0,.08,2.62c.06.14.11.42.06.45l-.09,0a1.22,1.22,0,0,1-.31-.33c-.45-.6-.56-.42-.67-.48l.05.08c.23.31,1,1.3,1.38,1.1.6-.34-1.18-2.73.76-4.5h0c0-.12-.2-.2-.28-.23h0a1.76,1.76,0,0,1-1.21.23l-.11,0,.08.08a1.12,1.12,0,0,0,.68.26l0,0Zm-.62-.17a1.83,1.83,0,0,0,1.27-.26h-.06l.23.14,0,0c-2,1.77-.25,4.22-.76,4.47-.31.15-1.07-.78-1.26-1.06l0,0c.31.06.56.6.84.79l.17,0c.12-.09,0-.45-.05-.57-.68-2.33.31-3.35.33-3.35l.06,0a1.2,1.2,0,0,1-.73-.23l0,.06Zm-3.44-4.08s1.27,1.52,1.33.11a2.12,2.12,0,0,0-1.1-2c-.42-.2-.9.37-.9.37l-.23-.76-.48-.2.45,3.12.62.51-.14-1.4a.94.94,0,0,1,.79-.82c.11,0,.2.06.31.6s-.65.45-.65.45m3.27-31.08s1.21.36.76-.43a1.31,1.31,0,0,0-1.3-.64c-.31,0-.33.5-.33.5l-.4-.31-.34.06,1.35,1.52.51.06-.57-.71a.58.58,0,0,1,.12-.7c.05-.06.11,0,.36.2s-.17.45-.17.45m-1.21-23.74c.76-.17.9.11.9.17a1.38,1.38,0,0,1-.39,1s-.62-.71-.51-1.13m1,1.24a.94.94,0,0,0,.43-.82c-.12-.14.76.2.76.2s.2-.28-1.19-.81c-1.59-.6-1.57.22-1.57.22s-.06,1.18.79,1.41a.91.91,0,0,0,.79-.2M363,46.57s.81-.31.7.5c-.05.06-.87-.64-1.43-.22s-2.85,3.26-3.38,3.71c1.8-.56,3.26-3.32,3.26-3.32s.31-.4,1.52.74c.77-.06.88-.45.85-.37.17-1.38-.17-1.49-.25-1.55-.65-.34-1.27.51-1.27.51m-17.77-11s.45-.45.62.14c0,.06-.79-.2-1,.26s-1,3-1.27,3.52a5.94,5.94,0,0,0,1.32-3.21s.12-.37,1.27,0c.51-.25.48-.53.48-.47-.28-1-.54-1-.62-1-.6-.06-.76.7-.76.7m9.41,3.86s.67-.2.08-.42c-.06,0-1.63-.42-2.06.11,0,.09-.2.23,1.6.93.31.11.76.45.68.51a10.32,10.32,0,0,1-2.88-1.33c-.2.31.65.77.71.79,2,1,2.11.82,2.2.76a.49.49,0,0,0,.2-.48c0-.05.14-.08-1.27-.73a6.34,6.34,0,0,1-.82-.42c-.08-.08.2-.17,1.24,0a.55.55,0,0,1,.31.25m17.63,72.68a3.79,3.79,0,0,1-1.5.12c-.28-.17-.42-1.07-.42-1.07l1.92,1m-4.51-.14s-.2-.7.71-.81c.05.56-.71.81-.71.81m14.05-5.49c.09.2.06.28-.11.48a5,5,0,0,1-1.72.17,56.8,56.8,0,0,0-7.71-.37,2.87,2.87,0,0,0-3,2.74,3.23,3.23,0,0,0,0,.44s-.45-.4-.64-.33.16.53.16.53-1.88.45-2,1.3a1.28,1.28,0,0,0,1.18,1.39,1.3,1.3,0,0,0,.81-.21c.09.56.26,2,.26,2s0,.36.93.81c.6.14,1,.23,2.25-.48.06,0,.6-.56-.79-.87a1.83,1.83,0,0,1-1.55.45l-.14-2.82a2.34,2.34,0,0,0,1.72,1.18,3.93,3.93,0,0,0,1.77-.14c.79-.2.4-.6.4-.6s-2.5-1.32-3.29-1.86c.14-2.7,1.77-2.73,2-2.75s3.06-.09,3.71-.09a37.55,37.55,0,0,0,6.45.14c.73-.31-.82-1.55-.7-1.15"></path><path class="cls-3" d="M370.24,99.59c-1.07.34-.81,1.72-.81,1.72s-.09,1.1,3.32,1.19c3.18.08,7.79,0,7.79,0l-.56.65,3.41-.93,0,0-1.21-.57s-7.38.11-11.24,0c-1.07-.14-.53-1.21-.31-1.29a1.25,1.25,0,0,1,1.16,0,9.53,9.53,0,0,1-1.35-7.24,3.34,3.34,0,0,0,3,1.77,2.16,2.16,0,0,0,.67,2s-1.71.82,0,1.92c.61.48,2.05-.4,2.05-.4a2.85,2.85,0,0,0-1-.42c-.14.28-.67.14-.67.14s-.26-1,1.21-.76c.11-.06-1.55-1.35-1.3-2,.25-1,1.6-1.6,1.58-1.6a2,2,0,0,0-1-.42s-1,.6-1.23.76a1.19,1.19,0,0,1-1.38,0,12.64,12.64,0,0,1-1.41-1.69A3.82,3.82,0,0,1,374,91c2.34-.14,4.51-.19,6.37-.36a5.35,5.35,0,0,0,2.73-.88l-1.07-.5a7.12,7.12,0,0,1-3.21.7,32,32,0,0,0-5.18.09,7.07,7.07,0,0,0-3.38,1.23s-1.44-2.89-.45-4.14a2.69,2.69,0,0,1,3.43-.59c.34.2.48-.2.48-.2a4.07,4.07,0,0,0-4.48.08s-1.94,1.6.43,5.58c0,0-1.44,2.59.62,7.63m.81-16.14a3.58,3.58,0,0,1,.93.09,2.31,2.31,0,0,1-3,1.31,1.93,1.93,0,0,1-.38-.19,2.24,2.24,0,0,1,.12-3.16,2.3,2.3,0,0,1,.87-.5,88.56,88.56,0,0,0,10.53-2.39,5.25,5.25,0,0,1,1,.33c-1,1.5-9.71,2.15-10.92,2.82-1.92,1.18-.6,2.6-.6,2.6s.2,0,1.39-.9M354.62,44l-.9.57s0,.28,0,.62a21.8,21.8,0,0,0,.14,5.59c-.05.6-.33.56-.33.56s-5.69-1.79-6.48-2.81c-.76-.82.06-1.21.06-1.21a7.75,7.75,0,0,1,2-.9c2.15.44,2.12-.79,2.17-1,1.16-1.07-.56-7.32-.34-7.72.17.06.51.57.51.57s-.14-1.24-.25-2.43c1.86.26,9.49,7.35,9.74,7.89s-2.28-.23-5-.37a31.39,31.39,0,0,0,5.27,1c1.49,0,.53-1.36.53-1.36a57.23,57.23,0,0,0-9.52-7.6,1.11,1.11,0,0,0-1,.17l0-.28s-.9.42-.93.6c-.7,2.84.88,6.48.57,9.15-.06.68-1.41.25-1.41.25A17.65,17.65,0,0,0,343,43.75C338.82,44,339.8,42,339.8,42a5.32,5.32,0,0,1,3.44-2.59A4.6,4.6,0,0,0,339,42.75s-.42,1.75,2.53,1.89a14,14,0,0,1,4.51.56l2.4,1a4.62,4.62,0,0,0-2.37,1.6c-.7,1.26,1.1,2.11,1.1,2.11s4.7,2.14,5.43,2.28,2.4.14,2.06-2.56c-.51-3.24-.17-3.3-.17-3.3l.45.48L354.62,44Z"></path><path class="cls-3" d="M368.36,74.05c.36-.2,1,.43,1,.88s.11,3,.11,3.85a9.42,9.42,0,0,1-3-3.91,5.91,5.91,0,0,0,1.83-.82m-3.49-5.13s1.18,0,1.29.54c-.08.56-1,.79-1.6.11.09-.56.31-.65.31-.65m3.27-12c.65,0,.17.92.17.92a2,2,0,0,1-.17-.92m.76,14.64c3.21-1.24,8.84-3.75,9.6-5l-1.27-.11a53.33,53.33,0,0,1-11.34,5.32c-.6.2-1.1-1-1.1-1s3.1-.28,2.31-2c-.74-1.3-3-.6-3.21,0-1.44-1.46.45-2.31.45-2.31s-3.72-1-3.19-4.3a39.63,39.63,0,0,1,1.3-4.4,2.53,2.53,0,0,0,1.38.25,9.78,9.78,0,0,0,2.31-1.26l.25.4.67,0a5.49,5.49,0,0,0,.45,1.63c.37.67,1,.14,1,.14s2.05-1.77.4-2.73c-.51-.26-1.13.31-1.78.05s-.28-.76,0-1.52l-1.1.42a3,3,0,0,1-1.21,1.8c-.76.45-2.11-.28-2.11-.28l1.52-6.48s0-.25.37-.08c2.73.7,8.92,10.39,8.87,10.73s-3.95-.9-4.34-.17a36.25,36.25,0,0,1,4.62.79c1,0,.84-.73.84-.73s-6.14-9.78-9.63-11.38l-.45.14-.48-.11a1,1,0,0,0-.79.48c-.22.45-1.49,6.14-1.71,6.25a6.6,6.6,0,0,1-4-3.69c-.95-2.57,2.74-3.69,2.93-3.86a4,4,0,0,0-3.88,3,4.27,4.27,0,0,0,1,2.93,14.15,14.15,0,0,0,3.58,2.71s-.42.95-.48,1.12-.25.26-.6.31-1.27-1.4-1.27-1.4-.81.15-.87.34a.89.89,0,0,0,.08.73,21.21,21.21,0,0,0-5.49-3.18c-1.49-.9.31-1.83.45-1.83.74-.25,3.16-.14,3-.31a6.08,6.08,0,0,0-3.35-.23,2.29,2.29,0,0,0-1.6,1.64c-.26,1.4,3.63,2.62,4.76,3.43a10.86,10.86,0,0,1,2.39,2.71l1-.2.2-1s.25.74,1.69-.16c-.85,2.14-1.72,5,.11,6.36a20.69,20.69,0,0,0,1.78,1.29,1.37,1.37,0,0,0-.57,1.6A2.82,2.82,0,0,0,363.5,70c.37,3.1,2.34,2.65,2.34,2.74a2.43,2.43,0,0,0-.45,1.83l-.62.2s-.17.61.7.36a10.54,10.54,0,0,0,3.69,4.53l.45.88.93-.06s-.06-4-.11-5.77a2,2,0,0,0-2.38-1.52,1.88,1.88,0,0,0-.42.14c-.31.14-1.27,1-1.21.79,0-1.66,2.42-2.51,2.48-2.51"></path><path class="cls-3" d="M277.12,36.55c0,.08.37,1.26.34,1.18s8.67,9,8.45,9.4c0,0,.11-1.24-1.72-3.32S279,38.18,279,38.18l.81-.06-2.73-1.58Zm-1.86,1.83-.37,0-.08-.14c0-.06.08-.25.34-.11l.11.2Zm.2,0-.4-.51a.16.16,0,0,0-.21-.11.16.16,0,0,0-.1.08,1.09,1.09,0,0,0-.08.73c.14.45.65.2.65.2l.05.09a17.13,17.13,0,0,1-.65,2.33l.06,0a3.72,3.72,0,0,0,.73-2.34l.06-.08h.28l-.08-.4Z"></path><path class="cls-3" d="M275.71,38.38l.09.4.05-.06h-.31l-.08.11a3.57,3.57,0,0,1-.74,2.31l-.08,0,.06,0a19.12,19.12,0,0,0,.64-2.36l0-.14h-.09a.55.55,0,0,1-.42,0c-.28-.11-.23-.67-.09-.9l.12-.08.11.11.4.48v0h.36Zm-.22,0-.4-.51-.2-.14c-.31,0-.51,1-.06,1.15a.61.61,0,0,0,.51-.05h0v.05a14,14,0,0,1-.68,2.48l.12-.08.08-.06a3.78,3.78,0,0,0,.73-2.36l0,0a.91.91,0,0,1,.23,0l.05,0c0-.15-.08-.31-.11-.48h0l-.31,0,.06,0Z"></path><path class="cls-3" d="M274.89,38.12s-.11.06-.14.17l.12.17.4-.06h0v0s0-.06-.14-.23c-.34-.06-.22,0-.25,0Zm.37.23c-.11,0-.28.08-.31,0l-.08-.08.08-.11.17,0,.11.16Zm10.62,1.21s-.56,0-.54-.14c0,0,.09-1,1.3-.65,0,0,.2.31-.76.79m1.46-1.6c-1.52-.9-2.25-.25-2.25-.2a1.77,1.77,0,0,0-.17,2,1.22,1.22,0,0,0,1.5.85l.16-.06a3.94,3.94,0,0,1,1.24-.82s.6-.16.73.2l0,.4-.23,1c-.06.09-.82,2.31-.9,2.48s-1.72,3.52-1.8,3.66-1.77,3.24-1.86,3.44,3.18-3.6,3.52-4.11c.51-1.1,2.22-5.07,1.92-6.23A4,4,0,0,0,287.35,38m-9.55,3.83.4.82,1.13-.34-.4-.84m-4.56,3.41.31.84,1.15-.25-.31-.88"></path><path class="cls-3" d="M275.12,43.84l.31.84,1.15-.25-.31-.87m7.5,2.75s.47.62.11,1c0,0-.31.37-1-.53a4.71,4.71,0,0,1-.56-1.38s.6,1.43,1,1.49c0,0,.42.22.4-.54"></path><path class="cls-3" d="M283.37,46.8c-.28-.06-.73-.93-1-1.47l-.08-.2-.06.23c-.08.31.62,1.55.56,1.46.31.43.6.62.82.62a.33.33,0,0,0,.25-.08c.4-.4-.08-1-.11-1.07l-.14-.2c0,.17.05.62-.11.7Zm.34-.43s.42.57.11.88l-.14,0c-.14,0-.37-.11-.7-.56a4,4,0,0,1-.54-1.33h-.14c.06.17.62,1.47,1,1.55h0a.35.35,0,0,0,.34,0c.14-.08.2-.31.17-.62Zm.25-5.49s.37.68,0,1c0,0-.36.31-.87-.68a4.55,4.55,0,0,1-.34-1.46s.37,1.49.76,1.63c0,0,.4.28.48-.48"></path><path class="cls-3" d="M283.51,41.27c-.25-.08-.56-1-.73-1.57l-.06-.2-.08.2a3.82,3.82,0,0,0,.34,1.52c0,.08.33.67.73.76a.28.28,0,0,0,.25-.06c.45-.34.06-1,.06-1.07l-.12-.2c0,.09,0,.6-.2.68l-.2-.06Zm.37-.36s.34.62,0,.87l-.17,0c-.14,0-.34-.17-.62-.68a5.05,5.05,0,0,1-.34-1.39h-.14c0,.16.4,1.54.82,1.69h0a.31.31,0,0,0,.31,0,.76.76,0,0,0,.28-.56l-.11,0Zm-4.73-5.15.17.7s.95-.14,1.69,1.13a2.36,2.36,0,0,0-1.86-1.83m-1.83,15.4.17.7s1-.14,1.69,1.13a2.33,2.33,0,0,0-1.86-1.83m5.86-18.31.28.43L281.83,39l-.26-.42"></path><path class="cls-3" d="M281.82,39.22l1.69-5.91v0l-.4-.6c0,.08-1.69,6-1.66,5.94a6,6,0,0,1,.37.6Zm1.27-6.31.28.42v0L281.74,39l.14,0-.26-.42v.06l1.6-5.78-.14.06Zm-6,5.83s-.2-1.07-.6-.42a1.12,1.12,0,0,0,0,1.24c.15.2.54.08.54.08l-.08.43.17.22.61-1.6-.14-.42-.3.7a.5.5,0,0,1-.6.17c-.06,0-.09-.08,0-.37s.37,0,.37,0"></path><path class="cls-3" d="M253.16,128.68l1.38-.14s11.4-7,11.74-6.73a6.42,6.42,0,0,0-4.11,1.21c-2.8,1.55-6.7,4-6.7,4l.17-.84-2.48,2.53Zm-.65-61.81s-.31.23-.42.2l-.17-.14c0-.08,0-.34.37-.22l.22.16Zm.23-.05-.62-.51a.21.21,0,0,0-.29-.08.21.21,0,0,0-.11.16,1.52,1.52,0,0,0,.11,1c.31.48.87,0,.87,0l.09.11a21.4,21.4,0,0,1-.06,3.1l.09-.09a4.65,4.65,0,0,0,.17-3.1l0-.11.34-.05-.22-.45-.4,0Z"></path><path class="cls-3" d="M253.07,66.73l.26.45,0-.05-.36.08-.06.14a4.78,4.78,0,0,1-.17,3.1l0,.08.08,0a23.22,23.22,0,0,0,.06-3.12l-.06-.15-.08,0a.84.84,0,0,1-.54.2c-.4,0-.51-.79-.42-1.12l.14-.14.2.08a3,3,0,0,1,.62.51v0h0l.36-.12,0,0Zm-.28.06-.65-.51-.25-.11c-.4.08-.31,1.35.28,1.41a.87.87,0,0,0,.6-.2,18.4,18.4,0,0,1-.06,3.32l.09-.11,0-.09a4.71,4.71,0,0,0,.17-3.12l0-.06a.65.65,0,0,1,.31,0h.06c-.11-.18-.2-.36-.29-.54h0l-.37.11.06,0Z"></path><path class="cls-3" d="M252.28,66.65c-.28-.06-.42,0-.42.28s.17.17.2.17.34-.11.48-.2v0s0-.05-.26-.22Zm.2.2c-.11.08-.31.2-.4.17l-.14-.12.06-.2a.31.31,0,0,1,.25,0h0l.2.17Zm.37,3.35s-.26.37-.43.37c0,0-.2,0-.22-.12s-.14-.4.34-.42Zm.22-.17-.93-.34a.27.27,0,0,0-.37.06.29.29,0,0,0-.05.2,1.83,1.83,0,0,0,.51,1c.56.45,1-.31,1-.31s.14.08.14.08a28.19,28.19,0,0,1,1.16,3.58l0-.14a5.81,5.81,0,0,0-1-3.66v-.15l.37-.2-.45-.42-.4.26Z"></path><path class="cls-3" d="M253.44,69.8l.45.43,0-.06-.4.25v.17a5.45,5.45,0,0,1,1,3.6l-.06.14h.08a25.54,25.54,0,0,0-1.15-3.6l-.11-.14-.09.06a1,1,0,0,1-.53.42c-.48.09-.9-.7-.93-1.13l.11-.22a.34.34,0,0,1,.28,0,6.08,6.08,0,0,1,.93.34l0,0,.4-.28-.06,0Zm-.34.2-1-.34c-.28-.14-.48,0-.48.29,0,.45.45,1.29,1,1.21a1.28,1.28,0,0,0,.62-.48l0,.08c.06.2,0-.51,1.19,3.72,0-.11.05-.17.08-.28a5.61,5.61,0,0,0-1-3.66v-.09a.86.86,0,0,1,.33-.2l.06,0-.54-.48L253,70l.06,0Z"></path><path class="cls-3" d="M252.51,70c-.34,0-.45.22-.37.48s.26.14.28.14c.17,0,.4-.31.45-.43s-.22-.16-.36-.2Zm.28.14a1.06,1.06,0,0,1-.37.36l-.2-.08V70.2a.39.39,0,0,1,.28-.12,2.85,2.85,0,0,1,.31.12l0,0Zm-3,9.15s-.23.4-.37.42l-.25-.08c0-.09-.17-.37.28-.45Zm.22-.2a6.11,6.11,0,0,0-1-.23c-.45-.16-.4.29-.4.29a1.86,1.86,0,0,0,.62,1c.6.37,1-.42,1-.42s.14.05.14.05a31,31,0,0,1,1.52,3.44l0-.14a5.64,5.64,0,0,0-1.41-3.52l0-.14.34-.26-.48-.37-.37.31Z"></path><path class="cls-3" d="M250.34,78.87l.48.36v0l-.37.28,0,.2a5.45,5.45,0,0,1,1.41,3.49l0,.14H252a29.51,29.51,0,0,0-1.52-3.46v0l-.14-.15-.09.06a1.08,1.08,0,0,1-.51.48.63.63,0,0,1-.42-.09,1.58,1.58,0,0,1-.6-1l.09-.22c.05-.06.14,0,.25,0,1,.2.87.22,1,.25l0,0,.33-.31v0Zm-.31.22a6.52,6.52,0,0,0-1-.25.33.33,0,0,0-.33,0c-.37.28.33,1.6,1,1.4a1.05,1.05,0,0,0,.54-.54v0l.05.08a24.65,24.65,0,0,1,1.55,3.58l0-.15,0-.14a5.84,5.84,0,0,0-1.4-3.55v-.08c0-.06.17-.14.31-.23l0,0,0,0-.54-.4a3.65,3.65,0,0,1-.36.31l.11,0Z"></path><path class="cls-3" d="M249.44,79.18c-.34,0-.42.25-.31.51a.25.25,0,0,0,.28.08c.17,0,.37-.37.4-.45s-.25-.11-.37-.14Zm.31.14c-.09.14-.26.4-.34.4l-.2-.06,0-.25c0-.08.11-.11.28-.14a1.09,1.09,0,0,1,.31.08v0Zm4.92,44.62a1.66,1.66,0,0,1,.14.54l-.17.11a.32.32,0,0,1-.24-.37.49.49,0,0,1,0-.11Zm0-.28a3.92,3.92,0,0,0-.64.42c-.34.17,0,.45,0,.45a1.66,1.66,0,0,0,1,.29c.56-.12.17-.91.17-.91s.11,0,.11,0a27.65,27.65,0,0,1,3.29,1.46l-.08-.11a6,6,0,0,0-3.27-1.58l-.11-.08,0-.4-.5,0,0,.43Z"></path><path class="cls-3" d="M254.59,123.28l.51-.06-.06-.06,0,.43.14.11a6.08,6.08,0,0,1,3.27,1.57l.08.12.06-.06a33.25,33.25,0,0,0-3.29-1.46h-.17V124s.22.42.08.68-.93.11-1.24-.12l-.14-.25.12-.14a5.16,5.16,0,0,1,.61-.43h0l-.05-.48,0,.06Zm.06.33a5.4,5.4,0,0,0-.68.46l-.17.2c-.05.42,1.3.92,1.52.42a.86.86,0,0,0-.11-.79v0l.08,0h0a14.05,14.05,0,0,1,3.26,1.47l.06-.06s0,.06-.09-.11a5.92,5.92,0,0,0-3.29-1.58c0-.08-.14.06-.08-.42v-.06h-.06l-.56.06.05.48.09-.12"></path><path class="cls-3" d="M254.4,124.07a.34.34,0,0,0,.08.48.33.33,0,0,0,.12,0c.11.06.2-.06.22-.11s-.08-.48-.14-.57-.2.06-.28.15Zm.22-.12a1,1,0,0,1,.14.48l-.14.09a.34.34,0,0,1-.2-.17l0-.26.2-.14Zm18.76-74s-.54.14-.57-.06c0,0-.08-1,1.16-.84,0,0,.28.28-.6.9m1.15-1.83c-1.66-.62-2.25.14-2.25.2a1.78,1.78,0,0,0,.2,2,1.2,1.2,0,0,0,1.59.58,1,1,0,0,0,.18-.1s.68-.91,1.07-1c0,0,.57-.28.76.06l0,.4-.05,1.07c0,.08-.43,2.4-.45,2.6s-1.08,3.74-1.13,3.94-1.18,3.49-1.24,3.69,2.51-4.11,2.76-4.68c.31-1.18,1.32-5.35.81-6.47a4.12,4.12,0,0,0-2.28-2.23M252.26,87.85s-.31.45-.45.31-.71-.67.33-1.4c0,0,.37.06.12,1.1M252,85.72c-1.67.6-1.6,1.55-1.58,1.6a1.75,1.75,0,0,0,1.4,1.38,1.2,1.2,0,0,0,1.59-.59,1.18,1.18,0,0,0,.07-.2,3.3,3.3,0,0,1,.17-1.46s.25-.57.62-.45l.28.28.65.84c0,.09,1.26,2.09,1.35,2.26s1.63,3.55,1.72,3.71,1.37,3.44,1.46,3.6-.79-4.76-.93-5.32c-.53-1.1-2.5-4.93-3.6-5.44a4.26,4.26,0,0,0-3.21-.22m3.44,33.54.74-1.77s.08.59.2.47a9.48,9.48,0,0,1,2.19-1.85c.62-.2,1.21-.6,3.16.5a31.12,31.12,0,0,1,3.71,2.48s3.33,4.2,3.41,4.4-6.17-5.19-6.67-5.52a12.48,12.48,0,0,0-2.85-1.6c-.42,0-2,1.69-2.53,2.5l-1.35.4Zm-5.94-25.54.79.42.7-.93-.81-.45M252,124.21l.9.14.36-1.1-.93-.17m7.92-27.79.67.6.9-.74-.67-.62m-2.73-9.29.79.45.73-.9-.79-.48m-3.21-10.67.62.64,1-.67-.65-.68M262,64.77l.62.64,1-.67-.65-.68"></path><path class="cls-3" d="M272.08,59.44l.4.81,1.12-.33-.4-.85M249.35,92.44l.79.42.71-.93-.82-.45m7.18-17.18.6.67,1-.65-.61-.7"></path><path class="cls-3" d="M257.55,73.1l.6.67,1-.65-.62-.7m14.9-28.69.34.81,1.12-.28-.33-.87m-24.14,66,1.15.2,0-.93-1.16-.17"></path><path class="cls-3" d="M251.49,108.75l1.16.2,0-.93-1.16-.17M269.6,52.43s.28.7-.14,1c0,0-.4.25-.79-.76a4.58,4.58,0,0,1-.17-1.5s.2,1.55.57,1.72c0,0,.36.31.53-.42"></path><path class="cls-3" d="M269.1,52.79c-.26-.11-.45-1.07-.54-1.66l0-.22-.11.2c-.17.28.2,1.63.17,1.54.17.45.48,1,.9.79s.2-1,.17-1.07l-.08-.22c0,.11-.09.6-.28.65Zm.42-.34s.26.65-.11.88h-.14c-.14,0-.34-.2-.54-.74a4.6,4.6,0,0,1-.17-1.43l-.14,0c0,.17.23,1.58.62,1.77h0a.35.35,0,0,0,.31.06c.15-.06.26-.22.34-.54l-.14,0ZM266.06,59s.25.6-.14.82c0,0-.37.22-.74-.65,0,0-.28-1.07-.16-1.24,0,0,.2,1.3.53,1.44,0,0,.34.25.51-.37"></path><path class="cls-3" d="M265.6,59.27c-.22-.08-.42-.9-.51-1.38l0-.17-.12.17c-.14.2.12,1.13.14,1.29.17.4.37.63.6.68a.39.39,0,0,0,.26,0c.48-.25.14-.93.08-1.07,0,.08-.08.51-.25.56l-.17,0ZM266,59s.25.56-.09.73h-.14c-.11,0-.31-.17-.48-.62a4.11,4.11,0,0,1-.17-1.21H265c0,.11.2,1.33.57,1.47a.3.3,0,0,0,.28,0,.56.56,0,0,0,.31-.45L266,59Zm4.36,5.4s.28.6-.14.82c0,0-.36.23-.73-.65a3.93,3.93,0,0,1-.17-1.23s.2,1.29.54,1.43c0,0,.36.26.5-.37"></path><path class="cls-3" d="M269.88,64.7c-.22-.08-.42-.9-.51-1.37l0-.17-.12.17c-.14.22.17,1.37.15,1.29.16.37.47.85.81.68s.14-.93.08-1.07c0,.08-.08.47-.25.56l-.14-.08Zm.4-.28s.23.54-.08.74h-.14c-.12,0-.31-.17-.48-.62a3.85,3.85,0,0,1-.17-1.21l-.11,0c0,.14.2,1.32.56,1.49h0a.36.36,0,0,0,.28.06c.14,0,.26-.2.31-.45l-.14,0Zm-9.75,25.15s.62.25.48.68c0,0-.12.4-1,0,0,0-.93-.56-1-.79,0,0,1,.82,1.38.68,0,0,.4,0,.09-.6"></path><path class="cls-3" d="M260.42,90.11c-.23.08-.93-.37-1.32-.68l-.15-.11,0,.2c.06.22.85.73,1,.84a1,1,0,0,0,.9.09.37.37,0,0,0,.17-.2c.16-.51-.57-.76-.71-.85.06.12.28.43.2.6l-.14.12Zm.08-.48s.57.22.43.6l-.12.11c-.11,0-.33.08-.78-.11s-.93-.62-1-.77l-.12.09c.12.08,1.05.82,1.44.67h0a.39.39,0,0,0,.26-.17.63.63,0,0,0-.09-.53l0,.11Zm2.12,25.59s.79.23.7.82c0,0,0,.56-1.13.25,0,0-1.23-.6-1.35-.87,0,0,1.4.87,1.78.65,0,0,.51-.17,0-.85"></path><path class="cls-3" d="M262.62,116c-.26.16-1.19-.31-1.72-.65l-.2-.11c.11.25-.09.42,1.49,1.18,1.66.51,1.47-1.07.45-1.24l-.22-.06c.08.15.42.51.36.76a.2.2,0,0,1-.17.12Zm0-.65c.62.17.67.6.64.73l-.08.14c-.11.12-.37.2-1,0a3.86,3.86,0,0,1-1.29-.81l-.12.11c.14.08,1.44.9,1.86.65h0a.42.42,0,0,0,.26-.26.87.87,0,0,0-.23-.7l-.05.14Zm3.74-44.55s.28.59-.14.81c0,0-.37.23-.73-.65a3.72,3.72,0,0,1-.17-1.24s.2,1.3.53,1.44c0,0,.34.25.51-.36"></path><path class="cls-3" d="M265.91,71.07c-.22-.08-.42-.9-.48-1.38l0-.17-.12.17c-.14.2.12,1.1.14,1.29.17.4.37.63.6.68a.3.3,0,0,0,.26,0c.48-.25.14-1,.08-1.07,0,.09-.08.48-.25.56l-.2-.05Zm.4-.28s.23.56-.11.73h-.14c-.11,0-.31-.17-.48-.62a3.81,3.81,0,0,1-.17-1.21l-.11,0c0,.14.2,1.33.56,1.49h0a.31.31,0,0,0,.29.06.59.59,0,0,0,.31-.45l-.12,0Zm-8,5.66s.54.36.31.76c0,0-.2.36-1-.17,0,0-.79-.76-.79-1,0,0,.82,1,1.22,1,0,0,.42,0,.22-.56"></path><path class="cls-3" d="M258.08,76.93c-.25,0-.84-.57-1.15-.93l-.12-.15v.2c0,.23.68.91.82,1a1.07,1.07,0,0,0,.85.29.35.35,0,0,0,.2-.14c.28-.48-.37-.88-.48-1l.05.2a.51.51,0,0,1,0,.42l-.16,0Zm.2-.43s.51.34.28.68l-.11.08c-.11,0-.34,0-.73-.28s-.76-.79-.76-.93l-.11.06c.08.11.84,1,1.26,1h0a.31.31,0,0,0,.28-.11.53.53,0,0,0,0-.53l-.11,0Zm2.28-5.77s.37.56,0,.82c0,0-.34.28-.81-.51,0,0-.45-1-.37-1.21,0,0,.4,1.24.76,1.32,0,0,.37.23.42-.42"></path><path class="cls-3" d="M260.16,71.1c-.25-.06-.56-.82-.7-1.3l-.06-.17-.08.17a3.36,3.36,0,0,0,.36,1.27c.71,1.12,1.44.45.93-.37l-.11-.17,0,.2a.72.72,0,0,1-.14.4l-.17,0Zm.34-.34s.31.51,0,.73l-.14,0c-.11,0-.34-.11-.6-.53a4.36,4.36,0,0,1-.37-1.16h-.14c0,.14.4,1.27.79,1.38h0a.28.28,0,0,0,.28,0c.14,0,.2-.22.23-.51Zm5.27-16.5.31.62a1.83,1.83,0,0,1,1.91.73,2.34,2.34,0,0,0-2.22-1.35m-5.72,7.4.28.65a1.81,1.81,0,0,1,1.86.79,2.43,2.43,0,0,0-2.14-1.44m-2,2.6.4.93a2.68,2.68,0,0,1,2.7,1.15A3.29,3.29,0,0,0,258,64.26m-11.52,38.83.67.2a1.87,1.87,0,0,1,1.8-.93,2.33,2.33,0,0,0-2.47.73m2.84,13.77.68.2a1.84,1.84,0,0,1,1.79-.93,2.34,2.34,0,0,0-2.47.74M254.44,130l.9.25a2.44,2.44,0,0,1,2.4-1.24,3.18,3.18,0,0,0-3.29,1m-3.16-33.6.68.54a2.25,2.25,0,0,1,2.48-.23,2.89,2.89,0,0,0-3.16-.3m22.14-56.58.28.42L272.08,46l-.26-.42"></path><path class="cls-3" d="M272.08,46.15c0-.09,1.79-6.34,1.69-5.94l-.4-.6-1.66,5.94.36.6Zm1.29-6.31.29.42v0L272,46l.11,0-.25-.42v.06l1.6-5.75-.11,0Zm-3,3.12.4.51-1.27,7.18-.34-.48"></path><path class="cls-3" d="M269.54,50.85c0-.08,1.38-7.91,1.3-7.41l-.51-.67-1.27,7.43Zm.77-7.79.39.51V43.5l-1.23,7.18.14-.06-.34-.47v.05L270.48,43l-.17,0Zm-4.23,9.63.37.4,1.07-6.28-.4-.42"></path><path class="cls-3" d="M266,52.74l.36.4.11.11,1.1-6.48-.53-.56-1,6.5Zm1-6.31.4.42,0-.06-1,6.28.14,0-.37-.4v.05l1-6.28-.11,0Zm-3.58,11.06.4.43.45-7.35-.45-.43"></path><path class="cls-3" d="M263.89,50.34l.28.28-.43,7.1-.25-.25.4-7.13Zm-.54,7.21.54.6.45-7.55v0l-.6-.59-.4,7.57Zm-6.14,8.53.34.34.68-5.77-.37-.37"></path><path class="cls-3" d="M257.91,60.45l.26.26-.65,5.57-.22-.22.62-5.6Zm-.79,5.66h0l.34.37.12.11.7-6c-.68-.67-.45-.42-.51-.48l-.65,6ZM246.37,90.69l.5,0,3.33,4.76-.48,0"></path><path class="cls-3" d="M250.37,95.57l-3.47-4.9h0l-.68,0,3.49,4.9a3.87,3.87,0,0,1,.68,0Zm-4-4.8.54,0-.06,0,3.35,4.76.06-.1-.48,0,.05,0-3.37-4.73-.08.08Zm.34,3,.53,0,3.33,4.76-.48,0"></path><path class="cls-3" d="M250.68,98.58l-3.47-4.93-.7,0,3.49,4.9.68.06Zm-4-4.79.51,0-.06,0,3.35,4.75.06-.11-.48-.05.06,0-3.38-4.73-.06.12ZM248,113.05l.48-.2,5.07,2.85-.45.17"></path><path class="cls-3" d="M253.75,115.7l-5.24-2.93-.51.2-.14.06,5.26,2.9.62-.22Zm-5.69-2.6.48-.2h-.07l5.07,2.85v-.14l-.45.17h.06l-5.1-2.82v.14Zm2,7.41,3.35,1.18.25-.14-3.32-1.21"></path><path class="cls-3" d="M250.34,120.4l3.21,1.19-.17.08-3.24-1.15.2-.12Zm-.06-.11-.28.17-.08.06,3.46,1.24.34-.2-3.44-1.27Zm9.6-23.15.31,0,2,3.1-.28,0"></path><path class="cls-3" d="M262.28,100.35l-2.06-3.2-.31,0h-.08l2.08,3.19c.06,0,.45,0,.37,0m-2.4-3.16.31,0,0,0,2,3.13,0-.08-.28,0,0,0-2-3.1,0,0Zm-13-13.82h.34l2.56,4.08-.31,0"></path><path class="cls-3" d="M249.89,87.54l-2.62-4.19v0h-.45l2.65,4.19Zm-3-4.08h.34l0,0,2.57,4.08,0-.11-.33,0,0,0-2.56-4.08,0,.14Zm1,.11h.33l2.48,3.69-.31,0"></path><path class="cls-3" d="M250.42,87.32h.4l-2.53-3.8v0h-.45l2.6,3.83Zm-2.5-3.69h.33l0,0,2.45,3.69,0-.11h-.28l0,0L248,83.54l-.06.09ZM266.84,66.9a.65.65,0,0,1,.45-.11c.34,0,.31.34.34.4s-.48-.08-.45.08c0,0-.09.06.11.4a12.69,12.69,0,0,0,.93,1.13v.25a4.21,4.21,0,0,0-1.3-.42s-.16-.06-.11.14l-.08.14-.45,0a1,1,0,0,1-.2-.48s0-.28.48-.22a2.34,2.34,0,0,1,1,.25s.14.09.06,0a7.73,7.73,0,0,1-.79-1s-.2-.48,0-.51"></path><path class="cls-3" d="M266.78,67.41a11.3,11.3,0,0,0,.82,1l0,0v0l0,0a2.26,2.26,0,0,0-1.13-.28.46.46,0,0,0-.42.12l-.11.2a1.25,1.25,0,0,0,.19.53l0,0,.54,0,0,0,.08-.14,0,0v-.08H267a5.12,5.12,0,0,1,1.27.42l.09,0c0-.09,0-.45,0-.37l0,0c-.37-.4-.9-1.13-.9-1.13-.14-.22-.12-.31-.12-.31v0l0,0v-.05c.06-.06.26,0,.37,0l.11,0-.06-.12c0-.44-.31-.42-.4-.42a1.12,1.12,0,0,0-.5.15l0,0-.08.05c-.11.17,0,.45,0,.54Zm.09-.45h0a.88.88,0,0,1,.42-.11c.2,0,.23.11.26.25l0,.08.06-.08c-.06,0-.37-.06-.48.05l0,.12,0-.06c-.05,0-.08.14.12.45,0,0,.56.76.93,1.16l0,0V69l.08-.06a5.54,5.54,0,0,0-1.32-.44h0l-.17,0,0,.2v-.05l-.08.14.05,0-.45,0,.06,0a.83.83,0,0,1-.17-.45l.06-.12a1.86,1.86,0,0,1,1.35.2h.17l0-.14a5.86,5.86,0,0,1-.79-1,.78.78,0,0,1-.06-.37l0,0ZM249.1,101.33a.78.78,0,0,1,.17-.48c.2-.31.48,0,.53,0s-.36.36-.2.45c0,0,0,.11.4.11,0,0,1,0,1.58-.11l.23.14a6.38,6.38,0,0,0-1.19.87s-.14.12.06.2l.08.14-.25.43a1.19,1.19,0,0,1-.56-.14s-.23-.17.08-.57a2.76,2.76,0,0,1,.87-.76s.14-.08,0-.08a12.48,12.48,0,0,1-1.38.08c0,.06-.47-.08-.4-.22"></path><path class="cls-3" d="M249.49,101.68c.31,0,1.35-.09,1.41-.09h0l0,0v-.06l0,0a2.36,2.36,0,0,0-.9.79c-.34.39-.25.78.56.78l.29-.47,0,0-.09-.14v0h0l-.06-.06,0,0a4.72,4.72,0,0,1,1.15-.84l.09-.06-.34-.22h0c-.56.08-1.55.11-1.57.11-.29,0-.34-.08-.34-.08l0,0,.23-.34.08-.08-.14,0,0,0a.4.4,0,0,0-.56.06l0,0a.83.83,0,0,0-.17.54v.11c.14.06.45.14.54.17Zm-.31-.37s0-.14.17-.42.25-.11.4-.06l.08,0-.05-.11c-.06,0-.28.28-.26.45l.09.11,0,0s0,.16.48.2a15.28,15.28,0,0,0,1.57-.12h0l.22.14v-.14a5.64,5.64,0,0,0-1.21.91l-.08.16.14.17,0,0,.08.15v-.06l-.25.42.06,0a1,1,0,0,1-.51-.11l-.06-.11c0-.28.65-1,1-1.1l.11-.14-.14-.09a8,8,0,0,1-1.38.09,1,1,0,0,1-.37-.17v-.08Zm9.44,25.74s-.06-.11.05-.4a.27.27,0,0,1,.4-.14s-.2.34-.05.4,0,.08.33,0c0,0,.77-.2,1.19-.37l.2.08a3.89,3.89,0,0,0-.74.88s-.11.11.09.14l.08.11-.11.37a1.14,1.14,0,0,1-.45,0s-.2-.09,0-.43a1.91,1.91,0,0,1,.53-.73s.12-.08,0,0c-.35.12-.69.22-1,.31-.05,0-.45-.06-.42-.2"></path><path class="cls-3" d="M259,127.25a7.73,7.73,0,0,0,1.07-.31h0l0,0v0l0,0c-.26.2-.71.84-.62,1.13l.11.14a1,1,0,0,0,.48,0h0l.14-.43,0,0-.08-.12h0l-.06,0v0a4.26,4.26,0,0,1,.73-.85l.06,0-.06,0-.19-.09h-.06c-.42.17-1.16.34-1.18.37a.71.71,0,0,1-.29,0l0,0,.11-.28.06-.08H259c-.17-.06-.36-.09-.45.17a.84.84,0,0,0-.05.42v0l0,.08a.83.83,0,0,0,.44.09Zm-.31-.2h0a.78.78,0,0,1,.06-.37c0-.17.17-.14.28-.11h.06l-.06-.09c0,.06-.17.29-.11.4l.08.09,0,0c.09.25,1.38-.2,1.58-.31h0l.2.08,0-.08a4.84,4.84,0,0,0-.76.87l0,.14.14.09,0,0,.08.11v0l-.11.36,0,0a.61.61,0,0,1-.42,0l-.06-.08c-.08-.22.34-.84.57-1l.05-.12-.14,0c-.34.12-.69.22-1,.31-.17,0-.31,0-.31-.06l0-.06Zm.9-27.63s-1.21-.7-.93.26c.06.11.37,1,1.22,1,.33,0,.5-.45.5-.45l.34.45.37,0-1.07-2-.54-.2.42.9a.66.66,0,0,1-.33.73c-.09,0-.15,0-.34-.31s.36-.45.36-.45m-2.5-28.58s-.34-.4.14-.51c.05,0-.2.62.17.85s2.4,1,2.76,1.18a4.7,4.7,0,0,0-2.51-1.21s-.28-.11.11-1c-.16-.42-.42-.4-.36-.4-.82.17-.82.4-.82.45-.08.45.51.65.51.65M261,82a1,1,0,0,0-.2-.2c-.34-.2-.42,0-.42.06-.09.31.61.93.67,1a.44.44,0,0,0,.63,0l0,0a2.61,2.61,0,0,0,.17-.28l.9.6s.48.31.81-.31a1.88,1.88,0,0,0-.48-2,5.67,5.67,0,0,1-.05,2c0,.06-.09.25-.43,0a12,12,0,0,1-1.29-1.47l-.42,0,.42.57s.08.67-.23.65l-.28-.29c-.14-.14.14-.31.14-.31m-.25,30.75a1.88,1.88,0,0,0-.23-.16c-.39-.15-.42.11-.42.14,0,.31.76.81.85.84a.44.44,0,0,0,.62,0l0-.07a3.26,3.26,0,0,0,.11-.31l1,.43s.53.22.79-.45a1.87,1.87,0,0,0-.82-1.86,6.08,6.08,0,0,1,.28,1.94c0,.06,0,.28-.4.11a13.44,13.44,0,0,1-1.52-1.21l-.42,0,.51.45s.2.65-.11.68a1.19,1.19,0,0,1-.31-.23c-.23-.08,0-.28,0-.28M251.06,74a1.26,1.26,0,0,0-.2-.2c-.37-.2-.45,0-.42.06-.09.31.62.93.67,1a.47.47,0,0,0,.64,0l0,0,.17-.29.9.6a.59.59,0,0,0,.82-.22.14.14,0,0,0,0-.06,1.88,1.88,0,0,0-.48-2,5.67,5.67,0,0,1-.05,2c-.26.65-1.47-1.21-1.69-1.4l-.43,0,.43.54s.08.68-.23.65l-.28-.28c-.22-.17.06-.34.08-.34m4,11.46,1,.62a2.25,2.25,0,0,1,1.49-.51s2.17,3.32-1.75,3.77c-3.4.4-7-1.18-9.77.17.71.54.82.65.82.65,1.63-1.13,4.7-.17,9.66-.17A2.24,2.24,0,0,0,259,88.55s.7-2.71-1.44-3.5a2.3,2.3,0,0,0-2.45.4"></path><path class="cls-3" d="M270.44,58.82a2.39,2.39,0,0,1,.51-1.57,7.76,7.76,0,0,1-.73-.79c.36-.82,1-1.1,2.6-2.2-1.1,4.5-2.37,4.56-2.37,4.56m-.84.31a6.55,6.55,0,0,0-1.05.37l1.08-1.19,0,.82Zm-3.89,5.24a2.52,2.52,0,0,1-.9-.48s1.24,1.77.14,2.28c-4.28,1.78-7.49,1.24-10.82,2.51-.42-2.2,4.42-10.17,4.42-10.17s.31.54.46.6a64.94,64.94,0,0,1,7.6,3.69c.34.23.84,1.66-.9,1.58m-5-9.07s.56-.85.6-.17a19.47,19.47,0,0,0,.2,4.11c-.23-.16-2.76-1-2.76-1l2-3ZM256.54,83.5c-.45-.51.25-.79.25-.79a1.71,1.71,0,0,1-.25.79M281.79,48c-.2-.31-.33-.56-1.21-.64-.67.14-.67.9-1.91,1.32-1.07.14-1-.76-1-.76s0-.48.06-1.21,1.38-.34,1.38-.34,1.69.11,2.14-.76a8.12,8.12,0,0,0,.56-1.24s.2-1.21-2.31-1.8a11.05,11.05,0,0,0,.6,1.13s.51-.08.73.11-.45,1.18-.45,1.18a2.21,2.21,0,0,1-2.22.4c-1.16-.53-1.52,1.47-1.19,2.65s1.6,2,2.43,1.55,1.79-1.58,1.88-1.24A9,9,0,0,1,279,54a3.6,3.6,0,0,1-5,.06,7.67,7.67,0,0,1,1.35-2.2l-.54-.9A18.86,18.86,0,0,1,270,54.74c-1.6,1.21-.28,2.16-.28,2.16A13.23,13.23,0,0,0,266.59,61a5.74,5.74,0,0,0,.7.78,6.75,6.75,0,0,1,2.06-1.35,12.34,12.34,0,0,1-.42,1.21c-.79,1.36-2.48.43-2.48.43s-3.86-2.11-4.62-2.57a21.56,21.56,0,0,0-.17-4.47c-.62-1.92-1.38-.71-1.38-.71s-7.35,10.42-6.53,14.51c.5.73.28.7.92.87a19.12,19.12,0,0,1,7.66-.76L262,70.31l.71.62.36-.28a9.5,9.5,0,0,0,.54,5.35c.45,1.69-1.75.76-1.92.54a4.21,4.21,0,0,0-.6-1.19,1.15,1.15,0,0,0,1-1.28,1.51,1.51,0,0,0-.13-.41,2.15,2.15,0,0,0-2.09-.56,4.64,4.64,0,0,0,.45.7,2.17,2.17,0,0,1,.88,0,1.1,1.1,0,0,1-.48.85l-1-.34a6.08,6.08,0,0,1,1.1,2A1.23,1.23,0,0,1,260,77.8a4,4,0,0,0-.81-.45c1.85,2.43.2,3,.2,3a2.41,2.41,0,0,1-2.29-.28c-.33-1.89-1.12-2.53-1.38-4.22-.22-.2-1-.06-1-.06s.65,2,1.21,3.26c.51,2-1.66,2.71-2.22,2.74s-.4-.82-.4-.82A3.1,3.1,0,0,0,252,77.5c-1.57-.9-3,0-2.51,0s1.95.42,2.37.54a1.13,1.13,0,0,1,.6,1.21c.05.73-.73,2.22.93,3s3.09-1,3.09-1l.06.42s-2.64,1-.53,2.42c1.94,1,1.57-1.79,1.57-1.79s1.58-1.47,4.48,8.3c0-.73-.11-3-.11-3.15-2.14-6.31-4.51-5.92-4.51-5.92s-.11-.6-.14-.93c3.3,1.36,3.75-.73,3.75-.73a1.84,1.84,0,0,0-.42-1.43A1.61,1.61,0,0,0,261.88,77l1.55.56s1.63.43.87-2.31c-1.21-4.36.68-6.11.68-6.11l-.68-.7-1.1.62s.2-.48-.54-1a10.21,10.21,0,0,0,2.71-.81,1.47,1.47,0,0,0,.77-1.91,2.75,2.75,0,0,0-.17-.29c.31.25,2.81.08,1.66-1.89a1.88,1.88,0,0,0,2.25-1.38,6.73,6.73,0,0,0,.54-1.86c3.4-1.1,2.45-3.71,3.43-5.59a4.74,4.74,0,0,0,4.25,1.46,5.63,5.63,0,0,0,2.54-2.31s2.08-4.33,1.15-5.46m-28.1,44.77c-.76-.47.2-1,.2-1s.16.82-.2,1m2.87,2.37c2.2-1.52.28-4.11.28-4.11a3.51,3.51,0,0,0-4.51.93c-.59,1.15,1.27,1.46,1.27,1.46s1.38.37,1.33-1.32c.25-1.27,1.07-.9,1.21-.6,1.18,2.53-.12,3.18-.54,3.24s-1.18.08-1.18.08a3.53,3.53,0,0,1,1.72.9c1.6,2-.26,2.4-.65,2.51a79.4,79.4,0,0,0-9.55,1.64c-.17,1,1.21.75,1.21.75s-.14-.33.06-.42c.48-.22,8-1.12,8.76-1.32s3.29-1.38.59-3.75M259,112c-.2-.17-.79-.87-.79-.87l1.3-.05a1,1,0,0,1-.51.92m-1.2-9.21c2.73-2.37,0-3.58-.77-3.24a9.92,9.92,0,0,0-1.91.93l1.1.48a1.62,1.62,0,0,1,1.15-.65c1.16.87.09,1.69-.33,1.91-2.37,1-9.32,2.09-10.34,2.8,1.21.54,1,.42,1,.42s9.38-2.31,9.94-2.19c5.8,4.73,2.68,6.73,2.68,6.73a9.59,9.59,0,0,0-2-2.15c1.35.09,2-3.54-1-2.89-3.79.95-7.29,2-7.29,2l.34-.76-3.07,1.41.93.7s8.19-2.42,9.09-2.73,1.8,1.24.48,1.69a2.26,2.26,0,0,1-1.15-.16s2.73,2.73,2.62,3.4a10.12,10.12,0,0,1-1.55.12l-2.28-1.8h-1.47a8.56,8.56,0,0,1,3.52,3.41,2,2,0,0,1-.87,1.52s-.79.53-1.16-.71a2.86,2.86,0,0,0-4.22-1.69s-2,.74-2,1.1,3-1,3.8-.9c1.38.11,1,1.69,2,2.56,1.21,1.22,3.21-.56,3.29-.7-.81,3.27-7.21,3.1-8.33,5.63a.93.93,0,0,0,1.15.34c2.17-3.13,4.62-1.52,7.69-4.7a2.25,2.25,0,0,0,.42-2.14s1.75-.68,1.16-1.92c.93.11,4.28-4.28-2.68-7.83m1.95,18.64c-.6.15-.51-.56-.51-.56s.93.4.51.56m-3.69-.08s.47.42.47.65c-.64,0-.47-.65-.47-.65m10.3.45c-5.79-5-7.24-2.25-7.24-2.25a2.16,2.16,0,0,0-1.63-.54c-2.22.88-2.45,2.29-2.45,2.29s-.06,2.25,2,1.38c1.44-.62,0-1.83-.22-2.26s.22-.62.45-.7,1.32.56,1.32.56-.64,1.07.11,1.69c2.17.79,2.23-1.12,1.86-1.21-.34-.42-.08-.2-.81-.81.33-.6,6.75,1.18,6,4.16-.17.51-.73,1-3.35,1.41,3.49.48,5.3-2.14,4-3.71"></path><polygon class="cls-3" points="313.64 11.19 312.99 6.82 314.03 7.84 312.99 3.97 314.03 4.64 314.81 0 315.6 4.73 316.64 4.21 315.47 7.77 316.64 6.96 315.98 11.19 314.81 15.83 313.64 11.19"></polygon></g></g></g></svg>